<svg width="86" height="124" viewBox="0 0 86 124" fill="none" xmlns="http://www.w3.org/2000/svg">
<g filter="url(#filter0_d_183_270)">
<path d="M81.3333 107.698C81.3333 112.282 77.8702 116 73.5999 116H11.7324C10.1879 116 8.67882 115.504 7.39955 114.575C6.12028 113.646 5.12946 112.327 4.55478 110.788C3.98057 109.249 3.8485 107.561 4.17559 105.942C4.50267 104.322 5.27392 102.844 6.39003 101.699L53.1773 53.6751C60.7561 45.8475 61.382 32.9191 54.5819 24.2535C50.9786 19.6638 45.9156 16.9578 40.3306 16.6309C34.7877 16.3273 29.4468 18.4211 25.394 22.5723L16.9331 30.8228C13.7721 33.9128 8.87826 33.6482 6.00964 30.2592C3.13787 26.8791 3.37205 21.6123 6.53165 18.5249L14.8572 10.4041C21.7859 3.31075 31.385 -0.521322 41.175 0.0572498C50.9216 0.624925 60.1195 5.5472 66.4054 13.5564C78.4405 28.8769 77.3289 51.7733 63.8799 65.6539L31.0128 99.3823H73.5999C77.8775 99.3952 81.3333 103.105 81.3333 107.698Z" fill="#876FDC"/>
</g>
<defs>
<filter id="filter0_d_183_270" x="0" y="0" width="85.3333" height="124" filterUnits="userSpaceOnUse" color-interpolation-filters="sRGB">
<feFlood flood-opacity="0" result="BackgroundImageFix"/>
<feColorMatrix in="SourceAlpha" type="matrix" values="0 0 0 0 0 0 0 0 0 0 0 0 0 0 0 0 0 0 127 0" result="hardAlpha"/>
<feOffset dy="4"/>
<feGaussianBlur stdDeviation="2"/>
<feComposite in2="hardAlpha" operator="out"/>
<feColorMatrix type="matrix" values="0 0 0 0 0 0 0 0 0 0 0 0 0 0 0 0 0 0 0.25 0"/>
<feBlend mode="normal" in2="BackgroundImageFix" result="effect1_dropShadow_183_270"/>
<feBlend mode="normal" in="SourceGraphic" in2="effect1_dropShadow_183_270" result="shape"/>
</filter>
</defs>
</svg>
