<svg width="179" height="179" viewBox="0 0 179 179" fill="none" xmlns="http://www.w3.org/2000/svg">
<circle cx="89.5" cy="89.5" r="84.5" stroke="#4B2D71" stroke-width="10"/>
<circle cx="156" cy="40" r="15" stroke="#9460D6" stroke-width="6"/>
<path d="M36.48 78.06C36.72 74.34 38.14 71.44 40.74 69.36C43.38 67.28 46.74 66.24 50.82 66.24C53.62 66.24 56.04 66.74 58.08 67.74C60.12 68.74 61.66 70.1 62.7 71.82C63.74 73.54 64.26 75.48 64.26 77.64C64.26 80.12 63.6 82.24 62.28 84C60.96 85.76 59.38 86.94 57.54 87.54V87.78C59.9 88.5 61.74 89.82 63.06 91.74C64.38 93.62 65.04 96.04 65.04 99C65.04 101.36 64.5 103.46 63.42 105.3C62.34 107.14 60.74 108.6 58.62 109.68C56.5 110.72 53.96 111.24 51 111.24C46.68 111.24 43.12 110.14 40.32 107.94C37.56 105.7 36.08 102.5 35.88 98.34H42.48C42.64 100.46 43.46 102.2 44.94 103.56C46.42 104.88 48.42 105.54 50.94 105.54C53.38 105.54 55.26 104.88 56.58 103.56C57.9 102.2 58.56 100.46 58.56 98.34C58.56 95.54 57.66 93.56 55.86 92.4C54.1 91.2 51.38 90.6 47.7 90.6H46.14V84.96H47.76C51 84.92 53.46 84.38 55.14 83.34C56.86 82.3 57.72 80.66 57.72 78.42C57.72 76.5 57.1 74.98 55.86 73.86C54.62 72.7 52.86 72.12 50.58 72.12C48.34 72.12 46.6 72.7 45.36 73.86C44.12 74.98 43.38 76.38 43.14 78.06H36.48ZM95.745 77.4C95.305 75.56 94.505 74.18 93.345 73.26C92.185 72.34 90.565 71.88 88.485 71.88C85.325 71.88 82.965 73.1 81.405 75.54C79.845 77.94 79.025 81.94 78.945 87.54C79.985 85.78 81.505 84.42 83.505 83.46C85.505 82.5 87.665 82.02 89.985 82.02C92.625 82.02 94.945 82.6 96.945 83.76C98.985 84.88 100.565 86.52 101.685 88.68C102.845 90.84 103.425 93.42 103.425 96.42C103.425 99.22 102.865 101.72 101.745 103.92C100.665 106.12 99.045 107.86 96.885 109.14C94.725 110.38 92.125 111 89.085 111C84.965 111 81.725 110.1 79.365 108.3C77.045 106.46 75.405 103.88 74.445 100.56C73.525 97.24 73.065 93.1 73.065 88.14C73.065 73.5 78.225 66.18 88.545 66.18C92.545 66.18 95.685 67.26 97.965 69.42C100.285 71.58 101.645 74.24 102.045 77.4H95.745ZM88.485 87.78C86.045 87.78 83.965 88.52 82.245 90C80.565 91.44 79.725 93.54 79.725 96.3C79.725 99.06 80.505 101.26 82.065 102.9C83.665 104.5 85.885 105.3 88.725 105.3C91.245 105.3 93.225 104.52 94.665 102.96C96.145 101.4 96.885 99.32 96.885 96.72C96.885 94 96.165 91.84 94.725 90.24C93.325 88.6 91.245 87.78 88.485 87.78ZM110.721 88.56C110.721 81.64 111.881 76.24 114.201 72.36C116.561 68.44 120.601 66.48 126.321 66.48C132.041 66.48 136.061 68.44 138.381 72.36C140.741 76.24 141.921 81.64 141.921 88.56C141.921 95.56 140.741 101.04 138.381 105C136.061 108.92 132.041 110.88 126.321 110.88C120.601 110.88 116.561 108.92 114.201 105C111.881 101.04 110.721 95.56 110.721 88.56ZM135.201 88.56C135.201 85.32 134.981 82.58 134.541 80.34C134.141 78.1 133.301 76.28 132.021 74.88C130.741 73.44 128.841 72.72 126.321 72.72C123.801 72.72 121.901 73.44 120.621 74.88C119.341 76.28 118.481 78.1 118.041 80.34C117.641 82.58 117.441 85.32 117.441 88.56C117.441 91.92 117.641 94.74 118.041 97.02C118.441 99.3 119.281 101.14 120.561 102.54C121.881 103.94 123.801 104.64 126.321 104.64C128.841 104.64 130.741 103.94 132.021 102.54C133.341 101.14 134.201 99.3 134.601 97.02C135.001 94.74 135.201 91.92 135.201 88.56Z" fill="#4B2D71"/>
</svg>
