<svg width="82" height="144" viewBox="0 0 82 144" fill="none" xmlns="http://www.w3.org/2000/svg">
<g filter="url(#filter0_d_295_15)">
<path fill-rule="evenodd" clip-rule="evenodd" d="M47.7628 16.5714C56.3235 16.5714 62.9893 24.157 62.9893 33.1429C62.9893 42.1287 56.3235 49.7143 47.7628 49.7143H32.6912C30.7356 49.7143 28.8601 50.5872 27.4772 52.1411C26.0944 53.695 25.3176 55.8025 25.3176 58C25.3176 60.1975 26.0944 62.305 27.4772 63.8589C28.8601 65.4128 30.7356 66.2857 32.6912 66.2857H47.7591C56.3235 66.2857 62.9893 73.8713 62.9893 82.8571C62.9893 91.843 56.3235 99.4286 47.7628 99.4286H32.6912C25.9701 99.4286 20.3625 94.7181 18.3127 88.3257C17.6478 86.2584 16.2793 84.5726 14.5082 83.6391C12.7372 82.7056 10.7087 82.6009 8.86893 83.3481C7.0292 84.0952 5.52896 85.633 4.69823 87.6231C3.8675 89.6133 3.77434 91.8927 4.43925 93.96C8.59058 106.877 19.7284 116 32.6912 116H47.7591C64.169 116 77.7364 101.33 77.7364 82.8571C77.7376 78.1369 76.8313 73.4721 75.0795 69.1819C73.3277 64.8917 70.7718 61.0774 67.5867 58C70.7718 54.9226 73.3277 51.1083 75.0795 46.8181C76.8313 42.5279 77.7376 37.8631 77.7364 33.1429C77.7364 14.6699 64.1653 0 47.7628 0H32.6912C19.7284 0 8.59058 9.12257 4.43925 22.04C4.11002 23.0634 3.96339 24.1496 4.00774 25.2366C4.05208 26.3236 4.28652 27.3902 4.69769 28.3754C5.10885 29.3606 5.68868 30.2452 6.40407 30.9786C7.11945 31.712 7.95639 32.2799 8.86709 32.6499C10.7063 33.397 12.7344 33.2925 14.5051 32.3594C16.2758 31.4263 17.6441 29.741 18.309 27.6743C20.3625 21.2819 25.9701 16.5714 32.6912 16.5714H47.7591H47.7628Z" fill="#876FDC"/>
</g>
<path d="M35.6715 96.7818C37.0849 97.9976 39.0948 98.6431 40.8483 98.472C43.9934 98.1641 47.0144 99.8705 46.7405 103.111C45.7204 103.884 45.6187 102.185 45.3253 101.627C44.8893 100.799 44.1869 100.182 43.1718 100.229C41.0431 100.326 41.558 103.418 43.498 102.951C43.491 102.089 43.5371 100.709 44.3755 102.314C44.8884 103.296 44.2753 104.053 43.236 104.201C42.3467 104.327 41.2819 103.65 41.6415 105.207C41.8616 106.16 42.9227 106.75 43.7096 107.175C45.6162 108.204 47.1169 107.626 47.5737 105.515C47.7386 104.753 47.7833 103.693 48.3801 103.112C48.9967 102.512 50.302 102.781 50.3006 103.916C50.2988 104.948 48.7396 104.595 48.9853 106.042C49.2036 107.328 50.6592 107.055 51.6667 107.467C53.9783 108.411 53.4016 111.064 51.1571 109.349C50.5096 108.854 49.3663 107.726 48.6476 108.626C47.9774 109.466 49.0358 110.809 49.8156 111.201C50.5334 111.563 52.1219 111.872 52.9449 111.669C54.278 111.34 53.8509 110.247 54.5638 109.599C55.3603 108.875 56.4777 110.36 57.3017 111.848C57.4118 109.235 56.9249 106.557 55.7652 104.014C52.0201 95.8047 42.615 91.9648 34.2794 95.008C34.6833 95.6144 35.0821 96.2756 35.6715 96.7818Z" fill="#7967DE"/>
<path d="M34.1539 127.239C43.0344 130.555 52.9219 126.045 56.2384 117.164C59.5549 108.284 55.0444 98.3962 46.1639 95.0797C37.2835 91.7632 27.3959 96.2737 24.0795 105.154C20.763 114.035 25.2735 123.922 34.1539 127.239Z" fill="#573FD8"/>
<path d="M49.2083 120.898C49.0803 120.613 49.2187 120.15 48.9604 119.843C48.4475 119.233 46.7216 119.244 46.0181 119.271C43.2757 119.377 45.6964 123.79 43.362 125.281C41.9876 126.158 40.5183 125.742 39.4978 124.663C38.9326 124.066 38.5929 123.634 37.8123 123.184C37.32 122.901 36.7719 122.717 36.3844 122.323C36.7547 122.815 37.1651 123.675 37.3941 124.201C37.9383 125.453 37.7826 125.535 36.5236 125.395C36.0376 125.341 32.5964 124.835 33.5468 123.482C33.9626 122.89 35.039 123.712 35.5397 123.189C36.3275 122.365 32.0245 119.288 34.7232 118.609C35.4605 118.423 35.9905 119.181 36.4365 119.603C37.1869 120.312 37.9675 120.951 38.9219 121.384C41.7821 122.679 43.825 119.086 43.0762 116.675C42.8417 115.919 42.2333 114.456 43.0697 113.824C44.293 112.899 44.3646 114.704 44.3936 115.47C44.5227 118.899 47.6741 116.416 49.7838 116.392C51.0356 116.377 52.8052 116.709 53.7714 117.424C54.3955 117.886 54.901 118.451 55.5054 118.804C55.8467 118.12 56.1425 117.414 56.3892 116.692C56.2072 116.543 56.0249 116.339 55.8471 116.072C55.3029 115.253 55.047 114.041 54.0057 113.776C53.0252 113.526 51.7771 114.061 50.7437 113.994C49.5493 113.917 48.2362 113.687 47.6671 112.584C47.2775 111.831 47.6013 110.567 47.0938 109.934C45.9641 108.525 45.0525 111.609 43.6114 111.743C42.4435 111.851 37.7762 110.46 39.2916 108.933C40.2264 107.99 43.7199 109.912 42.2836 107.437C41.2333 105.627 38.4213 105.238 37.8204 103.169C38.447 102.466 39.589 102.93 39.7872 101.901C39.9791 100.906 38.8028 100.473 37.9612 100.459C37.1056 100.444 35.7635 100.873 35.5237 101.796C35.2011 103.038 36.6599 103.964 37.2909 104.757C37.7808 105.373 38.2889 106.49 37.1958 106.835C35.9091 107.241 33.6002 105.074 33.3387 103.93C32.8846 101.938 35.7209 101.494 35.0562 99.0948C34.6285 97.55 32.9666 96.9501 31.2644 96.4501C30.7825 96.7403 30.3195 97.052 29.8752 97.3831C30.994 98.0141 33.0032 99.253 33.0646 100.002C33.1149 100.619 32.2471 101.518 32.0494 102.139C31.7775 102.995 31.5279 103.912 31.8135 104.751C32.1036 105.602 32.8029 106.56 33.5735 107.02C34.309 107.46 35.4696 107.375 35.8362 108.34C34.5036 108.988 35.0767 109.887 36.2064 110.442C37.7583 111.204 38.9373 111.331 39.9181 113.077C40.6411 114.363 41.509 116.582 40.326 117.815C39.2521 118.935 37.391 118.581 36.4556 117.461C35.4732 116.284 35.7925 113.515 33.8617 113.408C31.1444 113.256 31.0338 116.279 31.5584 118.131C31.7687 118.876 32.5632 120.018 32.0328 120.763C31.0095 122.199 28.4281 120.876 27.9349 119.562C27.2502 117.738 29.8609 116.861 29.465 115.697C29.0185 114.385 27.3031 116.268 26.4188 115.438C25.0513 114.157 27.4245 113.616 28.2374 113.606C29.5362 113.588 30.5987 113.895 31.5785 112.841C32.736 111.596 33.056 107.57 31.9696 106.2C31.0846 105.082 30.2246 105.966 30.1465 106.997C30.0708 107.996 30.8587 109.336 30.504 110.28C29.7219 112.36 26.8506 110.676 26.2417 109.135C25.8139 108.051 25.3916 105.781 26.3294 104.869C26.9219 104.293 27.9297 104.465 28.6358 104.187C31.266 103.147 30.8726 99.2879 29.1261 97.9761C23.3483 102.81 21.2546 111.075 24.5329 118.262C28.4674 126.887 38.6481 130.689 47.2729 126.754C48.8971 126.013 50.3501 125.051 51.6118 123.919C50.7058 123.033 49.689 121.967 49.2083 120.898Z" fill="#7967DE"/>
<path d="M47.4904 98.6122C47.4342 97.5735 46.6283 96.9282 45.9365 96.337C45.2473 95.749 44.6321 94.8436 43.688 94.669L43.2985 95.4799C42.6016 94.5593 40.4522 94.2689 39.4561 94.8272C37.7435 95.7882 39.4828 96.5773 40.6322 96.5656C41.853 96.5537 43.428 96.4639 44.5532 97.1825C45.3116 97.6674 46.3519 99.451 47.4904 98.6122Z" fill="#533BD9"/>
<path d="M25.4651 115.515C25.1278 114.851 24.717 114.029 25.1968 113.323C25.8245 112.4 26.6277 113.197 27.4299 112.593L28.0205 111.944C26.7724 111.817 25.3991 108.787 24.3452 109.437C23.2773 110.095 24.3945 113.254 24.5685 114.152C24.6933 114.795 24.6501 116.017 25.1764 116.532C26.2221 117.554 25.7757 116.125 25.4651 115.515Z" fill="#533BD9"/>
<path d="M47.9593 123.737L47.6521 122.231C48.0231 121.135 45.8351 118.816 45.3964 121.108C45.1802 122.236 46.098 123.924 45.3055 124.919C44.986 125.32 43.805 125.226 44.0044 125.918C44.159 126.453 45.4395 126.209 45.7579 126.141C46.821 125.911 47.9845 124.906 47.9593 123.737Z" fill="#533BD9"/>
<path d="M51.8653 100.94C51.6471 100.493 50.8435 100.027 50.3812 100.467C49.8296 100.994 50.6327 101.92 50.8833 102.4C51.308 103.216 52.1875 105.213 50.9417 105.811C51.4071 107.307 52.7259 106.205 53.5613 106.648C54.1312 106.95 54.7552 108.881 55.166 107.127C55.5858 105.34 53.291 102.958 52.6185 101.482L51.8653 100.94Z" fill="#533BD9"/>
<path d="M51.8134 114.633C51.3128 114.353 50.2738 114.482 49.6818 114.47L48.338 114.577C47.3068 114.5 46.012 110.455 44.9375 112.611C44.6109 113.266 45.3213 114.216 45.5754 114.83C45.9447 115.72 45.7586 115.76 46.9562 115.712C48.3823 115.655 49.9174 115.831 51.388 115.713C52.3364 115.637 52.9667 115.278 51.8134 114.633Z" fill="#533BD9"/>
<path opacity="0.2" d="M54.9033 104.509C54.3014 102.707 52.5839 100.801 51.2964 99.4447C49.2245 97.2651 46.5622 96.1443 43.6091 95.507C38.7197 94.4518 33.2903 95.9045 29.4757 99.0462C25.3608 102.435 22.8693 108.394 24.5578 113.535C25.7924 117.292 27.6206 122.773 31.7235 123.977C33.5648 124.518 37.5884 125.139 37.3901 122.247C37.2086 119.587 34.9427 117.222 34.2195 114.679C32.9965 110.383 33.9338 106.312 38.4235 104.677C40.3966 103.959 43.043 103.637 44.9924 104.562C46.7482 105.395 47.9242 107.15 49.1807 108.546C50.2806 109.767 51.8163 111.354 53.5577 110.439C55.2351 109.557 54.9117 108.222 55.4881 106.9L54.9033 104.509Z" fill="#DDDDF4"/>
<path opacity="0.2" d="M49.4182 103.069C49.5177 101.965 47.8714 100.699 47.8708 100.23L47.2309 99.383C45.8862 97.5271 43.384 97.2983 41.2741 97.4199C40.0061 97.4924 35.7927 98.3792 36.773 100.609C37.1801 101.536 38.6303 101.248 39.4733 101.248C40.8592 101.248 42.3675 101.283 43.7092 101.693C44.7392 102.007 49.2523 104.916 49.4182 103.069Z" fill="#CEC3ED"/>
<defs>
<filter id="filter0_d_295_15" x="0" y="0" width="81.7363" height="124" filterUnits="userSpaceOnUse" color-interpolation-filters="sRGB">
<feFlood flood-opacity="0" result="BackgroundImageFix"/>
<feColorMatrix in="SourceAlpha" type="matrix" values="0 0 0 0 0 0 0 0 0 0 0 0 0 0 0 0 0 0 127 0" result="hardAlpha"/>
<feOffset dy="4"/>
<feGaussianBlur stdDeviation="2"/>
<feComposite in2="hardAlpha" operator="out"/>
<feColorMatrix type="matrix" values="0 0 0 0 0 0 0 0 0 0 0 0 0 0 0 0 0 0 0.25 0"/>
<feBlend mode="normal" in2="BackgroundImageFix" result="effect1_dropShadow_295_15"/>
<feBlend mode="normal" in="SourceGraphic" in2="effect1_dropShadow_295_15" result="shape"/>
</filter>
</defs>
</svg>
