<svg width="1440" height="462" viewBox="0 0 1440 462" fill="none" xmlns="http://www.w3.org/2000/svg">
<path d="M711.5 56.5004C645.1 97.7004 662.833 159.667 680 185.5L774 148L920 210L1010.5 265C1017 256.5 1033.7 231.2 1048.5 198C1063.3 164.8 1029.33 110.833 1010.5 88L1060.5 76C1061.3 47.6 1027.5 56.8333 1010.5 65C1025.3 33.8 1004.33 19.3336 992 16.0004C998.8 29.6007 989.167 48.6671 983.5 56.5004C981.5 53.667 968.5 41.6004 932.5 16.0004C887.5 -15.9996 794.5 5.00036 711.5 56.5004Z" fill="url(#paint0_linear_288_2)" stroke="black"/>
<g filter="url(#filter0_di_288_2)">
<path d="M738 117C704.8 131.4 694.833 170 694 187.5C691.5 176 683.9 158.5 673.5 180.5C663.1 202.5 682.833 216.333 694 220.5V242L765.5 268L873.5 295.5L971.5 268L1000 253C1002.5 247.833 1008.5 229.9 1012.5 199.5C1016.5 169.1 986.833 186.833 971.5 199.5C952.7 143.9 898.333 94.6667 873.5 77C842.167 84.3333 771.2 102.6 738 117Z" fill="url(#paint1_linear_288_2)"/>
<path d="M738 117C704.8 131.4 694.833 170 694 187.5C691.5 176 683.9 158.5 673.5 180.5C663.1 202.5 682.833 216.333 694 220.5V242L765.5 268L873.5 295.5L971.5 268L1000 253C1002.5 247.833 1008.5 229.9 1012.5 199.5C1016.5 169.1 986.833 186.833 971.5 199.5C952.7 143.9 898.333 94.6667 873.5 77C842.167 84.3333 771.2 102.6 738 117Z" stroke="black"/>
</g>
<g filter="url(#filter1_i_288_2)">
<ellipse cx="862.362" cy="174.678" rx="29" ry="40" transform="rotate(3.46089 862.362 174.678)" fill="white"/>
</g>
<ellipse cx="863" cy="159" rx="18" ry="20" fill="#062767"/>
<ellipse cx="863.5" cy="150" rx="9.5" ry="11" fill="black"/>
<circle cx="869.5" cy="156.5" r="6.5" fill="white"/>
<g filter="url(#filter2_i_288_2)">
<ellipse rx="29" ry="40" transform="matrix(-0.998176 0.0603672 0.0603672 0.998176 804.362 174.678)" fill="white"/>
</g>
<ellipse rx="18" ry="20" transform="matrix(-1 0 0 1 803.724 159)" fill="#062767"/>
<ellipse rx="9.5" ry="11" transform="matrix(-1 0 0 1 803.224 150)" fill="black"/>
<circle r="6.5" transform="matrix(-1 0 0 1 797.224 156.5)" fill="white"/>
<path d="M775 176C780.269 189.732 794.809 213.682 810.44 207.93L812.5 207C811.812 207.369 811.125 207.678 810.44 207.93L797 214C790.833 212.667 777 201.5 775 176Z" fill="#E3D6D6"/>
<g filter="url(#filter3_i_288_2)">
<path d="M795.051 238.173C787.944 207.185 818.624 191.146 834.852 187C849.896 194.107 879.202 214.292 876.075 238.173C872.166 268.024 803.935 276.908 795.051 238.173Z" fill="#FF9796"/>
</g>
<path d="M848.099 121.144C850.276 113.424 859.589 99.0522 879.419 103.331C899.25 107.61 902.771 122.662 902.052 129.652" stroke="black" stroke-width="11.3793"/>
<path d="M847.62 124.177C843.967 123.601 842.991 120.663 842.576 119.638L852.603 116.323L853.639 122.535C852.994 123.585 850.839 124.685 847.62 124.177Z" fill="black"/>
<path d="M901.574 132.685C905.227 133.261 907.061 130.766 907.771 129.918L899.251 123.679L896.353 129.27C896.644 130.468 898.356 132.178 901.574 132.685Z" fill="black"/>
<path d="M770.573 140.644C768.111 133.009 767.908 115.886 786.79 108.468C805.672 101.05 816.938 111.633 820.211 117.852" stroke="black" stroke-width="11.3793"/>
<path d="M771.854 143.434C768.494 144.977 766.053 143.072 765.141 142.447L771.654 134.135L775.957 138.733C776.001 139.965 774.816 142.074 771.854 143.434Z" fill="black"/>
<path d="M821.492 120.642C824.853 119.099 824.998 116.006 825.12 114.907L814.57 114.429L815.253 120.689C816.159 121.526 818.531 122.002 821.492 120.642Z" fill="black"/>
<path d="M832 264C869.6 251.2 874.5 215.5 835.5 187.5C851.5 193.5 882.1 211.7 876.5 236.5C870.9 261.3 847 266 832 264Z" fill="#FF8584"/>
<g filter="url(#filter4_bdiiiiii_288_2)">
<path d="M664.19 203.2C327.44 64.9392 81.7507 159.952 1 224.741V315.913C389.905 159.618 440.958 224.741 779.81 315.913C1050.89 388.851 1334.89 285.523 1443 224.741V97C1323.71 190.009 1000.94 341.461 664.19 203.2Z" fill="#7962F5"/>
</g>
<g filter="url(#filter5_di_288_2)">
<path d="M776 313.177C1046.8 385.977 1330.5 282.844 1438.5 222.177V313.177C1398.33 353.951 1265.5 438.7 1055.5 451.5C793 467.5 615 353 450.5 313.177C318.9 281.319 94 362.785 -2 407.5V313.177C386.5 157.177 437.5 222.177 776 313.177Z" fill="url(#paint2_linear_288_2)"/>
</g>
<g filter="url(#filter6_di_288_2)">
<path d="M1093.5 257.501C1059.5 221.501 1041.33 235.168 1038.5 244.501C1050.5 256.501 1081.5 279.501 1093.5 291.501C1122.3 298.301 1105.5 271.667 1093.5 257.501Z" fill="url(#paint3_linear_288_2)"/>
<path d="M1093.5 257.501C1059.5 221.501 1041.33 235.168 1038.5 244.501C1050.5 256.501 1081.5 279.501 1093.5 291.501C1122.3 298.301 1105.5 271.667 1093.5 257.501Z" stroke="#FF8584"/>
</g>
<g filter="url(#filter7_di_288_2)">
<path d="M1058 257.501C1037.6 235.901 1018.17 246.001 1013.5 252.501C1043.5 275.701 1054.83 288.168 1058 297.501C1063 298.168 1082.1 307.901 1088.5 303.501C1104 291.001 1083.5 284.501 1058 257.501Z" fill="url(#paint4_linear_288_2)"/>
<path d="M1058 257.501C1037.6 235.901 1018.17 246.001 1013.5 252.501C1043.5 275.701 1054.83 288.168 1058 297.501C1063 298.168 1082.1 307.901 1088.5 303.501C1104 291.001 1083.5 284.501 1058 257.501Z" stroke="#FF8584"/>
</g>
<g filter="url(#filter8_di_288_2)">
<path d="M1027 260.001C1002.6 235.601 982.833 245.501 978 254.501C1023.2 290.501 1024.17 305.168 1019 308.001C1020.33 311.168 1031.7 319.001 1050.5 317.001C1074 314.501 1057.5 290.501 1027 260.001Z" fill="url(#paint5_linear_288_2)"/>
<path d="M1027 260.001C1002.6 235.601 982.833 245.501 978 254.501C1023.2 290.501 1024.17 305.168 1019 308.001C1020.33 311.168 1031.7 319.001 1050.5 317.001C1074 314.501 1057.5 290.501 1027 260.001Z" stroke="#FF8584"/>
</g>
<g filter="url(#filter9_di_288_2)">
<path d="M991.5 261.115C971.9 244.315 953.333 249.333 948 258C960 263 982.5 319.614 1013.5 319.614C1049 315.614 1016 282.115 991.5 261.115Z" fill="url(#paint6_linear_288_2)"/>
<path d="M991.5 261.115C971.9 244.315 953.333 249.333 948 258C960 263 982.5 319.614 1013.5 319.614C1049 315.614 1016 282.115 991.5 261.115Z" stroke="#FF8584"/>
</g>
<g filter="url(#filter10_i_288_2)">
<path d="M1098 285.5C1087.6 270.7 1095.67 267.667 1101 268C1103.4 270 1107 277.5 1108.5 281C1106.9 280.6 1100.83 283.833 1098 285.5Z" fill="#F0CAC9"/>
</g>
<path d="M1098 285.5C1087.6 270.7 1095.67 267.667 1101 268C1103.4 270 1107 277.5 1108.5 281C1106.9 280.6 1100.83 283.833 1098 285.5Z" stroke="#FF8584"/>
<g filter="url(#filter11_i_288_2)">
<path d="M1081 299.5C1067.8 285.1 1077.5 281.833 1084 282C1089.2 286 1091.5 289.667 1092 291C1086 291 1082.17 296.667 1081 299.5Z" fill="#F0CAC9"/>
</g>
<path d="M1081 299.5C1067.8 285.1 1077.5 281.833 1084 282C1089.2 286 1091.5 289.667 1092 291C1086 291 1082.17 296.667 1081 299.5Z" stroke="#FF8584"/>
<g filter="url(#filter12_i_288_2)">
<path d="M1044 307C1032.8 287.8 1043 284.334 1049.5 285C1053.9 289.4 1058 297.5 1059.5 301C1053.5 300.2 1046.67 304.667 1044 307Z" fill="#F0CAC9"/>
</g>
<path d="M1044 307C1032.8 287.8 1043 284.334 1049.5 285C1053.9 289.4 1058 297.5 1059.5 301C1053.5 300.2 1046.67 304.667 1044 307Z" stroke="#FF8584"/>
<g filter="url(#filter13_i_288_2)">
<path d="M1011 311.499C995.8 292.299 1007.67 284.832 1015.5 283.999C1023.5 292.799 1027.5 301.666 1028.5 304.499C1020.9 304.499 1013.67 309.166 1011 311.499Z" fill="#F0CAC9"/>
</g>
<path d="M1011 311.499C995.8 292.299 1007.67 284.832 1015.5 283.999C1023.5 292.799 1027.5 301.666 1028.5 304.499C1020.9 304.499 1013.67 309.166 1011 311.499Z" stroke="#FF8584"/>
<g filter="url(#filter14_di_288_2)">
<path d="M567.902 199.501C601.902 163.501 620.069 177.168 622.902 186.501C610.902 198.501 579.902 221.501 567.902 233.501C539.102 240.301 555.902 213.667 567.902 199.501Z" fill="url(#paint7_linear_288_2)"/>
<path d="M567.902 199.501C601.902 163.501 620.069 177.168 622.902 186.501C610.902 198.501 579.902 221.501 567.902 233.501C539.102 240.301 555.902 213.667 567.902 199.501Z" stroke="#FF8584"/>
</g>
<g filter="url(#filter15_di_288_2)">
<path d="M603.402 199.501C623.802 177.901 643.235 188.001 647.902 194.501C617.902 217.701 606.569 230.168 603.402 239.501C598.402 240.168 579.302 249.901 572.902 245.501C557.402 233.001 577.902 226.501 603.402 199.501Z" fill="url(#paint8_linear_288_2)"/>
<path d="M603.402 199.501C623.802 177.901 643.235 188.001 647.902 194.501C617.902 217.701 606.569 230.168 603.402 239.501C598.402 240.168 579.302 249.901 572.902 245.501C557.402 233.001 577.902 226.501 603.402 199.501Z" stroke="#FF8584"/>
</g>
<g filter="url(#filter16_di_288_2)">
<path d="M634.402 202.001C658.802 177.601 678.569 187.501 683.402 196.501C638.202 232.501 637.235 247.168 642.402 250.001C641.069 253.168 629.702 261.001 610.902 259.001C587.402 256.501 603.902 232.501 634.402 202.001Z" fill="url(#paint9_linear_288_2)"/>
<path d="M634.402 202.001C658.802 177.601 678.569 187.501 683.402 196.501C638.202 232.501 637.235 247.168 642.402 250.001C641.069 253.168 629.702 261.001 610.902 259.001C587.402 256.501 603.902 232.501 634.402 202.001Z" stroke="#FF8584"/>
</g>
<g filter="url(#filter17_di_288_2)">
<path d="M669.902 203.115C689.502 186.315 698.167 208.833 703.5 217.5C691.5 222.5 676.5 250.5 647.902 261.614C612.402 257.614 645.402 224.115 669.902 203.115Z" fill="url(#paint10_linear_288_2)"/>
<path d="M669.902 203.115C689.502 186.315 698.167 208.833 703.5 217.5C691.5 222.5 676.5 250.5 647.902 261.614C612.402 257.614 645.402 224.115 669.902 203.115Z" stroke="#FF8584"/>
</g>
<g filter="url(#filter18_i_288_2)">
<path d="M563.402 227.5C573.802 212.7 565.735 209.667 560.402 210C558.002 212 554.402 219.5 552.902 223C554.502 222.6 560.568 225.833 563.402 227.5Z" fill="#F0CAC9"/>
</g>
<path d="M563.402 227.5C573.802 212.7 565.735 209.667 560.402 210C558.002 212 554.402 219.5 552.902 223C554.502 222.6 560.568 225.833 563.402 227.5Z" stroke="#FF8584"/>
<g filter="url(#filter19_i_288_2)">
<path d="M580.402 241.5C593.602 227.1 583.902 223.833 577.402 224C572.202 228 569.902 231.667 569.402 233C575.402 233 579.235 238.667 580.402 241.5Z" fill="#F0CAC9"/>
</g>
<path d="M580.402 241.5C593.602 227.1 583.902 223.833 577.402 224C572.202 228 569.902 231.667 569.402 233C575.402 233 579.235 238.667 580.402 241.5Z" stroke="#FF8584"/>
<g filter="url(#filter20_i_288_2)">
<path d="M617.402 249C628.602 229.8 618.402 226.334 611.902 227C607.502 231.4 603.402 239.5 601.902 243C607.902 242.2 614.735 246.667 617.402 249Z" fill="#F0CAC9"/>
</g>
<path d="M617.402 249C628.602 229.8 618.402 226.334 611.902 227C607.502 231.4 603.402 239.5 601.902 243C607.902 242.2 614.735 246.667 617.402 249Z" stroke="#FF8584"/>
<g filter="url(#filter21_i_288_2)">
<path d="M650.402 253.499C665.602 234.299 653.735 226.832 645.902 225.999C637.902 234.799 633.902 243.666 632.902 246.499C640.502 246.499 647.735 251.166 650.402 253.499Z" fill="#F0CAC9"/>
</g>
<path d="M650.402 253.499C665.602 234.299 653.735 226.832 645.902 225.999C637.902 234.799 633.902 243.666 632.902 246.499C640.502 246.499 647.735 251.166 650.402 253.499Z" stroke="#FF8584"/>
<defs>
<filter id="filter0_di_288_2" x="666.066" y="76.4619" width="351.301" height="227.556" filterUnits="userSpaceOnUse" color-interpolation-filters="sRGB">
<feFlood flood-opacity="0" result="BackgroundImageFix"/>
<feColorMatrix in="SourceAlpha" type="matrix" values="0 0 0 0 0 0 0 0 0 0 0 0 0 0 0 0 0 0 127 0" result="hardAlpha"/>
<feOffset dy="4"/>
<feGaussianBlur stdDeviation="2"/>
<feComposite in2="hardAlpha" operator="out"/>
<feColorMatrix type="matrix" values="0 0 0 0 0 0 0 0 0 0 0 0 0 0 0 0 0 0 0.25 0"/>
<feBlend mode="normal" in2="BackgroundImageFix" result="effect1_dropShadow_288_2"/>
<feBlend mode="normal" in="SourceGraphic" in2="effect1_dropShadow_288_2" result="shape"/>
<feColorMatrix in="SourceAlpha" type="matrix" values="0 0 0 0 0 0 0 0 0 0 0 0 0 0 0 0 0 0 127 0" result="hardAlpha"/>
<feOffset dy="10"/>
<feGaussianBlur stdDeviation="2"/>
<feComposite in2="hardAlpha" operator="arithmetic" k2="-1" k3="1"/>
<feColorMatrix type="matrix" values="0 0 0 0 1 0 0 0 0 0.521569 0 0 0 0 0.517647 0 0 0 1 0"/>
<feBlend mode="normal" in2="shape" result="effect2_innerShadow_288_2"/>
</filter>
<filter id="filter1_i_288_2" x="833.312" y="134.711" width="58.0986" height="83.9326" filterUnits="userSpaceOnUse" color-interpolation-filters="sRGB">
<feFlood flood-opacity="0" result="BackgroundImageFix"/>
<feBlend mode="normal" in="SourceGraphic" in2="BackgroundImageFix" result="shape"/>
<feColorMatrix in="SourceAlpha" type="matrix" values="0 0 0 0 0 0 0 0 0 0 0 0 0 0 0 0 0 0 127 0" result="hardAlpha"/>
<feOffset dy="10"/>
<feGaussianBlur stdDeviation="2"/>
<feComposite in2="hardAlpha" operator="arithmetic" k2="-1" k3="1"/>
<feColorMatrix type="matrix" values="0 0 0 0 0.890196 0 0 0 0 0.839216 0 0 0 0 0.839216 0 0 0 1 0"/>
<feBlend mode="normal" in2="shape" result="effect1_innerShadow_288_2"/>
</filter>
<filter id="filter2_i_288_2" x="775.312" y="134.711" width="58.0986" height="83.9326" filterUnits="userSpaceOnUse" color-interpolation-filters="sRGB">
<feFlood flood-opacity="0" result="BackgroundImageFix"/>
<feBlend mode="normal" in="SourceGraphic" in2="BackgroundImageFix" result="shape"/>
<feColorMatrix in="SourceAlpha" type="matrix" values="0 0 0 0 0 0 0 0 0 0 0 0 0 0 0 0 0 0 127 0" result="hardAlpha"/>
<feOffset dy="10"/>
<feGaussianBlur stdDeviation="2"/>
<feComposite in2="hardAlpha" operator="arithmetic" k2="-1" k3="1"/>
<feColorMatrix type="matrix" values="0 0 0 0 0.890196 0 0 0 0 0.839216 0 0 0 0 0.839216 0 0 0 1 0"/>
<feBlend mode="normal" in2="shape" result="effect1_innerShadow_288_2"/>
</filter>
<filter id="filter3_i_288_2" x="794" y="187" width="82.3066" height="81" filterUnits="userSpaceOnUse" color-interpolation-filters="sRGB">
<feFlood flood-opacity="0" result="BackgroundImageFix"/>
<feBlend mode="normal" in="SourceGraphic" in2="BackgroundImageFix" result="shape"/>
<feColorMatrix in="SourceAlpha" type="matrix" values="0 0 0 0 0 0 0 0 0 0 0 0 0 0 0 0 0 0 127 0" result="hardAlpha"/>
<feOffset dy="4"/>
<feGaussianBlur stdDeviation="2"/>
<feComposite in2="hardAlpha" operator="arithmetic" k2="-1" k3="1"/>
<feColorMatrix type="matrix" values="0 0 0 0 1 0 0 0 0 0.521569 0 0 0 0 0.517647 0 0 0 1 0"/>
<feBlend mode="normal" in2="shape" result="effect1_innerShadow_288_2"/>
</filter>
<filter id="filter4_bdiiiiii_288_2" x="-99" y="-3" width="1642" height="444" filterUnits="userSpaceOnUse" color-interpolation-filters="sRGB">
<feFlood flood-opacity="0" result="BackgroundImageFix"/>
<feGaussianBlur in="BackgroundImage" stdDeviation="50"/>
<feComposite in2="SourceAlpha" operator="in" result="effect1_backgroundBlur_288_2"/>
<feColorMatrix in="SourceAlpha" type="matrix" values="0 0 0 0 0 0 0 0 0 0 0 0 0 0 0 0 0 0 127 0" result="hardAlpha"/>
<feOffset dy="10"/>
<feGaussianBlur stdDeviation="2"/>
<feComposite in2="hardAlpha" operator="out"/>
<feColorMatrix type="matrix" values="0 0 0 0 0 0 0 0 0 0 0 0 0 0 0 0 0 0 0.5 0"/>
<feBlend mode="normal" in2="effect1_backgroundBlur_288_2" result="effect2_dropShadow_288_2"/>
<feBlend mode="normal" in="SourceGraphic" in2="effect2_dropShadow_288_2" result="shape"/>
<feColorMatrix in="SourceAlpha" type="matrix" values="0 0 0 0 0 0 0 0 0 0 0 0 0 0 0 0 0 0 127 0" result="hardAlpha"/>
<feOffset dy="1"/>
<feGaussianBlur stdDeviation="2"/>
<feComposite in2="hardAlpha" operator="arithmetic" k2="-1" k3="1"/>
<feColorMatrix type="matrix" values="0 0 0 0 0.933333 0 0 0 0 0.2 0 0 0 0 0.866667 0 0 0 0.2 0"/>
<feBlend mode="normal" in2="shape" result="effect3_innerShadow_288_2"/>
<feColorMatrix in="SourceAlpha" type="matrix" values="0 0 0 0 0 0 0 0 0 0 0 0 0 0 0 0 0 0 127 0" result="hardAlpha"/>
<feOffset dy="4"/>
<feGaussianBlur stdDeviation="9"/>
<feComposite in2="hardAlpha" operator="arithmetic" k2="-1" k3="1"/>
<feColorMatrix type="matrix" values="0 0 0 0 0.603922 0 0 0 0 0.572549 0 0 0 0 0.823529 0 0 0 0.3 0"/>
<feBlend mode="normal" in2="effect3_innerShadow_288_2" result="effect4_innerShadow_288_2"/>
<feColorMatrix in="SourceAlpha" type="matrix" values="0 0 0 0 0 0 0 0 0 0 0 0 0 0 0 0 0 0 127 0" result="hardAlpha"/>
<feMorphology radius="48" operator="dilate" in="SourceAlpha" result="effect5_innerShadow_288_2"/>
<feOffset dy="98"/>
<feGaussianBlur stdDeviation="50"/>
<feComposite in2="hardAlpha" operator="arithmetic" k2="-1" k3="1"/>
<feColorMatrix type="matrix" values="0 0 0 0 0.792157 0 0 0 0 0.67451 0 0 0 0 1 0 0 0 0.3 0"/>
<feBlend mode="normal" in2="effect4_innerShadow_288_2" result="effect5_innerShadow_288_2"/>
<feColorMatrix in="SourceAlpha" type="matrix" values="0 0 0 0 0 0 0 0 0 0 0 0 0 0 0 0 0 0 127 0" result="hardAlpha"/>
<feMorphology radius="84" operator="dilate" in="SourceAlpha" result="effect6_innerShadow_288_2"/>
<feOffset dy="-82"/>
<feGaussianBlur stdDeviation="34"/>
<feComposite in2="hardAlpha" operator="arithmetic" k2="-1" k3="1"/>
<feColorMatrix type="matrix" values="0 0 0 0 0.376471 0 0 0 0 0.266667 0 0 0 0 0.564706 0 0 0 0.3 0"/>
<feBlend mode="normal" in2="effect5_innerShadow_288_2" result="effect6_innerShadow_288_2"/>
<feColorMatrix in="SourceAlpha" type="matrix" values="0 0 0 0 0 0 0 0 0 0 0 0 0 0 0 0 0 0 127 0" result="hardAlpha"/>
<feMorphology radius="4" operator="dilate" in="SourceAlpha" result="effect7_innerShadow_288_2"/>
<feOffset dy="7"/>
<feGaussianBlur stdDeviation="5.5"/>
<feComposite in2="hardAlpha" operator="arithmetic" k2="-1" k3="1"/>
<feColorMatrix type="matrix" values="0 0 0 0 1 0 0 0 0 1 0 0 0 0 1 0 0 0 1 0"/>
<feBlend mode="normal" in2="effect6_innerShadow_288_2" result="effect7_innerShadow_288_2"/>
<feColorMatrix in="SourceAlpha" type="matrix" values="0 0 0 0 0 0 0 0 0 0 0 0 0 0 0 0 0 0 127 0" result="hardAlpha"/>
<feMorphology radius="36" operator="dilate" in="SourceAlpha" result="effect8_innerShadow_288_2"/>
<feOffset dy="39"/>
<feGaussianBlur stdDeviation="29"/>
<feComposite in2="hardAlpha" operator="arithmetic" k2="-1" k3="1"/>
<feColorMatrix type="matrix" values="0 0 0 0 1 0 0 0 0 1 0 0 0 0 1 0 0 0 0.5 0"/>
<feBlend mode="normal" in2="effect7_innerShadow_288_2" result="effect8_innerShadow_288_2"/>
</filter>
<filter id="filter5_di_288_2" x="-6" y="219" width="1448.5" height="242.022" filterUnits="userSpaceOnUse" color-interpolation-filters="sRGB">
<feFlood flood-opacity="0" result="BackgroundImageFix"/>
<feColorMatrix in="SourceAlpha" type="matrix" values="0 0 0 0 0 0 0 0 0 0 0 0 0 0 0 0 0 0 127 0" result="hardAlpha"/>
<feOffset dy="4"/>
<feGaussianBlur stdDeviation="2"/>
<feComposite in2="hardAlpha" operator="out"/>
<feColorMatrix type="matrix" values="0 0 0 0 0 0 0 0 0 0 0 0 0 0 0 0 0 0 0.25 0"/>
<feBlend mode="normal" in2="BackgroundImageFix" result="effect1_dropShadow_288_2"/>
<feBlend mode="normal" in="SourceGraphic" in2="effect1_dropShadow_288_2" result="shape"/>
<feColorMatrix in="SourceAlpha" type="matrix" values="0 0 0 0 0 0 0 0 0 0 0 0 0 0 0 0 0 0 127 0" result="hardAlpha"/>
<feOffset dy="10"/>
<feGaussianBlur stdDeviation="2"/>
<feComposite in2="hardAlpha" operator="arithmetic" k2="-1" k3="1"/>
<feColorMatrix type="matrix" values="0 0 0 0 0 0 0 0 0 0 0 0 0 0 0 0 0 0 0.25 0"/>
<feBlend mode="normal" in2="shape" result="effect2_innerShadow_288_2"/>
</filter>
<filter id="filter6_di_288_2" x="1033.93" y="233.5" width="79.9666" height="67.5923" filterUnits="userSpaceOnUse" color-interpolation-filters="sRGB">
<feFlood flood-opacity="0" result="BackgroundImageFix"/>
<feColorMatrix in="SourceAlpha" type="matrix" values="0 0 0 0 0 0 0 0 0 0 0 0 0 0 0 0 0 0 127 0" result="hardAlpha"/>
<feOffset dy="4"/>
<feGaussianBlur stdDeviation="2"/>
<feComposite in2="hardAlpha" operator="out"/>
<feColorMatrix type="matrix" values="0 0 0 0 0 0 0 0 0 0 0 0 0 0 0 0 0 0 0.25 0"/>
<feBlend mode="normal" in2="BackgroundImageFix" result="effect1_dropShadow_288_2"/>
<feBlend mode="normal" in="SourceGraphic" in2="effect1_dropShadow_288_2" result="shape"/>
<feColorMatrix in="SourceAlpha" type="matrix" values="0 0 0 0 0 0 0 0 0 0 0 0 0 0 0 0 0 0 127 0" result="hardAlpha"/>
<feOffset dy="4"/>
<feGaussianBlur stdDeviation="2"/>
<feComposite in2="hardAlpha" operator="arithmetic" k2="-1" k3="1"/>
<feColorMatrix type="matrix" values="0 0 0 0 1 0 0 0 0 0.521569 0 0 0 0 0.517647 0 0 0 1 0"/>
<feBlend mode="normal" in2="shape" result="effect2_innerShadow_288_2"/>
</filter>
<filter id="filter7_di_288_2" x="1008.81" y="243.88" width="89.5552" height="69.2593" filterUnits="userSpaceOnUse" color-interpolation-filters="sRGB">
<feFlood flood-opacity="0" result="BackgroundImageFix"/>
<feColorMatrix in="SourceAlpha" type="matrix" values="0 0 0 0 0 0 0 0 0 0 0 0 0 0 0 0 0 0 127 0" result="hardAlpha"/>
<feOffset dy="4"/>
<feGaussianBlur stdDeviation="2"/>
<feComposite in2="hardAlpha" operator="out"/>
<feColorMatrix type="matrix" values="0 0 0 0 0 0 0 0 0 0 0 0 0 0 0 0 0 0 0.25 0"/>
<feBlend mode="normal" in2="BackgroundImageFix" result="effect1_dropShadow_288_2"/>
<feBlend mode="normal" in="SourceGraphic" in2="effect1_dropShadow_288_2" result="shape"/>
<feColorMatrix in="SourceAlpha" type="matrix" values="0 0 0 0 0 0 0 0 0 0 0 0 0 0 0 0 0 0 127 0" result="hardAlpha"/>
<feOffset dy="4"/>
<feGaussianBlur stdDeviation="2"/>
<feComposite in2="hardAlpha" operator="arithmetic" k2="-1" k3="1"/>
<feColorMatrix type="matrix" values="0 0 0 0 1 0 0 0 0 0.521569 0 0 0 0 0.517647 0 0 0 1 0"/>
<feBlend mode="normal" in2="shape" result="effect2_innerShadow_288_2"/>
</filter>
<filter id="filter8_di_288_2" x="973.362" y="244.173" width="92.7695" height="81.6509" filterUnits="userSpaceOnUse" color-interpolation-filters="sRGB">
<feFlood flood-opacity="0" result="BackgroundImageFix"/>
<feColorMatrix in="SourceAlpha" type="matrix" values="0 0 0 0 0 0 0 0 0 0 0 0 0 0 0 0 0 0 127 0" result="hardAlpha"/>
<feOffset dy="4"/>
<feGaussianBlur stdDeviation="2"/>
<feComposite in2="hardAlpha" operator="out"/>
<feColorMatrix type="matrix" values="0 0 0 0 0 0 0 0 0 0 0 0 0 0 0 0 0 0 0.25 0"/>
<feBlend mode="normal" in2="BackgroundImageFix" result="effect1_dropShadow_288_2"/>
<feBlend mode="normal" in="SourceGraphic" in2="effect1_dropShadow_288_2" result="shape"/>
<feColorMatrix in="SourceAlpha" type="matrix" values="0 0 0 0 0 0 0 0 0 0 0 0 0 0 0 0 0 0 127 0" result="hardAlpha"/>
<feOffset dy="4"/>
<feGaussianBlur stdDeviation="2"/>
<feComposite in2="hardAlpha" operator="arithmetic" k2="-1" k3="1"/>
<feColorMatrix type="matrix" values="0 0 0 0 1 0 0 0 0 0.521569 0 0 0 0 0.517647 0 0 0 1 0"/>
<feBlend mode="normal" in2="shape" result="effect2_innerShadow_288_2"/>
</filter>
<filter id="filter9_di_288_2" x="943.267" y="249.495" width="90.2964" height="78.6196" filterUnits="userSpaceOnUse" color-interpolation-filters="sRGB">
<feFlood flood-opacity="0" result="BackgroundImageFix"/>
<feColorMatrix in="SourceAlpha" type="matrix" values="0 0 0 0 0 0 0 0 0 0 0 0 0 0 0 0 0 0 127 0" result="hardAlpha"/>
<feOffset dy="4"/>
<feGaussianBlur stdDeviation="2"/>
<feComposite in2="hardAlpha" operator="out"/>
<feColorMatrix type="matrix" values="0 0 0 0 0 0 0 0 0 0 0 0 0 0 0 0 0 0 0.25 0"/>
<feBlend mode="normal" in2="BackgroundImageFix" result="effect1_dropShadow_288_2"/>
<feBlend mode="normal" in="SourceGraphic" in2="effect1_dropShadow_288_2" result="shape"/>
<feColorMatrix in="SourceAlpha" type="matrix" values="0 0 0 0 0 0 0 0 0 0 0 0 0 0 0 0 0 0 127 0" result="hardAlpha"/>
<feOffset dy="4"/>
<feGaussianBlur stdDeviation="2"/>
<feComposite in2="hardAlpha" operator="arithmetic" k2="-1" k3="1"/>
<feColorMatrix type="matrix" values="0 0 0 0 1 0 0 0 0 0.521569 0 0 0 0 0.517647 0 0 0 1 0"/>
<feBlend mode="normal" in2="shape" result="effect2_innerShadow_288_2"/>
</filter>
<filter id="filter10_i_288_2" x="1092.46" y="267.476" width="16.8994" height="22.6885" filterUnits="userSpaceOnUse" color-interpolation-filters="sRGB">
<feFlood flood-opacity="0" result="BackgroundImageFix"/>
<feBlend mode="normal" in="SourceGraphic" in2="BackgroundImageFix" result="shape"/>
<feColorMatrix in="SourceAlpha" type="matrix" values="0 0 0 0 0 0 0 0 0 0 0 0 0 0 0 0 0 0 127 0" result="hardAlpha"/>
<feOffset dy="4"/>
<feGaussianBlur stdDeviation="2"/>
<feComposite in2="hardAlpha" operator="arithmetic" k2="-1" k3="1"/>
<feColorMatrix type="matrix" values="0 0 0 0 0 0 0 0 0 0 0 0 0 0 0 0 0 0 0.25 0"/>
<feBlend mode="normal" in2="shape" result="effect1_innerShadow_288_2"/>
</filter>
<filter id="filter11_i_288_2" x="1073.93" y="281.494" width="18.7922" height="22.9238" filterUnits="userSpaceOnUse" color-interpolation-filters="sRGB">
<feFlood flood-opacity="0" result="BackgroundImageFix"/>
<feBlend mode="normal" in="SourceGraphic" in2="BackgroundImageFix" result="shape"/>
<feColorMatrix in="SourceAlpha" type="matrix" values="0 0 0 0 0 0 0 0 0 0 0 0 0 0 0 0 0 0 127 0" result="hardAlpha"/>
<feOffset dy="4"/>
<feGaussianBlur stdDeviation="2"/>
<feComposite in2="hardAlpha" operator="arithmetic" k2="-1" k3="1"/>
<feColorMatrix type="matrix" values="0 0 0 0 0 0 0 0 0 0 0 0 0 0 0 0 0 0 0.25 0"/>
<feBlend mode="normal" in2="shape" result="effect1_innerShadow_288_2"/>
</filter>
<filter id="filter12_i_288_2" x="1038.5" y="284.425" width="21.8076" height="27.3501" filterUnits="userSpaceOnUse" color-interpolation-filters="sRGB">
<feFlood flood-opacity="0" result="BackgroundImageFix"/>
<feBlend mode="normal" in="SourceGraphic" in2="BackgroundImageFix" result="shape"/>
<feColorMatrix in="SourceAlpha" type="matrix" values="0 0 0 0 0 0 0 0 0 0 0 0 0 0 0 0 0 0 127 0" result="hardAlpha"/>
<feOffset dy="4"/>
<feGaussianBlur stdDeviation="2"/>
<feComposite in2="hardAlpha" operator="arithmetic" k2="-1" k3="1"/>
<feColorMatrix type="matrix" values="0 0 0 0 0 0 0 0 0 0 0 0 0 0 0 0 0 0 0.25 0"/>
<feBlend mode="normal" in2="shape" result="effect1_innerShadow_288_2"/>
</filter>
<filter id="filter13_i_288_2" x="1003.15" y="283.475" width="26.0547" height="32.7461" filterUnits="userSpaceOnUse" color-interpolation-filters="sRGB">
<feFlood flood-opacity="0" result="BackgroundImageFix"/>
<feBlend mode="normal" in="SourceGraphic" in2="BackgroundImageFix" result="shape"/>
<feColorMatrix in="SourceAlpha" type="matrix" values="0 0 0 0 0 0 0 0 0 0 0 0 0 0 0 0 0 0 127 0" result="hardAlpha"/>
<feOffset dy="4"/>
<feGaussianBlur stdDeviation="2"/>
<feComposite in2="hardAlpha" operator="arithmetic" k2="-1" k3="1"/>
<feColorMatrix type="matrix" values="0 0 0 0 0 0 0 0 0 0 0 0 0 0 0 0 0 0 0.25 0"/>
<feBlend mode="normal" in2="shape" result="effect1_innerShadow_288_2"/>
</filter>
<filter id="filter14_di_288_2" x="547.501" y="175.5" width="79.9666" height="67.5923" filterUnits="userSpaceOnUse" color-interpolation-filters="sRGB">
<feFlood flood-opacity="0" result="BackgroundImageFix"/>
<feColorMatrix in="SourceAlpha" type="matrix" values="0 0 0 0 0 0 0 0 0 0 0 0 0 0 0 0 0 0 127 0" result="hardAlpha"/>
<feOffset dy="4"/>
<feGaussianBlur stdDeviation="2"/>
<feComposite in2="hardAlpha" operator="out"/>
<feColorMatrix type="matrix" values="0 0 0 0 0 0 0 0 0 0 0 0 0 0 0 0 0 0 0.25 0"/>
<feBlend mode="normal" in2="BackgroundImageFix" result="effect1_dropShadow_288_2"/>
<feBlend mode="normal" in="SourceGraphic" in2="effect1_dropShadow_288_2" result="shape"/>
<feColorMatrix in="SourceAlpha" type="matrix" values="0 0 0 0 0 0 0 0 0 0 0 0 0 0 0 0 0 0 127 0" result="hardAlpha"/>
<feOffset dy="4"/>
<feGaussianBlur stdDeviation="2"/>
<feComposite in2="hardAlpha" operator="arithmetic" k2="-1" k3="1"/>
<feColorMatrix type="matrix" values="0 0 0 0 1 0 0 0 0 0.521569 0 0 0 0 0.517647 0 0 0 1 0"/>
<feBlend mode="normal" in2="shape" result="effect2_innerShadow_288_2"/>
</filter>
<filter id="filter15_di_288_2" x="563.034" y="185.88" width="89.5552" height="69.2593" filterUnits="userSpaceOnUse" color-interpolation-filters="sRGB">
<feFlood flood-opacity="0" result="BackgroundImageFix"/>
<feColorMatrix in="SourceAlpha" type="matrix" values="0 0 0 0 0 0 0 0 0 0 0 0 0 0 0 0 0 0 127 0" result="hardAlpha"/>
<feOffset dy="4"/>
<feGaussianBlur stdDeviation="2"/>
<feComposite in2="hardAlpha" operator="out"/>
<feColorMatrix type="matrix" values="0 0 0 0 0 0 0 0 0 0 0 0 0 0 0 0 0 0 0.25 0"/>
<feBlend mode="normal" in2="BackgroundImageFix" result="effect1_dropShadow_288_2"/>
<feBlend mode="normal" in="SourceGraphic" in2="effect1_dropShadow_288_2" result="shape"/>
<feColorMatrix in="SourceAlpha" type="matrix" values="0 0 0 0 0 0 0 0 0 0 0 0 0 0 0 0 0 0 127 0" result="hardAlpha"/>
<feOffset dy="4"/>
<feGaussianBlur stdDeviation="2"/>
<feComposite in2="hardAlpha" operator="arithmetic" k2="-1" k3="1"/>
<feColorMatrix type="matrix" values="0 0 0 0 1 0 0 0 0 0.521569 0 0 0 0 0.517647 0 0 0 1 0"/>
<feBlend mode="normal" in2="shape" result="effect2_innerShadow_288_2"/>
</filter>
<filter id="filter16_di_288_2" x="595.27" y="186.173" width="92.7695" height="81.6509" filterUnits="userSpaceOnUse" color-interpolation-filters="sRGB">
<feFlood flood-opacity="0" result="BackgroundImageFix"/>
<feColorMatrix in="SourceAlpha" type="matrix" values="0 0 0 0 0 0 0 0 0 0 0 0 0 0 0 0 0 0 127 0" result="hardAlpha"/>
<feOffset dy="4"/>
<feGaussianBlur stdDeviation="2"/>
<feComposite in2="hardAlpha" operator="out"/>
<feColorMatrix type="matrix" values="0 0 0 0 0 0 0 0 0 0 0 0 0 0 0 0 0 0 0.25 0"/>
<feBlend mode="normal" in2="BackgroundImageFix" result="effect1_dropShadow_288_2"/>
<feBlend mode="normal" in="SourceGraphic" in2="effect1_dropShadow_288_2" result="shape"/>
<feColorMatrix in="SourceAlpha" type="matrix" values="0 0 0 0 0 0 0 0 0 0 0 0 0 0 0 0 0 0 127 0" result="hardAlpha"/>
<feOffset dy="4"/>
<feGaussianBlur stdDeviation="2"/>
<feComposite in2="hardAlpha" operator="arithmetic" k2="-1" k3="1"/>
<feColorMatrix type="matrix" values="0 0 0 0 1 0 0 0 0 0.521569 0 0 0 0 0.517647 0 0 0 1 0"/>
<feBlend mode="normal" in2="shape" result="effect2_innerShadow_288_2"/>
</filter>
<filter id="filter17_di_288_2" x="627.838" y="196.55" width="80.3945" height="73.5752" filterUnits="userSpaceOnUse" color-interpolation-filters="sRGB">
<feFlood flood-opacity="0" result="BackgroundImageFix"/>
<feColorMatrix in="SourceAlpha" type="matrix" values="0 0 0 0 0 0 0 0 0 0 0 0 0 0 0 0 0 0 127 0" result="hardAlpha"/>
<feOffset dy="4"/>
<feGaussianBlur stdDeviation="2"/>
<feComposite in2="hardAlpha" operator="out"/>
<feColorMatrix type="matrix" values="0 0 0 0 0 0 0 0 0 0 0 0 0 0 0 0 0 0 0.25 0"/>
<feBlend mode="normal" in2="BackgroundImageFix" result="effect1_dropShadow_288_2"/>
<feBlend mode="normal" in="SourceGraphic" in2="effect1_dropShadow_288_2" result="shape"/>
<feColorMatrix in="SourceAlpha" type="matrix" values="0 0 0 0 0 0 0 0 0 0 0 0 0 0 0 0 0 0 127 0" result="hardAlpha"/>
<feOffset dy="4"/>
<feGaussianBlur stdDeviation="2"/>
<feComposite in2="hardAlpha" operator="arithmetic" k2="-1" k3="1"/>
<feColorMatrix type="matrix" values="0 0 0 0 1 0 0 0 0 0.521569 0 0 0 0 0.517647 0 0 0 1 0"/>
<feBlend mode="normal" in2="shape" result="effect2_innerShadow_288_2"/>
</filter>
<filter id="filter18_i_288_2" x="552.045" y="209.476" width="16.8994" height="22.6885" filterUnits="userSpaceOnUse" color-interpolation-filters="sRGB">
<feFlood flood-opacity="0" result="BackgroundImageFix"/>
<feBlend mode="normal" in="SourceGraphic" in2="BackgroundImageFix" result="shape"/>
<feColorMatrix in="SourceAlpha" type="matrix" values="0 0 0 0 0 0 0 0 0 0 0 0 0 0 0 0 0 0 127 0" result="hardAlpha"/>
<feOffset dy="4"/>
<feGaussianBlur stdDeviation="2"/>
<feComposite in2="hardAlpha" operator="arithmetic" k2="-1" k3="1"/>
<feColorMatrix type="matrix" values="0 0 0 0 0 0 0 0 0 0 0 0 0 0 0 0 0 0 0.25 0"/>
<feBlend mode="normal" in2="shape" result="effect1_innerShadow_288_2"/>
</filter>
<filter id="filter19_i_288_2" x="568.68" y="223.494" width="18.7922" height="22.9238" filterUnits="userSpaceOnUse" color-interpolation-filters="sRGB">
<feFlood flood-opacity="0" result="BackgroundImageFix"/>
<feBlend mode="normal" in="SourceGraphic" in2="BackgroundImageFix" result="shape"/>
<feColorMatrix in="SourceAlpha" type="matrix" values="0 0 0 0 0 0 0 0 0 0 0 0 0 0 0 0 0 0 127 0" result="hardAlpha"/>
<feOffset dy="4"/>
<feGaussianBlur stdDeviation="2"/>
<feComposite in2="hardAlpha" operator="arithmetic" k2="-1" k3="1"/>
<feColorMatrix type="matrix" values="0 0 0 0 0 0 0 0 0 0 0 0 0 0 0 0 0 0 0.25 0"/>
<feBlend mode="normal" in2="shape" result="effect1_innerShadow_288_2"/>
</filter>
<filter id="filter20_i_288_2" x="601.096" y="226.425" width="21.8076" height="27.3501" filterUnits="userSpaceOnUse" color-interpolation-filters="sRGB">
<feFlood flood-opacity="0" result="BackgroundImageFix"/>
<feBlend mode="normal" in="SourceGraphic" in2="BackgroundImageFix" result="shape"/>
<feColorMatrix in="SourceAlpha" type="matrix" values="0 0 0 0 0 0 0 0 0 0 0 0 0 0 0 0 0 0 127 0" result="hardAlpha"/>
<feOffset dy="4"/>
<feGaussianBlur stdDeviation="2"/>
<feComposite in2="hardAlpha" operator="arithmetic" k2="-1" k3="1"/>
<feColorMatrix type="matrix" values="0 0 0 0 0 0 0 0 0 0 0 0 0 0 0 0 0 0 0.25 0"/>
<feBlend mode="normal" in2="shape" result="effect1_innerShadow_288_2"/>
</filter>
<filter id="filter21_i_288_2" x="632.195" y="225.475" width="26.0547" height="32.7461" filterUnits="userSpaceOnUse" color-interpolation-filters="sRGB">
<feFlood flood-opacity="0" result="BackgroundImageFix"/>
<feBlend mode="normal" in="SourceGraphic" in2="BackgroundImageFix" result="shape"/>
<feColorMatrix in="SourceAlpha" type="matrix" values="0 0 0 0 0 0 0 0 0 0 0 0 0 0 0 0 0 0 127 0" result="hardAlpha"/>
<feOffset dy="4"/>
<feGaussianBlur stdDeviation="2"/>
<feComposite in2="hardAlpha" operator="arithmetic" k2="-1" k3="1"/>
<feColorMatrix type="matrix" values="0 0 0 0 0 0 0 0 0 0 0 0 0 0 0 0 0 0 0.25 0"/>
<feBlend mode="normal" in2="shape" result="effect1_innerShadow_288_2"/>
</filter>
<linearGradient id="paint0_linear_288_2" x1="862.354" y1="0.822266" x2="862.354" y2="265" gradientUnits="userSpaceOnUse">
<stop stop-color="#664D4D"/>
<stop offset="1"/>
</linearGradient>
<linearGradient id="paint1_linear_288_2" x1="841.717" y1="77" x2="841.717" y2="295.5" gradientUnits="userSpaceOnUse">
<stop stop-color="#FEB1B0"/>
<stop offset="1" stop-color="#FF8281"/>
</linearGradient>
<linearGradient id="paint2_linear_288_2" x1="718.25" y1="219" x2="718.25" y2="439.005" gradientUnits="userSpaceOnUse">
<stop offset="0.175308" stop-color="#442565"/>
<stop offset="1" stop-color="#544098"/>
</linearGradient>
<linearGradient id="paint3_linear_288_2" x1="1022.06" y1="240.761" x2="1068.72" y2="296.938" gradientUnits="userSpaceOnUse">
<stop offset="0.0811198" stop-color="#FEB1B0"/>
<stop offset="1" stop-color="#FF8D8B"/>
</linearGradient>
<linearGradient id="paint4_linear_288_2" x1="994.865" y1="251.333" x2="1041.79" y2="313.602" gradientUnits="userSpaceOnUse">
<stop offset="0.0811198" stop-color="#FEB1B0"/>
<stop offset="1" stop-color="#FF8D8B"/>
</linearGradient>
<linearGradient id="paint5_linear_288_2" x1="958.609" y1="253.056" x2="1016.92" y2="319.848" gradientUnits="userSpaceOnUse">
<stop offset="0.0811198" stop-color="#FEB1B0"/>
<stop offset="1" stop-color="#FF8D8B"/>
</linearGradient>
<linearGradient id="paint6_linear_288_2" x1="929.204" y1="258.028" x2="984.997" y2="322.665" gradientUnits="userSpaceOnUse">
<stop offset="0.0811198" stop-color="#FEB1B0"/>
<stop offset="1" stop-color="#FF8D8B"/>
</linearGradient>
<linearGradient id="paint7_linear_288_2" x1="639.342" y1="182.761" x2="592.684" y2="238.938" gradientUnits="userSpaceOnUse">
<stop offset="0.0811198" stop-color="#FEB1B0"/>
<stop offset="1" stop-color="#FF8D8B"/>
</linearGradient>
<linearGradient id="paint8_linear_288_2" x1="666.536" y1="193.333" x2="619.612" y2="255.602" gradientUnits="userSpaceOnUse">
<stop offset="0.0811198" stop-color="#FEB1B0"/>
<stop offset="1" stop-color="#FF8D8B"/>
</linearGradient>
<linearGradient id="paint9_linear_288_2" x1="702.793" y1="195.056" x2="644.478" y2="261.848" gradientUnits="userSpaceOnUse">
<stop offset="0.0811198" stop-color="#FEB1B0"/>
<stop offset="1" stop-color="#FF8D8B"/>
</linearGradient>
<linearGradient id="paint10_linear_288_2" x1="720" y1="204.5" x2="667.919" y2="261.614" gradientUnits="userSpaceOnUse">
<stop offset="0.0811198" stop-color="#FEB1B0"/>
<stop offset="1" stop-color="#FF8D8B"/>
</linearGradient>
</defs>
</svg>
