<svg width="162" height="162" viewBox="0 0 162 162" fill="none" xmlns="http://www.w3.org/2000/svg">
<path d="M146.808 70.875C149.811 70.875 152.748 69.9843 155.245 68.3154C157.743 66.6466 159.689 64.2747 160.839 61.4995C161.988 58.7243 162.289 55.6707 161.703 52.7246C161.117 49.7785 159.67 47.0723 157.547 44.9483C155.423 42.8243 152.717 41.3778 149.771 40.7918C146.825 40.2058 143.771 40.5066 140.996 41.6561C138.221 42.8056 135.849 44.7522 134.18 47.2498C132.511 49.7473 131.621 52.6837 131.621 55.6875C131.621 59.7155 133.221 63.5785 136.069 66.4267C138.917 69.2749 142.78 70.875 146.808 70.875ZM88.4232 56.4627C90.1187 55.9477 91.8811 55.6865 93.6532 55.6875C95.7059 55.7046 97.74 56.0782 99.6647 56.7918L104.521 41.4113C104.863 40.3374 104.961 39.201 104.809 38.0844C104.657 36.9679 104.258 35.8992 103.641 34.9559C103.025 34.0127 102.206 33.2184 101.245 32.6307C100.283 32.0431 99.2033 31.6768 98.0827 31.5584C94.4347 31.1312 91.0556 33.596 89.9482 37.0986L83.3355 58.0352L88.4232 56.4627ZM19.5058 122.237C19.7589 122.177 19.9931 122.066 20.2493 122.013V113.884C20.2576 103.509 23.5349 93.4 29.6157 84.9937C35.6965 76.5873 44.2715 70.3109 54.1227 67.056L77.4411 59.8546L88.2491 25.6447C88.5889 24.5719 88.6859 23.437 88.5333 22.322C88.3807 21.2071 87.9821 20.14 87.3665 19.198C86.751 18.256 85.9337 17.4626 84.9739 16.8751C84.0141 16.2877 82.9357 15.9209 81.8168 15.8013C78.1688 15.3773 74.7865 17.8422 73.6791 21.3448L63.0957 55.0167C62.893 55.657 62.4443 56.1905 61.8483 56.5C61.2523 56.8094 60.5577 56.8694 59.9175 56.6668C59.2772 56.4641 58.7437 56.0154 58.4342 55.4194C58.1248 54.8233 58.0648 54.1288 58.2675 53.4885L71.9896 9.89086C72.3293 8.81804 72.4264 7.68312 72.2737 6.56818C72.1211 5.45325 71.7225 4.38618 71.107 3.44415C70.4914 2.50212 69.6741 1.70869 68.7143 1.12125C67.7545 0.533807 66.6762 0.167036 65.5572 0.0474655C61.9092 -0.376519 58.5332 2.08829 57.4227 5.58774L42.2578 53.5897C42.0556 54.23 41.6073 54.7637 41.0116 55.0735C40.4158 55.3832 39.7215 55.4436 39.0812 55.2414C38.441 55.0391 37.9073 54.5908 37.5975 53.9951C37.2878 53.3993 37.2274 52.7049 37.4296 52.0646L49.6299 13.4631C49.9696 12.3903 50.0667 11.2553 49.914 10.1404C49.7614 9.02547 49.3629 7.9584 48.7473 7.01638C48.1317 6.07435 47.3144 5.28092 46.3546 4.69348C45.3948 4.10603 44.3165 3.73926 43.1975 3.61969C39.5495 3.16407 36.1704 5.64153 35.063 9.14414L16.0792 69.2139L15.4275 53.3777C15.4337 52.3802 15.2434 51.3913 14.8673 50.4674C14.4913 49.5435 13.9369 48.7027 13.2359 47.9931C12.5348 47.2835 11.7008 46.719 10.7815 46.3318C9.86227 45.9446 8.87572 45.7423 7.87826 45.7365C3.69234 45.7207 0.0569513 49.0714 0 53.286V88.9545C0.0996762 95.7145 1.94882 102.333 5.36723 108.166C8.78564 113.999 13.6567 118.847 19.5058 122.237ZM154.116 106.312H103.778C103.107 106.312 102.463 106.046 101.988 105.571C101.513 105.096 101.247 104.453 101.247 103.781C101.247 103.11 101.513 102.466 101.988 101.991C102.463 101.517 103.107 101.25 103.778 101.25H144.277C145.402 101.251 146.513 101.001 147.531 100.52C148.548 100.038 149.445 99.3369 150.158 98.466C150.871 97.5951 151.381 96.5767 151.652 95.4844C151.923 94.3921 151.948 93.2532 151.724 92.1501C151.032 88.5431 147.665 86.0625 143.992 86.0625H80.9973L95.8964 80.6646C96.8496 80.37 97.7354 79.8906 98.5032 79.2536C99.2711 78.6167 99.906 77.8347 100.372 76.9524C100.837 76.0701 101.125 75.1047 101.217 74.1113C101.31 73.118 101.206 72.1161 100.911 71.1629C100.617 70.2097 100.137 69.3239 99.5004 68.556C98.8634 67.7881 98.0815 67.1532 97.1992 66.6875C96.3169 66.2219 95.3516 65.9345 94.3583 65.8419C93.3649 65.7493 92.3631 65.8533 91.4099 66.1479L57.3278 76.6684C49.4864 79.2465 42.659 84.2344 37.819 90.921C32.979 97.6076 30.3736 105.652 30.374 113.906V122.022C34.0248 122.757 37.4676 124.291 40.4557 126.514C43.4437 128.737 45.9029 131.594 47.6569 134.879C49.411 138.164 50.4163 141.797 50.601 145.516C50.7856 149.236 50.145 152.95 48.725 156.393C54.6225 160.033 61.4111 161.974 68.3415 162H134.152C135.277 162.001 136.389 161.751 137.406 161.27C138.423 160.788 139.32 160.087 140.033 159.216C140.746 158.345 141.256 157.327 141.527 156.234C141.798 155.142 141.823 154.003 141.6 152.9C140.907 149.293 137.54 146.812 133.867 146.812H103.778C103.107 146.812 102.463 146.546 101.988 146.071C101.513 145.596 101.247 144.953 101.247 144.281C101.247 143.61 101.513 142.966 101.988 142.491C102.463 142.017 103.107 141.75 103.778 141.75H144.277C145.402 141.751 146.513 141.501 147.531 141.02C148.548 140.538 149.445 139.837 150.158 138.966C150.871 138.095 151.381 137.077 151.652 135.984C151.923 134.892 151.948 133.753 151.724 132.65C151.032 129.043 147.665 126.562 143.992 126.562H103.778C103.107 126.562 102.463 126.296 101.988 125.821C101.513 125.346 101.247 124.703 101.247 124.031C101.247 123.36 101.513 122.716 101.988 122.241C102.463 121.767 103.107 121.5 103.778 121.5H154.401C155.527 121.501 156.638 121.251 157.655 120.77C158.672 120.288 159.57 119.587 160.283 118.716C160.995 117.845 161.506 116.827 161.777 115.734C162.048 114.642 162.072 113.503 161.849 112.4C161.156 108.793 157.79 106.312 154.116 106.312ZM121.496 20.25C123.498 20.25 125.456 19.6562 127.121 18.5436C128.786 17.4311 130.084 15.8498 130.85 13.9997C131.616 12.1496 131.817 10.1138 131.426 8.14971C131.035 6.18566 130.071 4.38155 128.655 2.96555C127.239 1.54954 125.435 0.585229 123.471 0.194554C121.507 -0.196122 119.472 0.00438697 117.621 0.770724C115.771 1.53706 114.19 2.83481 113.078 4.49986C111.965 6.1649 111.371 8.12247 111.371 10.125C111.371 12.8103 112.438 15.3857 114.337 17.2845C116.236 19.1833 118.811 20.25 121.496 20.25ZM25.3117 131.625C22.308 131.625 19.3717 132.516 16.8742 134.185C14.3767 135.853 12.4302 138.225 11.2807 141C10.1312 143.776 9.83049 146.829 10.4165 149.775C11.0025 152.722 12.4489 155.428 14.5728 157.552C16.6968 159.676 19.4028 161.122 22.3488 161.708C25.2948 162.294 28.3484 161.993 31.1235 160.844C33.8985 159.694 36.2704 157.748 37.9392 155.25C39.608 152.753 40.4987 149.816 40.4987 146.812C40.4987 142.785 38.8986 138.922 36.0505 136.073C33.2024 133.225 29.3395 131.625 25.3117 131.625Z" fill="#4B2D71"/>
</svg>
