<svg width="38" height="38" viewBox="0 0 38 38" fill="none" xmlns="http://www.w3.org/2000/svg">
<path d="M25.08 19C25.08 20.2025 24.7234 21.378 24.0553 22.3779C23.3873 23.3777 22.4377 24.157 21.3267 24.6172C20.2157 25.0774 18.9933 25.1978 17.8139 24.9632C16.6344 24.7286 15.5511 24.1495 14.7008 23.2992C13.8505 22.4489 13.2714 21.3656 13.0368 20.1861C12.8022 19.0067 12.9226 17.7843 13.3828 16.6733C13.843 15.5623 14.6223 14.6127 15.6221 13.9447C16.622 13.2766 17.7975 12.92 19 12.92C20.611 12.925 22.1545 13.5672 23.2937 14.7063C24.4328 15.8455 25.075 17.389 25.08 19ZM38 10.64V27.36C38 30.1819 36.879 32.8882 34.8836 34.8836C32.8882 36.879 30.1819 38 27.36 38H10.64C7.8181 38 5.11177 36.879 3.11638 34.8836C1.121 32.8882 0 30.1819 0 27.36V10.64C0 7.8181 1.121 5.11177 3.11638 3.11638C5.11177 1.121 7.8181 0 10.64 0H27.36C30.1819 0 32.8882 1.121 34.8836 3.11638C36.879 5.11177 38 7.8181 38 10.64ZM28.12 19C28.12 17.1962 27.5851 15.433 26.583 13.9332C25.5809 12.4334 24.1565 11.2645 22.4901 10.5742C20.8236 9.88395 18.9899 9.70334 17.2208 10.0552C15.4517 10.4071 13.8266 11.2757 12.5512 12.5512C11.2757 13.8266 10.4071 15.4517 10.0552 17.2208C9.70334 18.9899 9.88395 20.8236 10.5742 22.4901C11.2645 24.1565 12.4334 25.5809 13.9332 26.583C15.433 27.5851 17.1962 28.12 19 28.12C21.4188 28.12 23.7385 27.1591 25.4488 25.4488C27.1591 23.7385 28.12 21.4188 28.12 19ZM31.16 9.12C31.16 8.66906 31.0263 8.22824 30.7757 7.8533C30.5252 7.47836 30.1691 7.18612 29.7525 7.01355C29.3359 6.84099 28.8775 6.79584 28.4352 6.88381C27.9929 6.97178 27.5867 7.18893 27.2678 7.5078C26.9489 7.82666 26.7318 8.23292 26.6438 8.67519C26.5558 9.11747 26.601 9.5759 26.7736 9.99252C26.9461 10.4091 27.2384 10.7652 27.6133 11.0158C27.9882 11.2663 28.4291 11.4 28.88 11.4C29.4847 11.4 30.0646 11.1598 30.4922 10.7322C30.9198 10.3046 31.16 9.72469 31.16 9.12Z" fill="#7962F5"/>
</svg>
