<svg width="302" height="166" viewBox="0 0 302 166" fill="none" xmlns="http://www.w3.org/2000/svg">
<rect x="30.2485" y="30.9868" width="239.778" height="135.013" rx="50" fill="#4B2D71"/>
<rect x="47.2175" y="47.9556" width="205.84" height="101.813" rx="40" fill="#9460D6"/>
<path d="M108.822 142.76L66.3997 50.1689C69.3508 48.6933 73.0397 48.0785 74.5152 47.9556H101.813L138.333 126.898L108.822 142.76Z" fill="#B79ADC" fill-opacity="0.6"/>
<path d="M196.986 149.031L147.186 47.9556H174.853L222.809 149.031H196.986Z" fill="#B79ADC" fill-opacity="0.6"/>
<path d="M246 132.5L204.364 47.9556H214.693L251 121.5C250.705 125.632 247.353 129.918 246 132.5Z" fill="#B79ADC" fill-opacity="0.6"/>
<path d="M82.6925 151.01C81.5938 151.092 80.5811 151.086 79.6797 151.01H82.6925C92.2344 150.295 108.269 142.902 114.355 116.703C122.84 80.1831 148.662 84.2408 150.506 84.2408C152.351 84.2408 181.493 82.3964 186.289 116.703C190.125 144.148 213.955 151.01 225.391 151.01H82.6925Z" fill="#4B2D71"/>
<rect x="137.227" width="25.0844" height="28.7733" rx="10" fill="#A983DA"/>
<rect x="132.062" y="22.1333" width="36.1511" height="8.85333" fill="#2C1A42"/>
<rect x="301.013" y="86.3201" width="25.0844" height="28.7733" rx="10" transform="rotate(90 301.013 86.3201)" fill="#A983DA"/>
<rect x="278.88" y="81.1555" width="36.1511" height="8.85333" transform="rotate(90 278.88 81.1555)" fill="#2C1A42"/>
<rect y="111.405" width="25.0844" height="28.7733" rx="10" transform="rotate(-90 0 111.405)" fill="#A983DA"/>
<rect x="22.1333" y="116.569" width="36.1511" height="8.85333" transform="rotate(-90 22.1333 116.569)" fill="#2C1A42"/>
</svg>
