<svg width="201" height="133" viewBox="0 0 201 133" fill="none" xmlns="http://www.w3.org/2000/svg">
<path fill-rule="evenodd" clip-rule="evenodd" d="M102.713 28.0375C114.313 12.35 127.137 0 143.537 0C174.5 0 200 39.4125 200.012 86.3375C200.012 114.962 187.688 132.9 165.55 132.9C146.263 132.9 135.613 122.075 116.5 90.1L108.162 76.0625L106.688 73.6C104.513 69.9253 102.305 66.271 100.062 62.6375L85.3375 88.6375C64.425 125.2 52.65 132.9 36.3 132.9C13.575 132.9 0 115.212 0 87.1625C0 42.35 24.9375 0 57.475 0C61.4625 0 65.2875 0.4875 69.025 1.525C72.9 2.6 76.6625 4.275 80.4375 6.6125C87.65 11.1 94.8625 18.05 102.713 28.0375ZM121.662 55.8375C118.512 50.7125 115.487 46 112.575 41.675L112.5 41.575C123.062 25.2625 131.787 17.15 142.15 17.15C163.687 17.15 180.925 48.8625 180.925 87.8125C180.925 102.662 176.05 111.275 165.988 111.275C156.325 111.275 151.713 104.9 133.363 75.4L121.65 55.8375H121.662ZM60.575 21.95C69.6375 23.2 77.8875 29.875 89.825 46.9625C82.9371 57.5097 76.1244 68.1058 69.3875 78.75C52.425 105.325 46.5625 111.287 37.125 111.287C27.4125 111.287 21.625 102.762 21.625 87.5375C21.625 55.0125 37.85 21.7375 57.2 21.7375C58.3375 21.7375 59.4625 21.8125 60.575 21.9625V21.95Z" fill="#4B2D71"/>
</svg>
