<svg width="190" height="165" viewBox="0 0 190 165" fill="none" xmlns="http://www.w3.org/2000/svg">
<rect width="190" height="165" fill="#4B2D71"/>
<path d="M94.9999 103.125C80.4332 103.125 79.1666 97.2125 79.1666 96.25H63.3333C63.3333 102.575 68.5583 113.781 87.0832 116.325V123.75H102.917V116.325C118.75 113.988 126.667 105.119 126.667 96.25C126.667 88.55 122.55 75.625 94.9999 75.625C79.1666 75.625 79.1666 71.2938 79.1666 68.75C79.1666 66.2062 84.7083 61.875 94.9999 61.875C105.292 61.875 106.004 66.275 106.083 68.75H121.917C121.81 64.0664 119.87 59.554 116.417 55.9553C112.963 52.3566 108.202 49.886 102.917 48.95V41.25H87.0832V48.7438C71.2499 51.0125 63.3333 59.8813 63.3333 68.75C63.3333 76.45 67.4499 89.375 94.9999 89.375C110.833 89.375 110.833 94.05 110.833 96.25C110.833 98.45 105.925 103.125 94.9999 103.125Z" fill="white"/>
<path d="M39.5832 13.75H15.8333V27.5H31.6666V144.375C31.6666 146.198 32.5007 147.947 33.9853 149.236C35.47 150.526 37.4836 151.25 39.5832 151.25H150.417C152.516 151.25 154.53 150.526 156.014 149.236C157.499 147.947 158.333 146.198 158.333 144.375V27.5H174.167V13.75H39.5832ZM142.5 137.5H47.4999V27.5H142.5V137.5Z" fill="white"/>
</svg>
