<svg width="82" height="129" viewBox="0 0 82 129" fill="none" xmlns="http://www.w3.org/2000/svg">
<g filter="url(#filter0_d_303_6)">
<path fill-rule="evenodd" clip-rule="evenodd" d="M47.7628 16.5714C56.3235 16.5714 62.9893 24.157 62.9893 33.1429C62.9893 42.1287 56.3235 49.7143 47.7628 49.7143H32.6912C30.7356 49.7143 28.8601 50.5872 27.4772 52.1411C26.0944 53.695 25.3176 55.8025 25.3176 58C25.3176 60.1975 26.0944 62.305 27.4772 63.8589C28.8601 65.4128 30.7356 66.2857 32.6912 66.2857H47.7591C56.3235 66.2857 62.9893 73.8713 62.9893 82.8571C62.9893 91.843 56.3235 99.4286 47.7628 99.4286H32.6912C25.9701 99.4286 20.3625 94.7181 18.3127 88.3257C17.6478 86.2584 16.2793 84.5726 14.5082 83.6391C12.7372 82.7056 10.7087 82.6009 8.86893 83.3481C7.0292 84.0952 5.52896 85.633 4.69823 87.6231C3.8675 89.6133 3.77434 91.8927 4.43925 93.96C8.59058 106.877 19.7284 116 32.6912 116H47.7591C64.169 116 77.7364 101.33 77.7364 82.8571C77.7376 78.1369 76.8313 73.4721 75.0795 69.1819C73.3277 64.8917 70.7718 61.0774 67.5867 58C70.7718 54.9226 73.3277 51.1083 75.0795 46.8181C76.8313 42.5279 77.7376 37.8631 77.7364 33.1429C77.7364 14.6699 64.1653 0 47.7628 0H32.6912C19.7284 0 8.59058 9.12257 4.43925 22.04C4.11002 23.0634 3.96339 24.1496 4.00774 25.2366C4.05208 26.3236 4.28652 27.3902 4.69769 28.3754C5.10885 29.3606 5.68868 30.2452 6.40407 30.9786C7.11945 31.712 7.95639 32.2799 8.86709 32.6499C10.7063 33.397 12.7344 33.2925 14.5051 32.3594C16.2758 31.4263 17.6441 29.741 18.309 27.6743C20.3625 21.2819 25.9701 16.5714 32.6912 16.5714H47.7591H47.7628Z" fill="#876FDC"/>
</g>
<path d="M36.2806 126.107C35.4993 124.414 33.9386 122.993 32.2723 122.421C29.283 121.396 27.2428 118.589 28.837 115.755C30.0857 115.475 29.473 117.063 29.5086 117.692C29.5614 118.627 29.9445 119.479 30.8874 119.858C32.8646 120.653 33.6795 117.626 31.7206 117.246C31.369 118.034 30.7543 119.27 30.6578 117.462C30.5988 116.355 31.4706 115.921 32.4775 116.218C33.3391 116.472 34.027 117.53 34.3461 115.964C34.5411 115.006 33.8208 114.028 33.2812 113.315C31.9736 111.588 30.3682 111.491 29.0768 113.221C28.6104 113.846 28.1298 114.792 27.3454 115.074C26.5356 115.363 25.4596 114.577 25.9321 113.545C26.3618 112.607 27.634 113.575 28.0109 112.157C28.3462 110.896 26.9085 110.54 26.1627 109.748C24.4517 107.929 26.0774 105.754 27.4074 108.247C27.7914 108.965 28.3635 110.466 29.3907 109.946C30.3489 109.46 29.9435 107.799 29.3968 107.118C28.8939 106.491 27.5771 105.55 26.7439 105.394C25.3946 105.14 25.3295 106.311 24.412 106.605C23.3868 106.933 22.9865 105.118 22.8544 103.423C21.6697 105.754 21.0011 108.393 21.0011 111.187C21.0011 120.211 27.9642 127.608 36.811 128.299C36.6952 127.579 36.6068 126.812 36.2806 126.107Z" fill="#7967DE"/>
<path d="M38.1642 128.328C47.6437 128.328 55.3283 120.644 55.3283 111.164C55.3283 101.685 47.6437 94 38.1642 94C28.6847 94 21 101.685 21 111.164C21 120.644 28.6847 128.328 38.1642 128.328Z" fill="#573FD8"/>
<path d="M33.975 98.5474C33.973 98.8604 33.655 99.2241 33.7627 99.6102C33.9761 100.378 35.551 101.085 36.2023 101.352C38.7414 102.393 38.3705 97.3739 41.1129 96.9868C42.7274 96.7592 43.8918 97.7468 44.3724 99.152C44.6386 99.9303 44.7687 100.464 45.292 101.197C45.6222 101.66 46.0449 102.054 46.2338 102.573C46.1007 101.973 46.0845 101.02 46.0946 100.445C46.119 99.0809 46.2948 99.0707 47.382 99.721C47.8016 99.9719 50.7228 101.86 49.2962 102.697C48.6724 103.063 48.0343 101.868 47.3617 102.136C46.3029 102.559 48.9406 107.144 46.2034 106.642C45.4555 106.505 45.2879 105.596 45.0572 105.027C44.6691 104.07 44.2241 103.164 43.5352 102.375C41.4705 100.01 38.1206 102.431 37.8015 104.934C37.7009 105.72 37.6471 107.304 36.6239 107.531C35.1273 107.865 35.8111 106.193 36.1027 105.484C37.4083 102.311 33.5107 103.262 31.5812 102.408C30.4361 101.902 28.9638 100.866 28.3816 99.8145C28.0057 99.1347 27.7801 98.4113 27.3767 97.8392C26.7823 98.3198 26.2205 98.839 25.6962 99.3938C25.7998 99.6051 25.8811 99.8663 25.9319 100.183C26.0874 101.154 25.8171 102.363 26.6543 103.036C27.4428 103.67 28.8002 103.702 29.7127 104.192C30.7673 104.758 31.8667 105.512 31.9267 106.751C31.9683 107.599 31.1494 108.614 31.3485 109.4C31.7915 111.151 33.9009 108.723 35.2675 109.2C36.375 109.586 40.044 112.789 38.0312 113.55C36.7895 114.019 34.4089 110.82 34.6883 113.668C34.8925 115.751 37.2894 117.272 36.9775 119.404C36.1159 119.783 35.2695 118.887 34.6619 119.741C34.0746 120.567 34.9647 121.449 35.7247 121.811C36.4969 122.18 37.896 122.347 38.4975 121.606C39.3063 120.61 38.3634 119.162 38.1185 118.179C37.9285 117.415 37.9296 116.188 39.0676 116.328C40.4067 116.492 41.6077 119.422 41.371 120.572C40.9574 122.572 38.1927 121.799 37.8015 124.258C37.5496 125.841 38.8125 127.076 40.1537 128.238C40.7126 128.174 41.2633 128.082 41.8048 127.965C41.0489 126.927 39.7351 124.966 39.9901 124.259C40.2005 123.677 41.3628 123.219 41.8008 122.736C42.4033 122.07 43.0109 121.34 43.0993 120.458C43.1887 119.563 42.9499 118.401 42.4399 117.663C41.9532 116.957 40.8619 116.553 40.929 115.523C42.4104 115.486 42.262 114.431 41.4644 113.457C40.3691 112.119 39.349 111.514 39.1814 109.519C39.0574 108.049 39.1885 105.67 40.7766 105.039C42.2184 104.466 43.7648 105.56 44.1509 106.968C44.5563 108.446 43.1166 110.833 44.8286 111.732C47.2377 112.998 48.5931 110.293 48.8847 108.39C49.0026 107.625 48.7537 106.256 49.5452 105.799C51.0723 104.917 52.8718 107.192 52.7753 108.592C52.6411 110.536 49.9018 110.25 49.7789 111.474C49.6407 112.853 51.9827 111.852 52.443 112.973C53.1553 114.707 50.7716 114.214 50.0278 113.886C48.839 113.363 47.9998 112.642 46.6707 113.195C45.1009 113.847 43.1389 117.377 43.5585 119.075C43.8999 120.459 45.0491 120.012 45.548 119.106C46.0316 118.229 45.8711 116.682 46.5854 115.971C48.1603 114.403 50.0735 117.127 49.9882 118.781C49.9272 119.946 49.3694 122.186 48.1379 122.626C47.3596 122.904 46.5143 122.329 45.7563 122.29C42.9316 122.144 41.688 125.819 42.7325 127.737C49.9953 125.737 55.3306 119.086 55.3306 111.187C55.3306 101.707 47.6462 94.0229 38.1663 94.0229C36.3811 94.0229 34.6599 94.2952 33.0423 94.8012C33.4985 95.9839 33.9811 97.3759 33.975 98.5474Z" fill="#7967DE"/>
<path d="M26.2869 119.536C25.9069 120.505 26.3722 121.426 26.7563 122.251C27.1394 123.072 27.3233 124.151 28.1097 124.702L28.8006 124.126C29.0526 125.253 30.8876 126.409 32.0256 126.314C33.9825 126.151 32.7277 124.711 31.6771 124.245C30.5615 123.749 29.0912 123.177 28.3658 122.056C27.877 121.3 27.6708 119.246 26.2869 119.536Z" fill="#533BD9"/>
<path d="M53.3408 113.3C53.3723 114.044 53.4048 114.962 52.6752 115.405C51.7211 115.984 51.3208 114.927 50.3403 115.143L49.5336 115.488C50.6167 116.122 50.6086 119.448 51.837 119.295C53.0817 119.139 53.3763 115.801 53.5907 114.912C53.7441 114.275 54.2908 113.181 54.0256 112.494C53.4982 111.131 53.3113 112.616 53.3408 113.3Z" fill="#533BD9"/>
<path d="M36.2895 96.4829L35.9441 97.9806C35.1515 98.8239 36.1798 101.842 37.5301 99.9386C38.1947 99.0028 38.0605 97.0854 39.1945 96.5093C39.6517 96.2767 40.6871 96.8528 40.7927 96.1405C40.874 95.5898 39.608 95.2799 39.29 95.2098C38.2272 94.9781 36.7518 95.4089 36.2895 96.4829Z" fill="#533BD9"/>
<path d="M23.2744 115.603C23.2876 116.1 23.8251 116.858 24.4286 116.649C25.149 116.399 24.8025 115.223 24.7741 114.682C24.7263 113.763 24.7548 111.582 26.1366 111.554C26.3338 110.001 24.6766 110.456 24.1004 109.706C23.7072 109.195 23.9409 107.179 22.8395 108.604C21.7157 110.056 22.8151 113.175 22.8141 114.798L23.2744 115.603Z" fill="#533BD9"/>
<path d="M29.003 103.166C29.3423 103.629 30.3411 103.943 30.8746 104.2L32.1416 104.66C33.0479 105.158 32.547 109.375 34.4196 107.859C34.9886 107.399 34.7366 106.24 34.76 105.576C34.7935 104.613 34.9794 104.654 33.8699 104.201C32.549 103.66 31.2251 102.863 29.8382 102.361C28.944 102.035 28.2216 102.1 29.003 103.166Z" fill="#533BD9"/>
<path opacity="0.2" d="M21.9899 111.095C21.7898 112.984 22.561 115.432 23.1696 117.2C24.1501 120.043 26.107 122.167 28.5293 123.973C32.5397 126.962 38.0823 127.894 42.8568 126.619C48.0072 125.243 52.7472 120.855 53.3446 115.477C53.7805 111.547 54.3922 105.801 51.1591 103.003C49.7081 101.747 46.3053 99.512 45.2852 102.226C44.3464 104.721 45.4264 107.813 45.0292 110.427C44.3586 114.843 41.8164 118.158 37.0531 117.782C34.96 117.616 32.4188 116.81 31.0288 115.16C29.777 113.674 29.4356 111.589 28.8717 109.798C28.3779 108.23 27.6392 106.149 25.6752 106.259C23.7833 106.364 23.5232 107.714 22.4502 108.677L21.9899 111.095Z" fill="#DDDDF4"/>
<path opacity="0.2" d="M26.3825 114.682C25.8338 115.645 26.8062 117.48 26.6121 117.907L26.8428 118.943C27.2959 121.19 29.4774 122.436 31.4476 123.201C32.6313 123.662 36.8327 124.604 36.8662 122.168C36.8804 121.156 35.4417 120.816 34.6746 120.466C33.4136 119.891 32.0562 119.233 31.0056 118.303C30.1988 117.59 27.3 113.07 26.3825 114.682Z" fill="#CEC3ED"/>
<defs>
<filter id="filter0_d_303_6" x="0" y="0" width="81.7365" height="124" filterUnits="userSpaceOnUse" color-interpolation-filters="sRGB">
<feFlood flood-opacity="0" result="BackgroundImageFix"/>
<feColorMatrix in="SourceAlpha" type="matrix" values="0 0 0 0 0 0 0 0 0 0 0 0 0 0 0 0 0 0 127 0" result="hardAlpha"/>
<feOffset dy="4"/>
<feGaussianBlur stdDeviation="2"/>
<feComposite in2="hardAlpha" operator="out"/>
<feColorMatrix type="matrix" values="0 0 0 0 0 0 0 0 0 0 0 0 0 0 0 0 0 0 0.25 0"/>
<feBlend mode="normal" in2="BackgroundImageFix" result="effect1_dropShadow_303_6"/>
<feBlend mode="normal" in="SourceGraphic" in2="effect1_dropShadow_303_6" result="shape"/>
</filter>
</defs>
</svg>
