<svg width="99" height="99" viewBox="0 0 99 99" fill="none" xmlns="http://www.w3.org/2000/svg">
<g filter="url(#filter0_d_157_222)">
<path d="M74.25 74.25C87.9191 60.581 87.9191 38.4191 74.25 24.75C60.5809 11.081 38.419 11.081 24.75 24.75C11.0809 38.4191 11.081 60.581 24.75 74.25C38.4191 87.9191 60.581 87.9191 74.25 74.25Z" fill="#573FD8"/>
</g>
<path d="M19.0278 45.6571C22.4798 44.0638 25.3785 40.8812 26.545 37.4831C28.6357 31.3873 34.3585 27.2268 40.1394 30.4777C40.7092 33.0242 37.4706 31.7748 36.1881 31.8473C34.2818 31.9551 32.5434 32.7362 31.7706 34.659C30.1503 38.6911 36.3227 40.3528 37.0977 36.358C35.4919 35.6411 32.9703 34.3876 36.6584 34.1907C38.9148 34.0706 39.7996 35.8483 39.1945 37.9017C38.6765 39.6587 36.5196 41.0615 39.7125 41.7121C41.6664 42.1099 43.6597 40.6408 45.1142 39.5406C48.6366 36.874 48.8334 33.6002 45.3048 30.9667C44.0306 30.0157 42.1015 29.0356 41.5276 27.436C40.9371 25.7847 42.5408 23.5904 44.646 24.5539C46.5584 25.4304 44.5838 28.0245 47.4763 28.7932C50.0476 29.477 50.7728 26.5451 52.389 25.0243C56.0978 21.535 60.5319 24.8502 55.4493 27.5624C53.9844 28.3457 50.9241 29.5122 51.9849 31.607C52.9753 33.5608 56.3631 32.7341 57.7513 31.6194C59.0297 30.5938 60.9484 27.9085 61.2675 26.2094C61.7855 23.4578 59.3965 23.3252 58.7977 21.4542C58.1284 19.3636 61.8289 18.5472 65.2871 18.2779C60.5319 15.8619 55.1509 14.4985 49.453 14.4985C31.0516 14.4985 15.9675 28.6979 14.5586 46.7387C16.0256 46.5025 17.5899 46.3222 19.0278 45.6571Z" fill="#7967DE"/>
<path d="M75.2282 40.9539C74.5901 40.9497 73.8483 40.3012 73.0609 40.5208C71.4945 40.9559 70.0545 44.1675 69.5096 45.4957C67.3858 50.6736 77.6214 49.9173 78.4108 55.5096C78.875 58.802 76.861 61.1765 73.9954 62.1565C72.4083 62.6994 71.3205 62.9646 69.8245 64.0317C68.8818 64.7051 68.0778 65.5671 67.019 65.9524C68.2436 65.681 70.1871 65.6479 71.3578 65.6686C74.1405 65.7183 74.1612 66.0767 72.8351 68.2938C72.3233 69.1495 68.4736 75.1065 66.7663 72.1974C66.0203 70.9252 68.457 69.624 67.91 68.2523C67.0481 66.0933 57.6971 71.4722 58.7207 65.8903C59.0004 64.3653 60.8548 64.0234 62.0152 63.5531C63.967 62.7616 65.8131 61.854 67.4231 60.4492C72.2467 56.2389 67.3091 49.4076 62.2037 48.757C60.6021 48.5519 57.3718 48.442 56.9077 46.3555C56.2281 43.3035 59.6365 44.698 61.0828 45.2926C67.5536 47.9551 65.6142 40.007 67.3547 36.0723C68.3865 33.7371 70.5 30.7348 72.6445 29.5476C74.0306 28.7809 75.5059 28.3209 76.6724 27.4984C75.6924 26.2863 74.6336 25.1404 73.5023 24.0713C73.0713 24.2826 72.5388 24.4484 71.8924 24.552C69.9136 24.869 67.4479 24.3179 66.0742 26.0252C64.7813 27.633 64.7171 30.4012 63.7184 32.2619C62.5643 34.4126 61.0268 36.6545 58.499 36.7767C56.771 36.8617 54.7011 35.1917 53.0973 35.5978C49.5273 36.5012 54.4773 40.8026 53.5055 43.5894C52.7182 45.8479 46.1872 53.3299 44.6353 49.2253C43.6781 46.6933 50.2007 41.8386 44.3929 42.4084C40.1453 42.8249 37.0435 47.7127 32.6965 47.0766C31.9236 45.3196 33.7512 43.5936 32.0086 42.3545C30.3262 41.1569 28.5256 42.972 27.788 44.5218C27.0358 46.0965 26.696 48.9497 28.2065 50.1763C30.2371 51.8256 33.1896 49.9028 35.1953 49.4034C36.7535 49.016 39.2543 49.0181 38.9705 51.3387C38.6348 54.0696 32.6592 56.5187 30.3158 56.0359C26.236 55.1926 27.8128 49.5547 22.7986 48.757C19.5704 48.2431 17.0509 50.8186 14.6826 53.5536C14.8132 54.6932 14.9996 55.8163 15.2379 56.9206C17.3555 55.3791 21.3545 52.7 22.7966 53.22C23.9838 53.649 24.9162 56.0193 25.9025 56.9123C27.2596 58.141 28.7494 59.3801 30.5479 59.5603C32.3733 59.7427 34.7416 59.2558 36.2479 58.2156C37.6859 57.2231 38.5105 54.9978 40.6115 55.1346C40.6861 58.1555 42.8389 57.853 44.8239 56.2265C47.5527 53.9929 48.7855 51.9126 52.8549 51.5708C55.8531 51.318 60.7036 51.5853 61.9903 54.8238C63.1589 57.7639 60.9274 60.9175 58.0577 61.7049C55.0429 62.5316 50.1758 59.5956 48.3421 63.0869C45.7604 67.9996 51.2761 70.7636 55.1569 71.3583C56.7171 71.5986 59.5081 71.091 60.4405 72.7051C62.239 75.8193 57.5998 79.4888 54.7446 79.2919C50.7809 79.0184 51.3631 73.4323 48.8684 73.1816C46.0567 72.8998 48.0976 77.6758 45.8101 78.6144C42.2753 80.0668 43.2802 75.2059 43.9495 73.6893C45.0166 71.265 46.4856 69.5535 45.3584 66.8434C44.0282 63.6422 36.8301 59.6411 33.3678 60.4969C30.5458 61.1931 31.4575 63.5365 33.3036 64.5538C35.0938 65.5401 38.2474 65.2127 39.6978 66.6693C42.8948 69.8809 37.3398 73.7825 33.9666 73.6084C31.5921 73.4841 27.0234 72.3466 26.1262 69.8354C25.5585 68.2482 26.7312 66.5243 26.8121 64.9786C27.1084 59.2185 19.616 56.6824 15.7041 58.8124C19.7818 73.6229 33.345 84.503 49.4527 84.503C68.7844 84.503 84.4548 68.8325 84.4548 49.5008C84.4548 45.8603 83.8995 42.3504 82.8677 39.0518C80.4559 39.9821 77.6172 40.9663 75.2282 40.9539Z" fill="#7967DE"/>
<path d="M32.4271 25.279C30.4525 24.5041 28.5732 25.4531 26.8907 26.2363C25.2165 27.0174 23.0161 27.3925 21.8931 28.9962L23.0679 30.4051C20.7701 30.919 18.4121 34.661 18.6048 36.9816C18.9384 40.9723 21.8744 38.4134 22.8255 36.2709C23.8366 33.9959 25.0032 30.9977 27.2886 29.5183C28.8301 28.5217 33.0197 28.1011 32.4271 25.279Z" fill="#533BD9"/>
<path d="M45.1451 80.4481C43.6284 80.5123 41.7554 80.5786 40.852 79.0909C39.6709 77.1453 41.8279 76.3289 41.3866 74.3295L40.6821 72.6843C39.3912 74.8931 32.6075 74.8765 32.9204 77.3815C33.2374 79.9197 40.0439 80.5206 41.8569 80.9578C43.1561 81.2706 45.3875 82.3854 46.7882 81.8446C49.5688 80.7692 46.5396 80.388 45.1451 80.4481Z" fill="#533BD9"/>
<path d="M79.4384 45.6736L76.3843 44.9691C74.6645 43.3529 68.5107 45.4498 72.3915 48.2035C74.2999 49.5585 78.2097 49.285 79.3845 51.5974C79.859 52.5298 78.6842 54.6411 80.1367 54.8566C81.2597 55.0224 81.8916 52.4407 82.0346 51.7921C82.507 49.6248 81.6285 46.6163 79.4384 45.6736Z" fill="#533BD9"/>
<path d="M40.4476 19.1318C39.4344 19.1588 37.8887 20.2548 38.3155 21.4856C38.8252 22.9546 41.2225 22.2481 42.3268 22.1901C44.1999 22.0927 48.6485 22.1507 48.7044 24.9686C51.8725 25.3706 50.9443 21.9912 52.4734 20.8164C53.5156 20.0145 57.6264 20.491 54.7215 18.245C51.7606 15.9534 45.3996 18.1953 42.0907 18.1932L40.4476 19.1318Z" fill="#533BD9"/>
<path d="M65.8088 30.8178C64.866 31.5099 64.2258 33.5466 63.7016 34.6344L62.763 37.2182C61.7477 39.0664 53.1469 38.0449 56.2383 41.8636C57.1769 43.0239 59.541 42.5101 60.894 42.5577C62.8583 42.6261 62.7754 43.0053 63.6995 40.7427C64.8018 38.0491 66.4262 35.3493 67.4519 32.521C68.1149 30.6977 67.9823 29.2245 65.8088 30.8178Z" fill="#533BD9"/>
<defs>
<filter id="filter0_d_157_222" x="14.4983" y="14.4983" width="78.0034" height="78.0034" filterUnits="userSpaceOnUse" color-interpolation-filters="sRGB">
<feFlood flood-opacity="0" result="BackgroundImageFix"/>
<feColorMatrix in="SourceAlpha" type="matrix" values="0 0 0 0 0 0 0 0 0 0 0 0 0 0 0 0 0 0 127 0" result="hardAlpha"/>
<feOffset dx="4" dy="4"/>
<feGaussianBlur stdDeviation="2"/>
<feComposite in2="hardAlpha" operator="out"/>
<feColorMatrix type="matrix" values="0 0 0 0 0 0 0 0 0 0 0 0 0 0 0 0 0 0 0.25 0"/>
<feBlend mode="normal" in2="BackgroundImageFix" result="effect1_dropShadow_157_222"/>
<feBlend mode="normal" in="SourceGraphic" in2="effect1_dropShadow_157_222" result="shape"/>
</filter>
</defs>
</svg>
