<svg width="1440" height="1038" viewBox="0 0 1440 1038" fill="none" xmlns="http://www.w3.org/2000/svg">
<g filter="url(#filter0_biiiiii_163_78)">
<path d="M354.329 0.0450823C182.735 3.01304 58.7102 112.926 8.38431 179.336C1.29498 188.691 -2 200.215 -2 211.953V799.724C-2 806.971 -0.757518 814.186 2.10716 820.842C48.3787 928.353 204.168 1085.46 495.649 923.133C871.662 713.727 984.718 962.116 1153.29 973.611C1277.29 982.066 1384.05 886.385 1431.83 825.724C1439.4 816.113 1443 804.127 1443 791.893V78.6599C1443 54.3713 1428.24 32.1042 1405.26 24.2312C1112.17 -76.1951 1088.06 176.153 926.172 216.948C757.597 259.429 585.489 -3.95314 354.329 0.0450823Z" fill="#7962F5"/>
</g>
<g filter="url(#filter1_i_163_78)">
<path d="M347 98.0005C176.43 100.183 66.4665 220.333 15.0004 279.344C5.32726 290.435 0 304.646 0 319.363V701.564C0 711.053 2.10072 720.367 6.89465 728.556C58.3138 816.39 227.266 995.453 519.5 806.5C895.5 593.5 976.225 876.783 1149 885.5C1271.62 891.686 1373.13 812.392 1423.38 763.634C1434.33 753.009 1440 738.257 1440 723.001V180.51C1440 163.916 1433.28 147.692 1420.17 137.517C1240.93 -1.62171 1109.19 286.421 942.5 317.5C769.725 349.714 583.919 94.9686 347 98.0005Z" fill="url(#paint0_radial_163_78)"/>
</g>
<g opacity="0.2" filter="url(#filter2_d_163_78)">
<path d="M217.204 805.233C212.031 806.782 206.459 811.492 202.49 815.029C196.111 820.722 192.688 828.186 190.613 836.521C187.176 850.32 190.818 865.879 199.404 877C208.667 888.996 225.377 896.609 240.137 892.272C250.922 889.1 266.662 884.395 270.45 872.844C272.151 867.66 274.277 856.282 266.04 856.587C258.465 856.865 251.542 863.092 244.253 864.919C231.933 868.01 220.45 864.982 216.207 852.077C214.343 846.407 213.666 838.858 216.467 833.401C218.991 828.486 224.084 825.302 228.162 821.856C231.732 818.84 236.378 814.618 233.934 809.588C231.579 804.742 227.755 805.541 224.051 803.785L217.204 805.233Z" fill="#DDDDF4"/>
</g>
<g opacity="0.2" filter="url(#filter3_d_163_78)">
<path d="M212.62 820.691C209.492 820.31 205.747 824.874 204.415 824.834L201.951 826.577C196.557 830.232 195.682 837.321 195.839 843.328C195.931 846.938 198.074 858.99 204.498 856.404C207.168 855.33 206.481 851.183 206.555 848.788C206.679 844.85 206.915 840.567 208.2 836.791C209.184 833.892 217.854 821.328 212.62 820.691Z" fill="#DDDDF4"/>
</g>
<g opacity="0.2" filter="url(#filter4_d_163_78)">
<path d="M940.205 763.816C943.154 761.923 947.83 761.169 951.249 760.71C956.749 759.975 961.873 761.444 966.855 763.946C975.104 768.086 981.227 776.457 983.075 785.387C985.068 795.02 981.754 806.468 973.378 811.904C967.257 815.875 958.286 821.638 950.996 818.621C947.724 817.267 941.221 813.505 944.853 809.577C948.192 805.963 954.185 805.186 958.167 802.368C964.897 797.607 968.26 790.672 963.698 783.127C961.693 779.812 958.261 776.287 954.389 775.36C950.902 774.526 947.18 775.688 943.759 776.24C940.765 776.723 936.722 777.227 935.277 773.896C933.886 770.689 935.896 769.143 936.597 766.576L940.205 763.816Z" fill="#DDDDF4"/>
</g>
<g opacity="0.2" filter="url(#filter5_d_163_78)">
<path d="M949.755 768.093C950.89 766.391 954.721 766.476 955.264 765.803L957.165 765.326C961.245 764.214 965.106 766.781 967.998 769.397C969.737 770.968 974.767 777.119 970.778 779.189C969.121 780.05 967.369 777.959 966.157 776.983C964.165 775.379 961.956 773.685 959.554 772.721C957.71 771.981 947.857 770.94 949.755 768.093Z" fill="#DDDDF4"/>
</g>
<g opacity="0.2" filter="url(#filter6_d_163_78)">
<path d="M1354.54 236.024C1351.9 232.639 1346.79 229.875 1343.02 227.96C1336.95 224.883 1330.43 224.51 1323.65 225.388C1312.43 226.841 1301.96 234.05 1296.21 243.635C1290 253.976 1289.2 268.565 1296.69 278.244C1302.17 285.317 1310.22 295.617 1319.88 295.076C1324.21 294.834 1333.26 293.111 1330.64 287.096C1328.24 281.563 1321.62 278.238 1318.16 273.366C1312.29 265.134 1311.21 255.747 1319.54 248.862C1323.2 245.837 1328.6 243.148 1333.46 243.642C1337.83 244.087 1341.67 246.938 1345.4 248.962C1348.67 250.733 1353.15 252.952 1356.17 249.683C1359.07 246.534 1357.37 243.932 1357.6 240.678L1354.54 236.024Z" fill="#DDDDF4"/>
</g>
<g opacity="0.2" filter="url(#filter7_d_163_78)">
<path d="M1344.96 244.109C1344.18 241.057 1338.56 239.232 1338.12 237.977L1335.59 236.317C1330.23 232.625 1323.3 234.393 1317.77 236.727C1314.44 238.128 1304 244.514 1308.74 249.554C1310.72 251.649 1314.33 249.499 1316.59 248.696C1320.3 247.376 1324.37 246.036 1328.36 245.857C1331.42 245.718 1346.28 249.215 1344.96 244.109Z" fill="#DDDDF4"/>
</g>
<g opacity="0.2" filter="url(#filter8_d_163_78)">
<path d="M897.198 190.043C894.708 189.779 891.481 190.795 889.15 191.598C885.402 192.89 882.602 195.47 880.221 198.663C876.281 203.95 875.052 211.257 876.733 217.551C878.547 224.341 884.331 230.59 891.421 231.377C896.602 231.952 904.176 232.758 907.865 228.496C909.521 226.583 912.468 222.097 908.89 220.753C905.6 219.515 901.524 220.939 898.079 220.415C892.256 219.531 887.887 216.18 888.383 209.9C888.601 207.141 889.663 203.791 891.838 201.958C893.798 200.308 896.547 199.858 898.908 199.115C900.975 198.464 903.718 197.49 903.574 194.901C903.434 192.407 901.655 192.064 900.386 190.649L897.198 190.043Z" fill="#DDDDF4"/>
</g>
<g opacity="0.2" filter="url(#filter9_d_163_78)">
<path d="M892.469 195.833C891.199 195.11 888.78 196.392 888.218 196.136L886.852 196.44C883.89 197.038 882.246 199.913 881.238 202.511C880.631 204.071 879.389 209.61 882.6 209.654C883.934 209.673 884.383 207.776 884.844 206.765C885.602 205.103 886.47 203.313 887.695 201.928C888.636 200.864 894.594 197.043 892.469 195.833Z" fill="#DDDDF4"/>
</g>
<path d="M1192 81.5L1198 67L1209.5 81.5H1192Z" stroke="#9C64F2" stroke-opacity="0.2" stroke-width="2"/>
<g opacity="0.2" filter="url(#filter10_d_163_78)">
<path d="M1334.67 673.167L1337.42 668.255C1338.94 665.522 1342.88 665.522 1344.4 668.255L1347.35 673.529C1347.94 674.596 1348.99 675.332 1350.2 675.527L1352.65 675.926C1355.99 676.468 1357.19 680.642 1354.66 682.875L1353.35 684.026C1352.05 685.171 1351.66 687.033 1352.4 688.601C1354.02 692.072 1350.18 695.555 1346.88 693.609L1342.73 691.159C1341.59 690.488 1340.19 690.422 1339 690.982L1333.43 693.592C1330.07 695.164 1326.62 691.626 1328.26 688.307C1328.97 686.885 1328.75 685.178 1327.7 683.985L1325.83 681.857C1323.56 679.272 1325.4 675.217 1328.84 675.217H1331.18C1332.63 675.217 1333.97 674.433 1334.67 673.167Z" fill="#DDDDF4"/>
</g>
<g opacity="0.2" filter="url(#filter11_d_163_78)">
<circle cx="289" cy="80" r="13" fill="#DDDDF4"/>
</g>
<g opacity="0.2" filter="url(#filter12_d_163_78)">
<path d="M492.675 605.167L495.418 600.255C496.944 597.522 500.876 597.522 502.402 600.255L505.347 605.529C505.943 606.596 506.993 607.332 508.198 607.527L510.652 607.926C513.986 608.468 515.189 612.642 512.656 614.875L511.35 616.026C510.052 617.171 509.663 619.033 510.395 620.601C512.017 624.072 508.183 627.555 504.883 625.609L500.728 623.159C499.59 622.488 498.195 622.422 496.999 622.982L491.43 625.592C488.075 627.164 484.616 623.626 486.263 620.307C486.969 618.885 486.746 617.178 485.698 615.985L483.83 613.857C481.56 611.272 483.396 607.217 486.836 607.217H489.182C490.632 607.217 491.968 606.433 492.675 605.167Z" fill="#DDDDF4"/>
</g>
<g opacity="0.2" filter="url(#filter13_d_163_78)">
<path d="M84.6017 996.11L91.1199 984.327C92.6421 981.576 96.5979 981.576 98.1201 984.327L104.841 996.477C105.434 997.549 106.485 998.29 107.694 998.488L116.72 999.968C120.041 1000.51 121.246 1004.67 118.731 1006.9L112.338 1012.59C111.021 1013.76 110.627 1015.66 111.367 1017.26L114.613 1024.27C116.265 1027.84 112.316 1031.4 108.937 1029.39L96.4504 1021.96C95.3062 1021.28 93.8981 1021.21 92.6944 1021.78L78.3134 1028.58C74.8904 1030.2 71.3429 1026.6 73.0138 1023.2L76.0872 1016.95C76.7978 1015.51 76.5724 1013.77 75.5155 1012.56L68.7639 1004.8C66.5118 1002.21 68.3505 998.174 71.7817 998.174H81.1015C82.5568 998.174 83.8972 997.384 84.6017 996.11Z" fill="#DDDDF4"/>
</g>
<g opacity="0.2" filter="url(#filter14_d_163_78)">
<path d="M598.675 262.167L601.418 257.255C602.944 254.522 606.876 254.522 608.402 257.255L611.347 262.529C611.943 263.596 612.993 264.332 614.198 264.527L616.652 264.926C619.986 265.468 621.189 269.642 618.656 271.875L617.35 273.026C616.052 274.171 615.663 276.033 616.395 277.601C618.017 281.072 614.183 284.555 610.883 282.609L606.728 280.159C605.59 279.488 604.195 279.422 602.999 279.982L597.43 282.592C594.075 284.164 590.616 280.626 592.263 277.307C592.969 275.885 592.746 274.178 591.698 272.985L589.83 270.857C587.56 268.272 589.396 264.217 592.836 264.217H595.182C596.632 264.217 597.968 263.433 598.675 262.167Z" fill="#DDDDF4"/>
</g>
<g opacity="0.2" filter="url(#filter15_d_163_78)">
<path d="M48.2663 229.48L55.152 217.214C56.6804 214.491 60.5996 214.491 62.128 217.214L69.2153 229.839C69.8122 230.902 70.8614 231.635 72.0651 231.83L81.6131 233.373C84.9536 233.913 86.1563 238.098 83.612 240.329L76.9028 246.212C75.5627 247.387 75.1617 249.306 75.9193 250.92L79.3955 258.322C81.0662 261.879 77.1412 265.461 73.7511 263.472L60.4508 255.671C59.3169 255.006 57.9287 254.94 56.7372 255.496L41.5041 262.595C38.0716 264.195 34.5443 260.572 36.2351 257.184L39.5163 250.608C40.2439 249.15 40.0143 247.396 38.9358 246.175L31.8683 238.169C29.5884 235.586 31.422 231.522 34.867 231.522H44.7783C46.2246 231.522 47.5583 230.741 48.2663 229.48Z" fill="#DDDDF4"/>
</g>
<g opacity="0.2" filter="url(#filter16_d_163_78)">
<circle cx="1187" cy="61" r="13" fill="#DDDDF4"/>
</g>
<defs>
<filter id="filter0_biiiiii_163_78" x="-102" y="-100" width="1645" height="1193" filterUnits="userSpaceOnUse" color-interpolation-filters="sRGB">
<feFlood flood-opacity="0" result="BackgroundImageFix"/>
<feGaussianBlur in="BackgroundImage" stdDeviation="50"/>
<feComposite in2="SourceAlpha" operator="in" result="effect1_backgroundBlur_163_78"/>
<feBlend mode="normal" in="SourceGraphic" in2="effect1_backgroundBlur_163_78" result="shape"/>
<feColorMatrix in="SourceAlpha" type="matrix" values="0 0 0 0 0 0 0 0 0 0 0 0 0 0 0 0 0 0 127 0" result="hardAlpha"/>
<feOffset dy="1"/>
<feGaussianBlur stdDeviation="2"/>
<feComposite in2="hardAlpha" operator="arithmetic" k2="-1" k3="1"/>
<feColorMatrix type="matrix" values="0 0 0 0 0.933333 0 0 0 0 0.2 0 0 0 0 0.866667 0 0 0 0.2 0"/>
<feBlend mode="normal" in2="shape" result="effect2_innerShadow_163_78"/>
<feColorMatrix in="SourceAlpha" type="matrix" values="0 0 0 0 0 0 0 0 0 0 0 0 0 0 0 0 0 0 127 0" result="hardAlpha"/>
<feOffset dy="4"/>
<feGaussianBlur stdDeviation="9"/>
<feComposite in2="hardAlpha" operator="arithmetic" k2="-1" k3="1"/>
<feColorMatrix type="matrix" values="0 0 0 0 0.603922 0 0 0 0 0.572549 0 0 0 0 0.823529 0 0 0 0.3 0"/>
<feBlend mode="normal" in2="effect2_innerShadow_163_78" result="effect3_innerShadow_163_78"/>
<feColorMatrix in="SourceAlpha" type="matrix" values="0 0 0 0 0 0 0 0 0 0 0 0 0 0 0 0 0 0 127 0" result="hardAlpha"/>
<feMorphology radius="48" operator="dilate" in="SourceAlpha" result="effect4_innerShadow_163_78"/>
<feOffset dy="98"/>
<feGaussianBlur stdDeviation="50"/>
<feComposite in2="hardAlpha" operator="arithmetic" k2="-1" k3="1"/>
<feColorMatrix type="matrix" values="0 0 0 0 0.792157 0 0 0 0 0.67451 0 0 0 0 1 0 0 0 0.3 0"/>
<feBlend mode="normal" in2="effect3_innerShadow_163_78" result="effect4_innerShadow_163_78"/>
<feColorMatrix in="SourceAlpha" type="matrix" values="0 0 0 0 0 0 0 0 0 0 0 0 0 0 0 0 0 0 127 0" result="hardAlpha"/>
<feMorphology radius="84" operator="dilate" in="SourceAlpha" result="effect5_innerShadow_163_78"/>
<feOffset dy="-82"/>
<feGaussianBlur stdDeviation="34"/>
<feComposite in2="hardAlpha" operator="arithmetic" k2="-1" k3="1"/>
<feColorMatrix type="matrix" values="0 0 0 0 0.376471 0 0 0 0 0.266667 0 0 0 0 0.564706 0 0 0 0.3 0"/>
<feBlend mode="normal" in2="effect4_innerShadow_163_78" result="effect5_innerShadow_163_78"/>
<feColorMatrix in="SourceAlpha" type="matrix" values="0 0 0 0 0 0 0 0 0 0 0 0 0 0 0 0 0 0 127 0" result="hardAlpha"/>
<feMorphology radius="4" operator="dilate" in="SourceAlpha" result="effect6_innerShadow_163_78"/>
<feOffset dy="7"/>
<feGaussianBlur stdDeviation="5.5"/>
<feComposite in2="hardAlpha" operator="arithmetic" k2="-1" k3="1"/>
<feColorMatrix type="matrix" values="0 0 0 0 1 0 0 0 0 1 0 0 0 0 1 0 0 0 1 0"/>
<feBlend mode="normal" in2="effect5_innerShadow_163_78" result="effect6_innerShadow_163_78"/>
<feColorMatrix in="SourceAlpha" type="matrix" values="0 0 0 0 0 0 0 0 0 0 0 0 0 0 0 0 0 0 127 0" result="hardAlpha"/>
<feMorphology radius="36" operator="dilate" in="SourceAlpha" result="effect7_innerShadow_163_78"/>
<feOffset dy="39"/>
<feGaussianBlur stdDeviation="29"/>
<feComposite in2="hardAlpha" operator="arithmetic" k2="-1" k3="1"/>
<feColorMatrix type="matrix" values="0 0 0 0 1 0 0 0 0 1 0 0 0 0 1 0 0 0 0.5 0"/>
<feBlend mode="normal" in2="effect6_innerShadow_163_78" result="effect7_innerShadow_163_78"/>
</filter>
<filter id="filter1_i_163_78" x="0" y="97.9736" width="1440" height="801.916" filterUnits="userSpaceOnUse" color-interpolation-filters="sRGB">
<feFlood flood-opacity="0" result="BackgroundImageFix"/>
<feBlend mode="normal" in="SourceGraphic" in2="BackgroundImageFix" result="shape"/>
<feColorMatrix in="SourceAlpha" type="matrix" values="0 0 0 0 0 0 0 0 0 0 0 0 0 0 0 0 0 0 127 0" result="hardAlpha"/>
<feOffset dy="10"/>
<feGaussianBlur stdDeviation="10"/>
<feComposite in2="hardAlpha" operator="arithmetic" k2="-1" k3="1"/>
<feColorMatrix type="matrix" values="0 0 0 0 0 0 0 0 0 0 0 0 0 0 0 0 0 0 0.3 0"/>
<feBlend mode="normal" in2="shape" result="effect1_innerShadow_163_78"/>
</filter>
<filter id="filter2_d_163_78" x="185.329" y="803.785" width="90.6941" height="97.7168" filterUnits="userSpaceOnUse" color-interpolation-filters="sRGB">
<feFlood flood-opacity="0" result="BackgroundImageFix"/>
<feColorMatrix in="SourceAlpha" type="matrix" values="0 0 0 0 0 0 0 0 0 0 0 0 0 0 0 0 0 0 127 0" result="hardAlpha"/>
<feOffset dy="4"/>
<feGaussianBlur stdDeviation="2"/>
<feComposite in2="hardAlpha" operator="out"/>
<feColorMatrix type="matrix" values="0 0 0 0 0 0 0 0 0 0 0 0 0 0 0 0 0 0 0.25 0"/>
<feBlend mode="normal" in2="BackgroundImageFix" result="effect1_dropShadow_163_78"/>
<feBlend mode="normal" in="SourceGraphic" in2="effect1_dropShadow_163_78" result="shape"/>
</filter>
<filter id="filter3_d_163_78" x="191.822" y="820.668" width="26.4658" height="44.0957" filterUnits="userSpaceOnUse" color-interpolation-filters="sRGB">
<feFlood flood-opacity="0" result="BackgroundImageFix"/>
<feColorMatrix in="SourceAlpha" type="matrix" values="0 0 0 0 0 0 0 0 0 0 0 0 0 0 0 0 0 0 127 0" result="hardAlpha"/>
<feOffset dy="4"/>
<feGaussianBlur stdDeviation="2"/>
<feComposite in2="hardAlpha" operator="out"/>
<feColorMatrix type="matrix" values="0 0 0 0 0 0 0 0 0 0 0 0 0 0 0 0 0 0 0.25 0"/>
<feBlend mode="normal" in2="BackgroundImageFix" result="effect1_dropShadow_163_78"/>
<feBlend mode="normal" in="SourceGraphic" in2="effect1_dropShadow_163_78" result="shape"/>
</filter>
<filter id="filter4_d_163_78" x="930.798" y="760.521" width="56.8398" height="66.9424" filterUnits="userSpaceOnUse" color-interpolation-filters="sRGB">
<feFlood flood-opacity="0" result="BackgroundImageFix"/>
<feColorMatrix in="SourceAlpha" type="matrix" values="0 0 0 0 0 0 0 0 0 0 0 0 0 0 0 0 0 0 127 0" result="hardAlpha"/>
<feOffset dy="4"/>
<feGaussianBlur stdDeviation="2"/>
<feComposite in2="hardAlpha" operator="out"/>
<feColorMatrix type="matrix" values="0 0 0 0 0 0 0 0 0 0 0 0 0 0 0 0 0 0 0.25 0"/>
<feBlend mode="normal" in2="BackgroundImageFix" result="effect1_dropShadow_163_78"/>
<feBlend mode="normal" in="SourceGraphic" in2="effect1_dropShadow_163_78" result="shape"/>
</filter>
<filter id="filter5_d_163_78" x="945.514" y="765.06" width="30.7654" height="22.3325" filterUnits="userSpaceOnUse" color-interpolation-filters="sRGB">
<feFlood flood-opacity="0" result="BackgroundImageFix"/>
<feColorMatrix in="SourceAlpha" type="matrix" values="0 0 0 0 0 0 0 0 0 0 0 0 0 0 0 0 0 0 127 0" result="hardAlpha"/>
<feOffset dy="4"/>
<feGaussianBlur stdDeviation="2"/>
<feComposite in2="hardAlpha" operator="out"/>
<feColorMatrix type="matrix" values="0 0 0 0 0 0 0 0 0 0 0 0 0 0 0 0 0 0 0.25 0"/>
<feBlend mode="normal" in2="BackgroundImageFix" result="effect1_dropShadow_163_78"/>
<feBlend mode="normal" in="SourceGraphic" in2="effect1_dropShadow_163_78" result="shape"/>
</filter>
<filter id="filter6_d_163_78" x="1287.31" y="224.975" width="74.5781" height="78.1216" filterUnits="userSpaceOnUse" color-interpolation-filters="sRGB">
<feFlood flood-opacity="0" result="BackgroundImageFix"/>
<feColorMatrix in="SourceAlpha" type="matrix" values="0 0 0 0 0 0 0 0 0 0 0 0 0 0 0 0 0 0 127 0" result="hardAlpha"/>
<feOffset dy="4"/>
<feGaussianBlur stdDeviation="2"/>
<feComposite in2="hardAlpha" operator="out"/>
<feColorMatrix type="matrix" values="0 0 0 0 0 0 0 0 0 0 0 0 0 0 0 0 0 0 0.25 0"/>
<feBlend mode="normal" in2="BackgroundImageFix" result="effect1_dropShadow_163_78"/>
<feBlend mode="normal" in="SourceGraphic" in2="effect1_dropShadow_163_78" result="shape"/>
</filter>
<filter id="filter7_d_163_78" x="1303.53" y="234.191" width="45.5176" height="24.2539" filterUnits="userSpaceOnUse" color-interpolation-filters="sRGB">
<feFlood flood-opacity="0" result="BackgroundImageFix"/>
<feColorMatrix in="SourceAlpha" type="matrix" values="0 0 0 0 0 0 0 0 0 0 0 0 0 0 0 0 0 0 127 0" result="hardAlpha"/>
<feOffset dy="4"/>
<feGaussianBlur stdDeviation="2"/>
<feComposite in2="hardAlpha" operator="out"/>
<feColorMatrix type="matrix" values="0 0 0 0 0 0 0 0 0 0 0 0 0 0 0 0 0 0 0.25 0"/>
<feBlend mode="normal" in2="BackgroundImageFix" result="effect1_dropShadow_163_78"/>
<feBlend mode="normal" in="SourceGraphic" in2="effect1_dropShadow_163_78" result="shape"/>
</filter>
<filter id="filter8_d_163_78" x="872" y="190" width="42.584" height="49.8418" filterUnits="userSpaceOnUse" color-interpolation-filters="sRGB">
<feFlood flood-opacity="0" result="BackgroundImageFix"/>
<feColorMatrix in="SourceAlpha" type="matrix" values="0 0 0 0 0 0 0 0 0 0 0 0 0 0 0 0 0 0 127 0" result="hardAlpha"/>
<feOffset dy="4"/>
<feGaussianBlur stdDeviation="2"/>
<feComposite in2="hardAlpha" operator="out"/>
<feColorMatrix type="matrix" values="0 0 0 0 0 0 0 0 0 0 0 0 0 0 0 0 0 0 0.25 0"/>
<feBlend mode="normal" in2="BackgroundImageFix" result="effect1_dropShadow_163_78"/>
<feBlend mode="normal" in="SourceGraphic" in2="effect1_dropShadow_163_78" result="shape"/>
</filter>
<filter id="filter9_d_163_78" x="876.487" y="195.609" width="20.4368" height="22.0449" filterUnits="userSpaceOnUse" color-interpolation-filters="sRGB">
<feFlood flood-opacity="0" result="BackgroundImageFix"/>
<feColorMatrix in="SourceAlpha" type="matrix" values="0 0 0 0 0 0 0 0 0 0 0 0 0 0 0 0 0 0 127 0" result="hardAlpha"/>
<feOffset dy="4"/>
<feGaussianBlur stdDeviation="2"/>
<feComposite in2="hardAlpha" operator="out"/>
<feColorMatrix type="matrix" values="0 0 0 0 0 0 0 0 0 0 0 0 0 0 0 0 0 0 0.25 0"/>
<feBlend mode="normal" in2="BackgroundImageFix" result="effect1_dropShadow_163_78"/>
<feBlend mode="normal" in="SourceGraphic" in2="effect1_dropShadow_163_78" result="shape"/>
</filter>
<filter id="filter10_d_163_78" x="1320.83" y="666.205" width="39.1868" height="35.9639" filterUnits="userSpaceOnUse" color-interpolation-filters="sRGB">
<feFlood flood-opacity="0" result="BackgroundImageFix"/>
<feColorMatrix in="SourceAlpha" type="matrix" values="0 0 0 0 0 0 0 0 0 0 0 0 0 0 0 0 0 0 127 0" result="hardAlpha"/>
<feOffset dy="4"/>
<feGaussianBlur stdDeviation="2"/>
<feComposite in2="hardAlpha" operator="out"/>
<feColorMatrix type="matrix" values="0 0 0 0 0 0 0 0 0 0 0 0 0 0 0 0 0 0 0.25 0"/>
<feBlend mode="normal" in2="BackgroundImageFix" result="effect1_dropShadow_163_78"/>
<feBlend mode="normal" in="SourceGraphic" in2="effect1_dropShadow_163_78" result="shape"/>
</filter>
<filter id="filter11_d_163_78" x="272" y="67" width="34" height="34" filterUnits="userSpaceOnUse" color-interpolation-filters="sRGB">
<feFlood flood-opacity="0" result="BackgroundImageFix"/>
<feColorMatrix in="SourceAlpha" type="matrix" values="0 0 0 0 0 0 0 0 0 0 0 0 0 0 0 0 0 0 127 0" result="hardAlpha"/>
<feOffset dy="4"/>
<feGaussianBlur stdDeviation="2"/>
<feComposite in2="hardAlpha" operator="out"/>
<feColorMatrix type="matrix" values="0 0 0 0 0 0 0 0 0 0 0 0 0 0 0 0 0 0 0.25 0"/>
<feBlend mode="normal" in2="BackgroundImageFix" result="effect1_dropShadow_163_78"/>
<feBlend mode="normal" in="SourceGraphic" in2="effect1_dropShadow_163_78" result="shape"/>
</filter>
<filter id="filter12_d_163_78" x="478.828" y="598.205" width="39.1868" height="35.9639" filterUnits="userSpaceOnUse" color-interpolation-filters="sRGB">
<feFlood flood-opacity="0" result="BackgroundImageFix"/>
<feColorMatrix in="SourceAlpha" type="matrix" values="0 0 0 0 0 0 0 0 0 0 0 0 0 0 0 0 0 0 127 0" result="hardAlpha"/>
<feOffset dy="4"/>
<feGaussianBlur stdDeviation="2"/>
<feComposite in2="hardAlpha" operator="out"/>
<feColorMatrix type="matrix" values="0 0 0 0 0 0 0 0 0 0 0 0 0 0 0 0 0 0 0.25 0"/>
<feBlend mode="normal" in2="BackgroundImageFix" result="effect1_dropShadow_163_78"/>
<feBlend mode="normal" in="SourceGraphic" in2="effect1_dropShadow_163_78" result="shape"/>
</filter>
<filter id="filter13_d_163_78" x="63.7739" y="982.264" width="60.3022" height="55.7104" filterUnits="userSpaceOnUse" color-interpolation-filters="sRGB">
<feFlood flood-opacity="0" result="BackgroundImageFix"/>
<feColorMatrix in="SourceAlpha" type="matrix" values="0 0 0 0 0 0 0 0 0 0 0 0 0 0 0 0 0 0 127 0" result="hardAlpha"/>
<feOffset dy="4"/>
<feGaussianBlur stdDeviation="2"/>
<feComposite in2="hardAlpha" operator="out"/>
<feColorMatrix type="matrix" values="0 0 0 0 0 0 0 0 0 0 0 0 0 0 0 0 0 0 0.25 0"/>
<feBlend mode="normal" in2="BackgroundImageFix" result="effect1_dropShadow_163_78"/>
<feBlend mode="normal" in="SourceGraphic" in2="effect1_dropShadow_163_78" result="shape"/>
</filter>
<filter id="filter14_d_163_78" x="584.828" y="255.205" width="39.1868" height="35.9639" filterUnits="userSpaceOnUse" color-interpolation-filters="sRGB">
<feFlood flood-opacity="0" result="BackgroundImageFix"/>
<feColorMatrix in="SourceAlpha" type="matrix" values="0 0 0 0 0 0 0 0 0 0 0 0 0 0 0 0 0 0 127 0" result="hardAlpha"/>
<feOffset dy="4"/>
<feGaussianBlur stdDeviation="2"/>
<feComposite in2="hardAlpha" operator="out"/>
<feColorMatrix type="matrix" values="0 0 0 0 0 0 0 0 0 0 0 0 0 0 0 0 0 0 0.25 0"/>
<feBlend mode="normal" in2="BackgroundImageFix" result="effect1_dropShadow_163_78"/>
<feBlend mode="normal" in="SourceGraphic" in2="effect1_dropShadow_163_78" result="shape"/>
</filter>
<filter id="filter15_d_163_78" x="26.8594" y="215.171" width="62.1196" height="56.8701" filterUnits="userSpaceOnUse" color-interpolation-filters="sRGB">
<feFlood flood-opacity="0" result="BackgroundImageFix"/>
<feColorMatrix in="SourceAlpha" type="matrix" values="0 0 0 0 0 0 0 0 0 0 0 0 0 0 0 0 0 0 127 0" result="hardAlpha"/>
<feOffset dy="4"/>
<feGaussianBlur stdDeviation="2"/>
<feComposite in2="hardAlpha" operator="out"/>
<feColorMatrix type="matrix" values="0 0 0 0 0 0 0 0 0 0 0 0 0 0 0 0 0 0 0.25 0"/>
<feBlend mode="normal" in2="BackgroundImageFix" result="effect1_dropShadow_163_78"/>
<feBlend mode="normal" in="SourceGraphic" in2="effect1_dropShadow_163_78" result="shape"/>
</filter>
<filter id="filter16_d_163_78" x="1170" y="48" width="34" height="34" filterUnits="userSpaceOnUse" color-interpolation-filters="sRGB">
<feFlood flood-opacity="0" result="BackgroundImageFix"/>
<feColorMatrix in="SourceAlpha" type="matrix" values="0 0 0 0 0 0 0 0 0 0 0 0 0 0 0 0 0 0 127 0" result="hardAlpha"/>
<feOffset dy="4"/>
<feGaussianBlur stdDeviation="2"/>
<feComposite in2="hardAlpha" operator="out"/>
<feColorMatrix type="matrix" values="0 0 0 0 0 0 0 0 0 0 0 0 0 0 0 0 0 0 0.25 0"/>
<feBlend mode="normal" in2="BackgroundImageFix" result="effect1_dropShadow_163_78"/>
<feBlend mode="normal" in="SourceGraphic" in2="effect1_dropShadow_163_78" result="shape"/>
</filter>
<radialGradient id="paint0_radial_163_78" cx="0" cy="0" r="1" gradientUnits="userSpaceOnUse" gradientTransform="translate(720 491.908) rotate(90) scale(393.934 720)">
<stop stop-color="#5C4CAE"/>
<stop offset="1" stop-color="#442565"/>
</radialGradient>
</defs>
</svg>
