<svg width="1405" height="785" viewBox="0 0 1405 785" fill="none" xmlns="http://www.w3.org/2000/svg">
<path d="M733.685 43.4379C735.986 42.3757 737.919 40.254 738.697 37.9886C740.09 33.9247 743.906 31.151 747.759 33.3183C748.139 35.016 745.98 34.183 745.125 34.2314C743.854 34.3032 742.695 34.824 742.18 36.1058C741.1 38.7939 745.215 39.9017 745.732 37.2385C744.661 36.7606 742.98 35.9249 745.439 35.7937C746.943 35.7135 747.533 36.8987 747.13 38.2676C746.784 39.439 745.346 40.3741 747.475 40.8079C748.777 41.0731 750.106 40.0937 751.076 39.3603C753.424 37.5825 753.555 35.4 751.203 33.6443C750.354 33.0103 749.068 32.3569 748.685 31.2905C748.291 30.1896 749.36 28.7268 750.764 29.3691C752.039 29.9534 750.722 31.6828 752.651 32.1953C754.365 32.6511 754.848 30.6966 755.926 29.6827C758.398 27.3565 761.354 29.5666 757.966 31.3748C756.989 31.8969 754.949 32.6746 755.656 34.0711C756.317 35.3737 758.575 34.8226 759.501 34.0794C760.353 33.3957 761.632 31.6055 761.845 30.4728C762.19 28.6384 760.597 28.55 760.198 27.3026C759.752 25.9089 762.219 25.3646 764.525 25.1851C761.354 23.5744 757.767 22.6655 753.968 22.6655C741.701 22.6655 731.645 32.1318 730.706 44.159C731.684 44.0015 732.726 43.8813 733.685 43.4379Z" fill="#7967DE"/>
<path d="M770.5 62.5C779.613 53.3873 779.613 38.6127 770.5 29.5C761.387 20.3873 746.613 20.3873 737.5 29.5C728.387 38.6127 728.387 53.3873 737.5 62.5C746.613 71.6127 761.387 71.6127 770.5 62.5Z" fill="#573FD8"/>
<path d="M771.152 40.3024C770.727 40.2997 770.232 39.8673 769.707 40.0137C768.663 40.3038 767.703 42.4449 767.34 43.3303C765.924 46.7822 772.748 46.278 773.274 50.0062C773.583 52.2012 772.241 53.7842 770.33 54.4375C769.272 54.7994 768.547 54.9763 767.55 55.6876C766.921 56.1366 766.385 56.7112 765.679 56.9681C766.496 56.7872 767.791 56.7651 768.572 56.7789C770.427 56.812 770.441 57.051 769.557 58.529C769.215 59.0995 766.649 63.0708 765.511 61.1314C765.013 60.2833 766.638 59.4158 766.273 58.5014C765.699 57.0621 759.465 60.648 760.147 56.9267C760.334 55.91 761.57 55.6821 762.343 55.3685C763.645 54.8409 764.875 54.2359 765.949 53.2993C769.164 50.4925 765.873 45.9382 762.469 45.5045C761.401 45.3677 759.248 45.2945 758.938 43.9035C758.485 41.8688 760.758 42.7985 761.722 43.1949C766.036 44.9699 764.743 39.6712 765.903 37.048C766.591 35.4913 768 33.4897 769.43 32.6982C770.354 32.1871 771.337 31.8805 772.115 31.3321C771.461 30.524 770.756 29.7601 770.001 29.0474C769.714 29.1883 769.359 29.2988 768.928 29.3678C767.609 29.5792 765.965 29.2117 765.049 30.35C764.187 31.4219 764.145 33.2673 763.479 34.5078C762.709 35.9416 761.684 37.4362 759.999 37.5177C758.847 37.5743 757.467 36.4609 756.398 36.7317C754.018 37.3339 757.318 40.2016 756.67 42.0595C756.145 43.5651 751.791 48.5531 750.757 45.8167C750.119 44.1287 754.467 40.8922 750.595 41.2721C747.763 41.5498 745.696 44.8083 742.798 44.3842C742.282 43.2129 743.501 42.0622 742.339 41.2362C741.217 40.4378 740.017 41.6478 739.525 42.6811C739.024 43.7309 738.797 45.633 739.804 46.4507C741.158 47.5502 743.126 46.2684 744.463 45.9355C745.502 45.6772 747.169 45.6785 746.98 47.2256C746.756 49.0462 742.773 50.6789 741.21 50.3571C738.491 49.7949 739.542 46.0363 736.199 45.5045C734.047 45.1619 732.367 46.8789 730.788 48.7023C730.875 49.462 731 50.2107 731.159 50.9469C732.57 49.9192 735.236 48.1332 736.198 48.4799C736.989 48.7658 737.611 50.346 738.268 50.9414C739.173 51.7605 740.166 52.5866 741.365 52.7067C742.582 52.8283 744.161 52.5037 745.165 51.8103C746.124 51.1486 746.674 49.6651 748.074 49.7562C748.124 51.7702 749.559 51.5685 750.882 50.4842C752.702 48.9951 753.524 47.6083 756.237 47.3803C758.235 47.2118 761.469 47.39 762.327 49.549C763.106 51.5091 761.618 53.6115 759.705 54.1364C757.695 54.6876 754.45 52.7302 753.228 55.0578C751.507 58.3329 755.184 60.1756 757.771 60.572C758.811 60.7322 760.672 60.3938 761.294 61.4699C762.493 63.546 759.4 65.9923 757.496 65.8611C754.854 65.6788 755.242 61.9547 753.579 61.7876C751.704 61.5997 753.065 64.7837 751.54 65.4094C749.183 66.3777 749.853 63.1371 750.3 62.126C751.011 60.5099 751.99 59.3689 751.239 57.5621C750.352 55.4279 745.553 52.7606 743.245 53.3311C741.364 53.7952 741.972 55.3575 743.202 56.0357C744.396 56.6932 746.498 56.475 747.465 57.4461C749.596 59.5871 745.893 62.1882 743.644 62.0721C742.061 61.9893 739.016 61.2309 738.417 59.5567C738.039 58.4986 738.821 57.3494 738.875 56.3189C739.072 52.4788 734.077 50.7881 731.469 52.2081C734.188 62.0818 743.23 69.3351 753.968 69.3351C766.856 69.3351 777.303 58.8882 777.303 46.0004C777.303 43.5734 776.933 41.2334 776.245 39.0344C774.637 39.6546 772.745 40.3107 771.152 40.3024Z" fill="#7967DE"/>
<path d="M742.618 29.8527C741.302 29.3361 740.049 29.9687 738.927 30.4909C737.811 31.0116 736.344 31.2616 735.595 32.3308L736.379 33.2701C734.847 33.6127 733.275 36.1073 733.403 37.6544C733.626 40.3149 735.583 38.6089 736.217 37.1806C736.891 35.6639 737.669 33.6652 739.192 32.6789C740.22 32.0145 743.013 31.7341 742.618 29.8527Z" fill="#533BD9"/>
<path d="M751.097 66.6319C750.085 66.6747 748.837 66.7189 748.234 65.7271C747.447 64.43 748.885 63.8858 748.591 62.5528L748.121 61.4561C747.261 62.9285 742.738 62.9175 742.947 64.5875C743.158 66.2796 747.696 66.6802 748.904 66.9717C749.77 67.1803 751.258 67.9234 752.192 67.5629C754.046 66.846 752.026 66.5918 751.097 66.6319Z" fill="#533BD9"/>
<path d="M773.959 43.4494L771.923 42.9797C770.776 41.9023 766.674 43.3002 769.261 45.136C770.533 46.0394 773.14 45.857 773.923 47.3986C774.239 48.0202 773.456 49.4277 774.424 49.5714C775.173 49.6819 775.594 47.9608 775.69 47.5284C776.005 46.0836 775.419 44.0779 773.959 43.4494Z" fill="#533BD9"/>
<path d="M747.965 25.7546C747.29 25.7725 746.259 26.5032 746.544 27.3237C746.883 28.3031 748.482 27.8321 749.218 27.7934C750.467 27.7285 753.432 27.7671 753.47 29.6457C755.582 29.9137 754.963 27.6608 755.982 26.8776C756.677 26.343 759.418 26.6607 757.481 25.1633C755.507 23.6356 751.266 25.1302 749.06 25.1288L747.965 25.7546Z" fill="#533BD9"/>
<path d="M764.873 33.5447C764.244 34.0061 763.817 35.3639 763.468 36.0891L762.842 37.8117C762.165 39.0438 756.431 38.3628 758.492 40.9086C759.118 41.6821 760.694 41.3396 761.596 41.3713C762.906 41.4169 762.85 41.6697 763.466 40.1613C764.201 38.3656 765.284 36.5657 765.968 34.6802C766.41 33.4646 766.322 32.4825 764.873 33.5447Z" fill="#533BD9"/>
<path opacity="0.2" d="M754.094 24.0112C751.526 23.7391 748.199 24.7875 745.795 25.6149C741.93 26.9479 739.042 29.6083 736.587 32.9014C732.523 38.3535 731.257 45.8887 732.99 52.3795C734.86 59.3815 740.825 65.8254 748.136 66.6376C753.479 67.2302 761.291 68.0617 765.095 63.6663C766.802 61.6938 769.841 57.0677 766.152 55.6809C762.759 54.4045 758.556 55.8729 755.003 55.3328C748.998 54.4211 744.492 50.965 745.004 44.4894C745.229 41.6438 746.324 38.1891 748.567 36.2995C750.588 34.5977 753.423 34.1336 755.858 33.3669C757.989 32.6956 760.818 31.6914 760.669 29.0213C760.525 26.4492 758.691 26.0956 757.382 24.6369L754.094 24.0112Z" fill="#DDDDF4"/>
<path opacity="0.2" d="M749.218 29.9825C747.909 29.2366 745.414 30.5585 744.834 30.2947L743.425 30.6083C740.371 31.2243 738.676 34.19 737.636 36.8684C737.01 38.4777 735.729 44.1895 739.04 44.2351C740.416 44.2544 740.879 42.2984 741.354 41.2555C742.136 39.5413 743.031 37.6959 744.295 36.2676C745.265 35.1708 751.409 31.2299 749.218 29.9825Z" fill="#CEC3ED"/>
<path d="M1234.1 259.017C1239.92 256.33 1244.81 250.961 1246.78 245.229C1250.3 234.946 1259.96 227.928 1269.71 233.412C1270.67 237.707 1265.21 235.6 1263.04 235.722C1259.83 235.904 1256.9 237.222 1255.59 240.465C1252.86 247.267 1263.27 250.07 1264.58 243.331C1261.87 242.122 1257.62 240.007 1263.84 239.675C1267.64 239.472 1269.14 242.471 1268.12 245.935C1267.24 248.899 1263.6 251.265 1268.99 252.363C1272.29 253.034 1275.65 250.556 1278.1 248.7C1284.04 244.201 1284.38 238.679 1278.42 234.237C1276.27 232.632 1273.02 230.979 1272.05 228.281C1271.05 225.495 1273.76 221.794 1277.31 223.419C1280.54 224.898 1277.21 229.274 1282.09 230.57C1286.42 231.724 1287.65 226.778 1290.37 224.213C1296.63 218.327 1304.11 223.919 1295.54 228.494C1293.06 229.815 1287.9 231.783 1289.69 235.317C1291.36 238.613 1297.08 237.218 1299.42 235.338C1301.57 233.608 1304.81 229.078 1305.35 226.212C1306.22 221.57 1302.19 221.346 1301.18 218.19C1300.05 214.664 1306.3 213.287 1312.13 212.832C1304.11 208.757 1295.03 206.457 1285.42 206.457C1254.38 206.457 1228.93 230.409 1226.56 260.842C1229.03 260.444 1231.67 260.139 1234.1 259.017Z" fill="#7967DE"/>
<path d="M1327.25 307.25C1350.31 284.192 1350.31 246.808 1327.25 223.75C1304.19 200.692 1266.81 200.692 1243.75 223.75C1220.69 246.808 1220.69 284.192 1243.75 307.25C1266.81 330.308 1304.19 330.308 1327.25 307.25Z" fill="#573FD8"/>
<path d="M1328.9 251.083C1327.82 251.076 1326.57 249.982 1325.24 250.353C1322.6 251.087 1320.17 256.504 1319.25 258.745C1315.67 267.479 1332.94 266.203 1334.27 275.637C1335.05 281.191 1331.65 285.196 1326.82 286.849C1324.14 287.765 1322.31 288.212 1319.78 290.012C1318.19 291.148 1316.84 292.602 1315.05 293.252C1317.12 292.795 1320.4 292.739 1322.37 292.774C1327.07 292.858 1327.1 293.462 1324.86 297.202C1324 298.646 1317.51 308.694 1314.63 303.787C1313.37 301.641 1317.48 299.446 1316.56 297.132C1315.1 293.49 1299.33 302.564 1301.05 293.148C1301.53 290.575 1304.65 289.998 1306.61 289.205C1309.9 287.87 1313.02 286.339 1315.73 283.969C1323.87 276.867 1315.54 265.344 1306.93 264.246C1304.23 263.9 1298.78 263.715 1298 260.195C1296.85 255.047 1302.6 257.399 1305.04 258.402C1315.95 262.893 1312.68 249.486 1315.62 242.849C1317.36 238.91 1320.92 233.845 1324.54 231.842C1326.88 230.549 1329.37 229.773 1331.34 228.386C1329.68 226.341 1327.9 224.408 1325.99 222.604C1325.26 222.961 1324.36 223.241 1323.27 223.415C1319.94 223.95 1315.78 223.02 1313.46 225.9C1311.28 228.613 1311.17 233.282 1309.48 236.421C1307.54 240.049 1304.94 243.831 1300.68 244.037C1297.77 244.18 1294.27 241.363 1291.57 242.048C1285.55 243.572 1293.9 250.828 1292.26 255.529C1290.93 259.339 1279.91 271.96 1277.29 265.036C1275.68 260.765 1286.68 252.576 1276.88 253.537C1269.72 254.239 1264.49 262.484 1257.15 261.411C1255.85 258.448 1258.93 255.536 1255.99 253.446C1253.16 251.426 1250.12 254.487 1248.87 257.102C1247.61 259.758 1247.03 264.571 1249.58 266.64C1253.01 269.422 1257.99 266.179 1261.37 265.337C1264 264.683 1268.22 264.686 1267.74 268.601C1267.17 273.208 1257.09 277.339 1253.14 276.525C1246.26 275.102 1248.92 265.592 1240.46 264.246C1235.01 263.379 1230.76 267.724 1226.77 272.337C1226.99 274.26 1227.3 276.154 1227.7 278.017C1231.28 275.417 1238.02 270.897 1240.45 271.775C1242.46 272.498 1244.03 276.497 1245.69 278.003C1247.98 280.076 1250.5 282.166 1253.53 282.47C1256.61 282.777 1260.6 281.956 1263.15 280.202C1265.57 278.527 1266.96 274.773 1270.51 275.004C1270.63 280.1 1274.26 279.59 1277.61 276.846C1282.22 273.078 1284.29 269.569 1291.16 268.992C1296.22 268.566 1304.4 269.017 1306.57 274.48C1308.54 279.44 1304.78 284.759 1299.94 286.087C1294.85 287.482 1286.64 282.529 1283.55 288.419C1279.19 296.706 1288.5 301.368 1295.04 302.371C1297.67 302.777 1302.38 301.921 1303.96 304.643C1306.99 309.897 1299.16 316.086 1294.35 315.754C1287.66 315.293 1288.64 305.87 1284.43 305.447C1279.69 304.972 1283.13 313.028 1279.28 314.612C1273.31 317.062 1275.01 308.862 1276.14 306.303C1277.94 302.214 1280.42 299.327 1278.51 294.755C1276.27 289.355 1264.13 282.606 1258.29 284.05C1253.53 285.224 1255.06 289.177 1258.18 290.893C1261.2 292.557 1266.52 292.005 1268.96 294.462C1274.36 299.879 1264.99 306.461 1259.3 306.167C1255.29 305.957 1247.58 304.039 1246.07 299.802C1245.11 297.125 1247.09 294.217 1247.23 291.61C1247.73 281.893 1235.09 277.615 1228.49 281.208C1235.37 306.192 1258.25 324.545 1285.42 324.545C1318.03 324.545 1344.46 298.111 1344.46 265.501C1344.46 259.36 1343.53 253.439 1341.79 247.875C1337.72 249.444 1332.93 251.104 1328.9 251.083Z" fill="#7967DE"/>
<path d="M1256.7 224.643C1253.37 223.335 1250.2 224.936 1247.36 226.257C1244.54 227.575 1240.82 228.208 1238.93 230.913L1240.91 233.29C1237.04 234.157 1233.06 240.469 1233.38 244.383C1233.95 251.115 1238.9 246.799 1240.5 243.185C1242.21 239.347 1244.18 234.289 1248.03 231.794C1250.63 230.113 1257.7 229.403 1256.7 224.643Z" fill="#533BD9"/>
<path d="M1278.15 317.705C1275.59 317.814 1272.44 317.925 1270.91 315.416C1268.92 312.134 1272.56 310.757 1271.81 307.384L1270.62 304.609C1268.45 308.335 1257 308.307 1257.53 312.532C1258.07 316.814 1269.55 317.828 1272.61 318.565C1274.8 319.093 1278.56 320.973 1280.93 320.061C1285.62 318.247 1280.51 317.604 1278.15 317.705Z" fill="#533BD9"/>
<path d="M1336 259.046L1330.85 257.857C1327.95 255.131 1317.57 258.668 1324.11 263.313C1327.33 265.599 1333.93 265.138 1335.91 269.038C1336.71 270.611 1334.73 274.173 1337.18 274.536C1339.07 274.816 1340.14 270.461 1340.38 269.367C1341.18 265.711 1339.7 260.636 1336 259.046Z" fill="#533BD9"/>
<path d="M1270.23 214.273C1268.52 214.318 1265.91 216.167 1266.63 218.243C1267.49 220.721 1271.54 219.53 1273.4 219.432C1276.56 219.267 1284.06 219.365 1284.16 224.119C1289.5 224.797 1287.94 219.096 1290.52 217.114C1292.27 215.762 1299.21 216.566 1294.31 212.777C1289.31 208.911 1278.58 212.693 1273 212.689L1270.23 214.273Z" fill="#533BD9"/>
<path d="M1313.01 233.985C1311.42 235.152 1310.34 238.588 1309.46 240.423L1307.87 244.782C1306.16 247.899 1291.65 246.176 1296.87 252.618C1298.45 254.575 1302.44 253.708 1304.72 253.789C1308.03 253.904 1307.89 254.544 1309.45 250.727C1311.31 246.183 1314.05 241.629 1315.78 236.858C1316.9 233.782 1316.68 231.297 1313.01 233.985Z" fill="#533BD9"/>
<path opacity="0.2" d="M1285.74 209.862C1279.24 209.173 1270.82 211.826 1264.74 213.92C1254.96 217.292 1247.65 224.024 1241.44 232.357C1231.16 246.152 1227.95 265.218 1232.34 281.642C1237.07 299.359 1252.16 315.664 1270.66 317.719C1284.18 319.219 1303.95 321.323 1313.57 310.201C1317.89 305.21 1325.58 293.505 1316.25 289.995C1307.66 286.766 1297.03 290.481 1288.04 289.115C1272.84 286.808 1261.44 278.063 1262.74 261.678C1263.31 254.478 1266.08 245.736 1271.75 240.955C1276.87 236.649 1284.04 235.474 1290.2 233.534C1295.59 231.836 1302.75 229.295 1302.38 222.539C1302.01 216.031 1297.37 215.136 1294.06 211.445L1285.74 209.862Z" fill="#DDDDF4"/>
<path opacity="0.2" d="M1273.4 224.971C1270.09 223.084 1263.77 226.429 1262.31 225.761L1258.74 226.555C1251.01 228.114 1246.73 235.618 1244.09 242.395C1242.51 246.467 1239.27 260.919 1247.65 261.035C1251.13 261.084 1252.3 256.134 1253.5 253.495C1255.48 249.158 1257.75 244.488 1260.94 240.874C1263.4 238.099 1278.94 228.128 1273.4 224.971Z" fill="#CEC3ED"/>
<g filter="url(#filter0_d_183_200)">
<path d="M1263.43 719.916C1296.52 714.899 1319.28 684.006 1314.26 650.916C1309.25 617.825 1278.35 595.067 1245.26 600.084C1212.17 605.101 1189.41 635.993 1194.43 669.084C1199.45 702.175 1230.34 724.933 1263.43 719.916Z" fill="#EB53C0"/>
<path d="M1216.62 634.193C1209.3 641.518 1207.68 648.291 1208.76 653.715C1209.84 659.139 1217.49 663.056 1228.82 660.222C1241.84 656.969 1254.04 641.245 1249.16 634.196C1244.28 627.144 1225.84 624.977 1216.62 634.193Z" fill="#A812CC"/>
<path d="M1215 639.616C1224.22 630.397 1242.65 632.567 1247.53 639.616C1248.34 640.782 1248.68 642.192 1248.62 643.738C1250.23 640.201 1250.53 636.84 1248.89 634.465C1244.01 627.416 1225.57 625.246 1216.35 634.465C1211.07 639.749 1208.76 644.743 1208.28 649.152C1209.54 646.135 1211.68 642.931 1215 639.616Z" fill="#7D0D98"/>
<path d="M1292.81 670.525C1286.89 666.698 1268.95 669.984 1264.34 677.302C1259.73 684.623 1258.92 691.673 1265.7 695.737C1272.47 699.805 1279.8 696.01 1285.76 690.858C1291.73 685.707 1302.03 676.487 1292.81 670.525Z" fill="#A812CC"/>
<path d="M1267.87 681.911C1272.48 674.59 1290.42 671.304 1296.34 675.135C1296.35 675.146 1296.37 675.156 1296.38 675.167C1296.06 673.503 1294.97 671.924 1292.81 670.525C1286.89 666.698 1268.95 669.984 1264.34 677.302C1259.96 684.254 1259.01 690.959 1264.74 695.098C1263.48 691.314 1264.87 686.672 1267.87 681.911Z" fill="#7D0D98"/>
<path d="M1277.36 620.094C1272.5 622.039 1268.68 629.583 1274.1 637.174C1279.53 644.764 1289.02 649.374 1293.62 646.935C1298.23 644.495 1302.84 633.109 1296.34 626.602C1289.83 620.094 1284.13 617.382 1277.36 620.094Z" fill="#A812CC"/>
<path d="M1296.33 626.333C1289.83 619.825 1284.13 617.113 1277.36 619.825C1275.72 620.478 1274.2 621.77 1273.12 623.481C1279.73 621.013 1285.34 623.739 1291.73 630.128C1296.6 635 1295.24 642.601 1292.32 647.143C1292.79 647.035 1293.22 646.877 1293.62 646.666C1298.23 644.226 1302.84 632.836 1296.33 626.333Z" fill="#7D0D98"/>
<path d="M1240.54 696.081C1235.9 693.692 1225.31 691.909 1218.3 695.78C1215.14 697.527 1212.83 700.343 1211.84 703.188C1221.26 712.425 1233.67 718.602 1247.46 720.145C1248.3 719 1249.17 717.566 1250.24 715.768C1252.89 711.288 1245.17 698.47 1240.54 696.081Z" fill="#A812CC"/>
<path d="M1240.56 696.009C1235.92 693.62 1225.33 691.837 1218.32 695.708C1215.16 697.455 1212.85 700.271 1211.86 703.116C1212.17 703.424 1212.49 703.726 1212.81 704.027C1213.84 702.918 1215.08 701.928 1216.48 701.15C1223.49 697.279 1234.08 699.062 1238.72 701.451C1242.5 703.399 1248.33 712.281 1248.92 717.924C1249.34 717.25 1249.78 716.514 1250.26 715.697C1252.92 711.216 1245.19 698.398 1240.56 696.009Z" fill="#7D0D98"/>
<path opacity="0.2" d="M1297.25 703.317C1321.19 679.928 1321.63 641.557 1298.25 617.619C1278.55 597.462 1248.24 593.961 1224.87 607.316C1226.18 609.193 1228.31 610.879 1231.43 612.199C1243.05 617.124 1256.88 616.73 1268.57 621.372C1293.1 631.108 1310.84 653.27 1295.37 679.099C1289.1 689.567 1277.38 698.32 1265.39 699.884C1251.58 701.688 1243.84 691.084 1236.8 680.871C1229.8 670.715 1223.35 650.077 1210.25 645.787C1206.78 644.65 1197.23 644.101 1194.81 652.05C1192.48 669.84 1198.04 688.487 1211.55 702.316C1234.94 726.261 1273.31 726.706 1297.25 703.317Z" fill="#9CE8E6"/>
<path d="M1346.22 618.47C1346.22 628.952 1337.97 637.447 1327.79 637.447C1317.61 637.447 1309.35 628.949 1309.35 618.47C1309.35 607.988 1317.61 599.493 1327.79 599.493C1337.97 599.49 1346.22 607.988 1346.22 618.47Z" fill="#B2A1ED"/>
<path opacity="0.5" d="M1327.83 599.489C1324.18 599.489 1320.78 600.587 1317.92 602.474C1326.62 603.991 1333.26 611.787 1333.26 621.182C1333.26 627.904 1329.86 633.806 1324.74 637.178C1325.75 637.354 1326.78 637.45 1327.83 637.45C1338.01 637.45 1346.27 628.952 1346.27 618.473C1346.27 607.988 1338.01 599.489 1327.83 599.489Z" fill="#204E84"/>
<path d="M1198.49 683.877C1198.49 683.877 1176.52 704.293 1186.69 712.02C1192.78 716.655 1213.93 723 1272.9 695.755C1348.35 660.893 1380.26 624.995 1385.55 611.575C1390.83 598.154 1345.99 610.412 1345.99 610.412L1345.7 611.488C1345.7 611.488 1383.81 602.803 1381.07 609.544C1371.31 633.536 1318.44 669.323 1289.16 682.743C1259.88 696.164 1218 712.838 1201.32 711.618C1185.09 710.431 1190.29 699.507 1193.19 694.539C1196.04 689.66 1198.9 684.799 1198.9 684.799L1198.49 683.877Z" fill="#9F8CE6"/>
</g>
<g filter="url(#filter1_d_183_200)">
<path d="M975.921 288.396C994.489 276.806 1000.15 252.359 988.556 233.791C976.966 215.223 952.519 209.566 933.951 221.156C915.383 232.745 909.726 257.193 921.316 275.761C932.905 294.329 957.353 299.986 975.921 288.396Z" fill="#7D0D98"/>
<path d="M986.589 237.786C982.222 238.659 972.43 247.996 968.927 243.659C967.119 241.418 967.865 236.96 965.348 235.126C962.619 233.137 958.43 235.774 955.799 236.792C953.293 237.761 947.627 239.478 945.875 236.011C944.525 233.338 948.097 231.267 949.676 229.894C953.391 226.665 956.412 223.706 959.165 219.557C960.03 218.254 960.566 216.866 961.047 215.47C957.592 214.919 954.059 214.824 950.543 215.204C950.644 216.383 948.567 216.8 948.434 218.484C948.256 220.75 950.95 220.592 948.997 223.409C947.955 224.912 945.424 226.696 943.469 226.622C940.923 226.527 940.46 225.093 937.824 226.603C937.677 226.686 935.748 228.169 935.709 228.238C935.042 229.382 935.805 229.89 935.496 230.885C934.617 233.712 932.89 231.87 930.698 233.255C928.301 234.771 929.319 236.956 929.403 239.08C929.513 241.813 928.25 244.128 925.885 245.664C923.825 247.003 921.837 246.795 919.696 245.766C918.737 245.306 917.812 244.055 916.826 243.384C913.782 253.7 914.927 265.198 920.906 275.095C921.414 273.508 921.532 271.942 920.725 270.521L919.993 267.841C918.309 262.349 921.095 254.778 927.409 257.623C930.109 258.839 932.231 260.988 935.357 259.443C939.029 257.63 939.662 252.956 941.363 249.707C943.481 245.661 947.234 243.769 951.667 244.772C954.651 245.445 960.024 248.018 959.755 251.801C959.224 259.27 946.697 254.528 944.222 260.478C940.956 268.33 954.077 264.197 957.207 264.68C966.879 266.165 961.411 276.647 955.691 280.359C953.949 281.49 951.365 282.082 949.903 283.642C947.852 285.829 946.66 289.958 945.104 292.605C945.031 292.731 944.958 292.854 944.884 292.978C951.597 294.717 958.754 294.703 965.61 292.763C963.709 288.822 970.281 287.986 972.558 286.77C978.052 283.83 969.775 279.054 973.213 274.748C974.358 273.314 977.507 271.694 978.806 273.138C980.362 274.868 977.335 279.084 980.345 279.166C983.943 279.262 981.053 275.665 982.359 274.36C983.188 273.533 984.045 274.948 985.111 274.222C986.123 273.535 985.581 272.706 986.155 271.761C987.501 269.549 989.642 267.574 992.077 268.17C995.677 258.257 995.307 247.003 990.354 237.03C989.171 237.328 987.905 237.524 986.589 237.786Z" fill="#EB53C0"/>
<path opacity="0.3" d="M936.021 260.777C934.882 260.835 934.478 261.886 933.574 262.418C931.61 263.574 929.448 263.801 927.541 262.527C925.704 261.298 923.388 261.765 922.528 264.163C921.761 266.306 923.636 268.513 924.255 270.425C924.691 271.771 925.382 276.201 923.619 276.668L923.79 276.708C923.18 278.173 924.596 279.427 925.959 279.483C927.727 279.555 928.254 277.727 928.078 276.258C927.761 273.624 926.317 270.822 926.787 268.115C927.113 266.224 929.958 266.5 931.526 265.925C933.18 265.318 935.737 264.115 936.648 262.659C937.265 261.668 937.486 260.701 936.021 260.777Z" fill="#EB53C0"/>
<path opacity="0.3" d="M969.474 231.674C968.058 229.643 966.464 228.915 964.057 228.667C962.963 228.553 961.923 228.655 960.841 228.844C959.799 229.026 958.771 229.693 957.771 229.778C956.503 229.886 955.969 229.066 956.639 227.965C957.185 227.068 958.435 226.681 959.3 226.193C960.028 225.783 962.83 223.719 960.775 223.409C959.752 223.254 957.619 224.975 956.931 225.623C954.923 227.507 952.083 228.928 950.23 231.003C950.337 231.143 950.243 231.169 950.227 231.273L949.228 232.48C948.402 233.284 949.041 234.538 950.03 234.873C951.173 235.26 952.506 234.45 953.474 233.953C955.849 232.734 957.803 231.47 960.489 231.04C962.76 230.677 965.611 231.098 967.204 232.95C967.958 233.826 969.146 238.45 970.145 238.136C972.143 237.5 970.138 232.626 969.474 231.674Z" fill="#EB53C0"/>
<path opacity="0.3" d="M929.927 230.752C929.233 230.35 927.637 231.471 927.059 231.848C925.609 232.795 925.073 234.133 924.301 235.616C923.656 236.857 922.632 239.545 921.279 240.11C920.812 239.669 921.273 236.331 919.986 238.309L919.105 240.176C917.292 241.72 920.093 243.998 921.78 243.766C924.742 243.359 925.386 241.032 925.818 238.583C926.043 237.308 926.37 236.064 926.914 234.898C927.534 233.57 928.118 233.433 929.266 232.813C929.867 232.487 931.069 231.417 929.927 230.752Z" fill="#EB53C0"/>
<path opacity="0.3" d="M981.91 231.987C980.378 230.303 976.858 230.357 974.801 229.666C972.803 228.996 970.74 230.073 972.427 232.151C972.66 232.13 972.501 231.995 972.563 231.939L972.68 232.596C973.25 233.717 973.274 235.204 972.992 236.379C972.763 237.332 971.697 238.368 971.622 239.28C971.513 240.554 972.722 241.24 973.822 240.982C975.478 240.593 975.979 238.842 977.034 237.769C978.571 236.207 984.983 235.363 981.91 231.987Z" fill="#EB53C0"/>
<path opacity="0.2" d="M957.276 241.337C951.776 239.101 944.451 240.636 939.524 243.797C937.361 245.183 935.087 247.748 933.894 250.049C932.776 252.202 932.282 253.785 929.501 253.131C925.233 252.128 920.115 251.631 917.73 256.236C916.893 257.851 916.652 259.724 916.383 261.496C916.206 262.666 916.138 262.963 916.742 264.007C917.059 264.554 918.462 266.018 918.07 264.495L917.742 263.97C917.944 259.654 920.726 253.384 926.182 254.717C927.21 254.968 927.899 255.766 928.828 256.165C929.892 256.624 930.974 256.643 932.083 256.511C935.396 256.117 937.269 253.861 938.344 250.853C940.204 245.657 946.517 242.505 951.863 243.255C956.692 243.933 966.064 248.833 962.775 254.897C961.387 257.455 958.2 258.711 955.521 259.421C953.138 260.052 949.643 259.207 948.131 261.628C947.723 262.281 947.284 263.545 948.362 263.818C949.626 264.138 949.486 262.522 949.962 261.978C951.302 260.456 955.336 260.698 957.188 260.209C959.239 259.667 961.614 258.943 963.368 257.704C964.905 256.617 966.109 253.438 965.726 251.588C964.878 247.5 961.128 242.901 957.276 241.337Z" fill="white"/>
<path opacity="0.2" d="M961.08 262.058C958.222 260.949 954.834 261.8 952.072 262.559L951.587 262.715C950.66 264.101 953.14 263.201 953.566 263.078C954.875 262.707 956.199 262.856 957.51 263.1C960.228 263.605 962.086 265.203 963.605 267.454C965.544 270.331 965.976 273.798 963.835 276.667C962.307 278.712 959.734 280.717 957.541 282.086C955.678 283.249 953.526 284.312 951.998 285.847C950.836 287.012 948.695 288.951 949.146 290.83C949.372 291.773 950.195 292.125 951.097 291.661C952.065 291.165 951.841 290.204 952.29 289.346C953.303 287.402 956.037 285.884 957.693 284.474C961.638 281.119 967.716 278.14 968.02 272.185C968.26 267.425 965.301 263.694 961.08 262.058Z" fill="white"/>
<path opacity="0.2" d="M991.298 263.642C989.816 262.499 986.213 264.875 985.014 265.701C983.494 266.749 981.777 268.988 979.87 268.696C977.118 268.276 975.763 267.407 973.162 268.942C971.213 270.092 969.329 273.541 968.91 275.719C968.393 278.409 969.347 280.696 967.391 283.064C965.396 285.477 961.015 286.098 959.721 289.08C958.648 291.552 962.639 294.764 963.054 292.088L963.461 292.271C961.33 289.522 964.725 286.338 967.235 285.385C968.481 284.912 970.061 284.998 971.168 284.247C973.062 282.956 971.914 281.422 971.448 279.724C970.425 276.007 971.907 272.48 975.055 270.57C976.029 269.979 977.671 268.935 978.686 270.057C979.501 270.959 978.619 272.018 980.197 272.441C981.252 272.723 982.261 272.173 982.384 271.12C982.467 271.245 982.581 271.37 982.665 271.495C983.512 270.787 983.65 269.423 984.481 268.6C985.385 267.704 986.71 267.195 987.901 266.822C988.771 266.55 990.405 266.642 991.114 266.103C991.753 265.615 992.035 264.211 991.298 263.642Z" fill="white"/>
<path opacity="0.2" d="M983.811 242.015C980.081 243.939 975.847 248.56 971.353 247.275C968.495 246.459 966.591 241.61 965.225 239.15C964.461 237.776 963.276 235.855 961.516 235.795C961.001 235.776 959.668 236.1 959.348 236.531C958.728 237.372 959.54 237.695 960.154 237.348L961.297 237.071C963.779 237.649 964.365 240.156 964.948 242.392C965.66 245.128 967.008 248.222 969.505 249.808C972.125 251.472 975.942 249.922 978.36 248.487C980.478 247.229 981.877 245 984.311 244.22C986.163 243.625 988.85 244.252 989.371 241.794C990.024 238.734 985.05 241.377 983.811 242.015Z" fill="white"/>
<path opacity="0.2" d="M957.388 216.28C956.999 215.962 956.401 215.912 956.017 215.966L956.173 216.452C956.972 218.794 953.6 221.961 952.145 223.392C949.411 226.074 946.381 228.292 943.566 230.898C941.704 232.624 939.366 236.282 941.196 238.807C941.777 239.609 943.057 239.941 943.872 239.297C944.996 238.407 943.922 237.955 943.522 236.919C942.721 234.852 944.882 232.723 946.291 231.528C948.186 229.925 950.135 228.612 951.693 226.594C953.105 224.767 954.716 223.236 956.09 221.471C957.017 220.276 959.207 217.764 957.388 216.28Z" fill="white"/>
<g opacity="0.2">
<path opacity="0.2" d="M969.328 269.131C969.276 269.044 969.235 268.957 969.197 268.864L969.15 268.847C969.208 268.943 969.269 269.038 969.328 269.131Z" fill="white"/>
<path opacity="0.2" d="M990.87 257.809C988.396 257.359 984.503 259.54 982.642 260.981C981.012 262.242 979.753 264.079 977.496 263.936C974.677 263.757 972.062 262.339 970.086 265.016C969.33 266.038 968.684 267.636 969.197 268.87L969.729 269.074C969.573 269.307 969.472 269.5 969.633 269.834C970.667 269.744 971.076 268.068 971.741 267.379C972.488 266.605 973.633 265.927 974.652 265.672C975.549 265.447 976.959 265.416 977.867 265.715C978.926 266.064 979.352 266.981 980.504 266.439C982.354 265.57 982.935 263.199 984.959 262.339C987 261.472 988.778 262.348 990.821 262.378C993.825 262.419 993.568 258.299 990.87 257.809Z" fill="white"/>
</g>
<path opacity="0.2" d="M927.837 250.16C927.904 250.069 927.896 249.999 927.882 249.927C927.866 250.004 927.85 250.08 927.837 250.16Z" fill="white"/>
<path opacity="0.2" d="M927.884 249.929C927.895 249.881 927.906 249.832 927.922 249.786L927.865 249.758C927.855 249.822 927.872 249.875 927.884 249.929Z" fill="white"/>
<path opacity="0.2" d="M939.426 228.186C937.802 228.304 938.538 229.404 938.459 230.438C938.3 232.501 936.192 233.833 935.068 235.364C933.615 237.339 933.252 239.474 933.379 241.79C933.491 243.852 932.274 245.859 930.81 247.223C929.704 248.256 928.338 248.335 927.92 249.788L928.508 250.087C928.65 252.775 933.454 247.511 933.832 246.911C935.384 244.435 935.084 241.903 935.44 239.186C935.724 237.026 937.024 235.463 938.454 233.948C939.412 232.935 941.788 231.101 941.333 229.482C941.115 228.711 940.248 228.124 939.426 228.186Z" fill="white"/>
<path opacity="0.5" d="M975.92 288.46C994.653 276.767 1000.43 252.211 988.825 233.614C979.052 217.958 960.074 211.518 943.137 216.851C943.714 218.236 944.842 219.614 946.659 220.895C953.421 225.662 962.366 227.322 969.218 231.919C983.588 241.56 991.824 258.234 978.178 272.664C972.65 278.512 963.865 282.505 955.934 281.852C946.803 281.1 943.342 273.224 940.281 265.698C937.239 258.214 936.041 244.08 928.238 239.514C926.17 238.305 920.112 236.632 917.417 241.398C913.373 252.49 914.277 265.22 920.983 275.963C932.587 294.558 957.184 300.155 975.92 288.46Z" fill="#FF71F8"/>
<path opacity="0.2" d="M943.61 284.957C938.722 282.557 935.103 278.4 931.866 274.104C928.507 269.649 926.02 264.436 924.325 259.164C923.257 255.84 923.739 246.905 920.065 248.236C916.526 249.518 915.955 258.813 917.626 263.088C920.817 271.254 925.624 277.751 932.227 283.544C935.02 285.993 937.608 287.871 940.864 289.597C942.377 290.398 943.664 291.096 945.445 290.98C946.497 290.912 948.84 290.824 949.644 290.339C953.236 288.18 945.058 285.668 943.61 284.957Z" fill="white"/>
</g>
<g filter="url(#filter2_d_183_200)">
<path d="M1383 57.0474C1394.98 49.5678 1398.63 33.7902 1391.15 21.8071C1383.67 9.82402 1367.89 6.17321 1355.91 13.6528C1343.93 21.1324 1340.28 36.91 1347.76 48.8931C1355.24 60.8762 1371.01 64.527 1383 57.0474Z" fill="#7D0D98"/>
<path d="M1389.88 24.3859C1387.06 24.9492 1380.74 30.9747 1378.48 28.1757C1377.32 26.73 1377.8 23.8524 1376.17 22.6689C1374.41 21.3856 1371.71 23.0874 1370.01 23.7439C1368.39 24.3697 1364.74 25.4775 1363.61 23.2401C1362.73 21.5154 1365.04 20.1784 1366.06 19.2923C1368.46 17.2087 1370.41 15.2993 1372.18 12.6215C1372.74 11.7804 1373.09 10.8846 1373.4 9.9839C1371.17 9.62839 1368.89 9.56669 1366.62 9.81202C1366.68 10.5731 1365.34 10.8421 1365.26 11.9289C1365.14 13.3912 1366.88 13.2892 1365.62 15.1075C1364.95 16.0771 1363.31 17.2287 1362.05 17.1808C1360.41 17.1193 1360.11 16.1941 1358.41 17.1685C1358.32 17.2224 1357.07 18.1795 1357.04 18.2241C1356.61 18.9619 1357.11 19.2901 1356.91 19.9319C1356.34 21.7567 1355.23 20.5679 1353.81 21.4615C1352.26 22.4397 1352.92 23.85 1352.98 25.2208C1353.05 26.9845 1352.23 28.4783 1350.71 29.4702C1349.38 30.334 1348.09 30.1997 1346.71 29.5361C1346.09 29.2389 1345.5 28.4317 1344.86 27.9988C1342.89 34.6562 1343.63 42.0766 1347.49 48.4638C1347.82 47.4397 1347.9 46.4287 1347.37 45.5115L1346.9 43.7824C1345.82 40.2377 1347.61 35.3515 1351.69 37.1878C1353.43 37.9724 1354.8 39.3595 1356.82 38.3626C1359.19 37.1922 1359.6 34.1759 1360.69 32.0793C1362.06 29.4681 1364.48 28.2472 1367.34 28.8939C1369.27 29.3286 1372.74 30.9891 1372.56 33.4302C1372.22 38.2508 1364.14 35.1902 1362.54 39.0304C1360.43 44.0976 1368.9 41.4306 1370.92 41.742C1377.16 42.7006 1373.63 49.4653 1369.94 51.8605C1368.82 52.5905 1367.15 52.9728 1366.21 53.9796C1364.88 55.391 1364.11 58.0558 1363.11 59.7641C1363.06 59.8455 1363.01 59.9247 1362.97 60.0048C1367.3 61.1271 1371.92 61.1178 1376.34 59.8658C1375.12 57.3226 1379.36 56.7832 1380.83 55.998C1384.37 54.1008 1379.03 51.0186 1381.25 48.2398C1381.99 47.3142 1384.02 46.269 1384.86 47.2003C1385.86 48.3173 1383.91 51.0377 1385.85 51.0906C1388.17 51.1531 1386.31 48.8314 1387.15 47.9892C1387.69 47.4557 1388.24 48.3684 1388.93 47.9001C1389.58 47.4567 1389.23 46.9219 1389.6 46.3121C1390.47 44.8846 1391.85 43.6098 1393.42 43.9943C1395.75 37.5968 1395.51 30.3338 1392.31 23.8975C1391.55 24.0902 1390.73 24.2165 1389.88 24.3859Z" fill="#EB53C0"/>
<path opacity="0.3" d="M1357.25 39.2234C1356.51 39.261 1356.25 39.9392 1355.67 40.2822C1354.4 41.0285 1353 41.1748 1351.77 40.3527C1350.59 39.5597 1349.09 39.861 1348.54 41.4084C1348.04 42.7917 1349.25 44.2157 1349.65 45.4497C1349.93 46.3182 1350.38 49.1774 1349.24 49.4789L1349.35 49.5045C1348.96 50.4497 1349.87 51.259 1350.75 51.2954C1351.89 51.3419 1352.23 50.1623 1352.12 49.2141C1351.92 47.514 1350.98 45.706 1351.29 43.9586C1351.5 42.7382 1353.33 42.9168 1354.35 42.5456C1355.41 42.1541 1357.06 41.3777 1357.65 40.4379C1358.05 39.7982 1358.19 39.174 1357.25 39.2234Z" fill="#EB53C0"/>
<path opacity="0.3" d="M1378.84 20.4413C1377.92 19.1308 1376.89 18.6609 1375.34 18.5005C1374.63 18.4272 1373.96 18.4928 1373.26 18.6147C1372.59 18.7327 1371.93 19.1627 1371.28 19.2177C1370.46 19.2877 1370.12 18.7585 1370.55 18.0477C1370.91 17.4688 1371.71 17.2191 1372.27 16.9044C1372.74 16.6395 1374.55 15.3074 1373.22 15.1071C1372.56 15.0071 1371.18 16.1181 1370.74 16.5363C1369.45 17.7519 1367.61 18.6694 1366.42 20.0082C1366.49 20.0989 1366.42 20.1155 1366.41 20.1825L1365.77 20.9617C1365.24 21.4801 1365.65 22.2899 1366.29 22.5056C1367.02 22.7555 1367.89 22.2326 1368.51 21.9123C1370.04 21.1252 1371.3 20.3094 1373.04 20.0325C1374.5 19.7979 1376.34 20.0699 1377.37 21.2649C1377.86 21.8302 1378.62 24.8142 1379.27 24.6117C1380.56 24.2013 1379.26 21.0557 1378.84 20.4413Z" fill="#EB53C0"/>
<path opacity="0.3" d="M1353.31 19.8466C1352.87 19.587 1351.84 20.3102 1351.46 20.5536C1350.53 21.1645 1350.18 22.0284 1349.68 22.9856C1349.27 23.786 1348.61 25.521 1347.73 25.886C1347.43 25.6009 1347.73 23.4467 1346.9 24.7237L1346.33 25.9283C1345.16 26.9246 1346.97 28.3946 1348.06 28.2453C1349.97 27.9821 1350.38 26.4805 1350.66 24.9C1350.81 24.0776 1351.02 23.2748 1351.37 22.522C1351.77 21.6652 1352.15 21.5765 1352.89 21.1765C1353.28 20.9663 1354.05 20.2754 1353.31 19.8466Z" fill="#EB53C0"/>
<path opacity="0.3" d="M1386.86 20.6436C1385.87 19.5565 1383.6 19.5912 1382.27 19.1456C1380.98 18.7132 1379.65 19.4085 1380.74 20.7494C1380.89 20.7359 1380.79 20.6483 1380.83 20.6126L1380.9 21.0366C1381.27 21.7602 1381.29 22.7198 1381.11 23.4776C1380.96 24.0929 1380.27 24.7612 1380.22 25.35C1380.15 26.1722 1380.93 26.6153 1381.64 26.4488C1382.71 26.1973 1383.03 25.0676 1383.71 24.3747C1384.71 23.3668 1388.84 22.8221 1386.86 20.6436Z" fill="#EB53C0"/>
<path opacity="0.2" d="M1370.96 26.6776C1367.41 25.2343 1362.69 26.2251 1359.51 28.2652C1358.11 29.1597 1356.64 30.8146 1355.87 32.3001C1355.15 33.6892 1354.83 34.711 1353.04 34.2892C1350.28 33.6419 1346.98 33.3206 1345.44 36.2929C1344.9 37.335 1344.75 38.544 1344.57 39.6874C1344.46 40.4423 1344.41 40.6342 1344.8 41.308C1345.01 41.6607 1345.91 42.6054 1345.66 41.6228L1345.45 41.2837C1345.58 38.4985 1347.38 34.4524 1350.9 35.3122C1351.56 35.4745 1352 35.9894 1352.6 36.2469C1353.29 36.5431 1353.99 36.5552 1354.71 36.4704C1356.84 36.2157 1358.05 34.7601 1358.75 32.8186C1359.95 29.4656 1364.02 27.4313 1367.47 27.9155C1370.59 28.3531 1376.64 31.5153 1374.51 35.4284C1373.62 37.0794 1371.56 37.8903 1369.83 38.3484C1368.29 38.7552 1366.04 38.2103 1365.06 39.7724C1364.8 40.1938 1364.52 41.0096 1365.21 41.1859C1366.03 41.3923 1365.94 40.3494 1366.24 39.9986C1367.11 39.0162 1369.71 39.1725 1370.91 38.8567C1372.23 38.507 1373.76 38.0396 1374.9 37.24C1375.89 36.5388 1376.66 34.4867 1376.42 33.2933C1375.87 30.6546 1373.45 27.687 1370.96 26.6776Z" fill="white"/>
<path opacity="0.2" d="M1373.42 40.0503C1371.57 39.3345 1369.39 39.8836 1367.61 40.3733L1367.29 40.4744C1366.69 41.3689 1368.29 40.7876 1368.57 40.7085C1369.41 40.4687 1370.27 40.5654 1371.11 40.7227C1372.87 41.0484 1374.07 42.0796 1375.05 43.5327C1376.3 45.3894 1376.58 47.6265 1375.2 49.478C1374.21 50.7983 1372.55 52.092 1371.13 52.9755C1369.93 53.7258 1368.54 54.4122 1367.56 55.4027C1366.81 56.1544 1365.43 57.4061 1365.72 58.6184C1365.86 59.227 1366.39 59.4542 1366.98 59.1549C1367.6 58.8346 1367.46 58.2144 1367.75 57.6606C1368.4 56.4064 1370.16 55.4267 1371.23 54.5168C1373.78 52.3511 1377.7 50.4291 1377.9 46.5855C1378.05 43.5137 1376.14 41.1058 1373.42 40.0503Z" fill="white"/>
<path opacity="0.2" d="M1392.92 41.0724C1391.96 40.3345 1389.64 41.8679 1388.86 42.4009C1387.88 43.0773 1386.78 44.522 1385.54 44.3338C1383.77 44.0625 1382.89 43.5019 1381.22 44.4925C1379.96 45.2346 1378.74 47.4608 1378.47 48.8664C1378.14 50.6024 1378.75 52.0778 1377.49 53.6065C1376.2 55.1635 1373.38 55.5643 1372.54 57.4886C1371.85 59.0844 1374.42 61.1572 1374.69 59.4302L1374.96 59.5481C1373.58 57.7739 1375.77 55.7193 1377.39 55.1042C1378.19 54.7989 1379.21 54.8547 1379.93 54.3695C1381.15 53.5369 1380.41 52.5468 1380.11 51.4509C1379.45 49.052 1380.41 46.7755 1382.44 45.5434C1383.07 45.1614 1384.13 44.4879 1384.78 45.212C1385.31 45.7941 1384.74 46.4778 1385.76 46.7508C1386.44 46.9325 1387.09 46.5777 1387.17 45.8983C1387.22 45.9789 1387.29 46.0597 1387.35 46.1402C1387.9 45.6832 1387.98 44.8028 1388.52 44.2719C1389.1 43.6936 1389.96 43.3651 1390.73 43.1244C1391.29 42.9488 1392.34 43.0082 1392.8 42.6602C1393.21 42.3457 1393.4 41.4395 1392.92 41.0724Z" fill="white"/>
<path opacity="0.2" d="M1388.09 27.1151C1385.68 28.357 1382.95 31.3389 1380.05 30.5095C1378.2 29.9828 1376.98 26.8535 1376.09 25.2659C1375.6 24.3794 1374.84 23.1398 1373.7 23.1011C1373.37 23.089 1372.51 23.2976 1372.3 23.5762C1371.9 24.1188 1372.42 24.3269 1372.82 24.1031L1373.56 23.9244C1375.16 24.2972 1375.54 25.9155 1375.91 27.3586C1376.37 29.1242 1377.24 31.1211 1378.86 32.1445C1380.55 33.2182 1383.01 32.2179 1384.57 31.2922C1385.94 30.4799 1386.84 29.0417 1388.41 28.538C1389.61 28.1542 1391.34 28.5587 1391.68 26.9728C1392.1 24.9978 1388.89 26.7034 1388.09 27.1151Z" fill="white"/>
<path opacity="0.2" d="M1371.04 10.5065C1370.78 10.3011 1370.4 10.2689 1370.15 10.3039L1370.25 10.6174C1370.77 12.1289 1368.59 14.1726 1367.65 15.096C1365.89 16.8273 1363.93 18.2583 1362.12 19.9402C1360.91 21.0544 1359.41 23.4151 1360.59 25.0444C1360.96 25.5619 1361.79 25.7762 1362.31 25.3605C1363.04 24.7865 1362.35 24.4944 1362.09 23.8258C1361.57 22.4919 1362.97 21.118 1363.87 20.3471C1365.1 19.3125 1366.36 18.465 1367.36 17.1626C1368.27 15.9834 1369.31 14.9954 1370.2 13.8566C1370.8 13.0851 1372.21 11.4639 1371.04 10.5065Z" fill="white"/>
<g opacity="0.2">
<path opacity="0.2" d="M1378.74 44.615C1378.71 44.5589 1378.68 44.5023 1378.66 44.4427L1378.63 44.4313C1378.66 44.4937 1378.7 44.5546 1378.74 44.615Z" fill="white"/>
<path opacity="0.2" d="M1392.64 37.3079C1391.05 37.0176 1388.54 38.4252 1387.33 39.3551C1386.28 40.1688 1385.47 41.3543 1384.01 41.2623C1382.19 41.1468 1380.51 40.2312 1379.23 41.959C1378.74 42.6187 1378.33 43.6498 1378.66 44.4462L1379 44.5783C1378.9 44.7286 1378.83 44.8531 1378.94 45.0684C1379.61 45.0107 1379.87 43.9288 1380.3 43.4842C1380.78 42.9849 1381.52 42.547 1382.18 42.3827C1382.76 42.2375 1383.67 42.2173 1384.25 42.4101C1384.94 42.6352 1385.21 43.2274 1385.95 42.8775C1387.15 42.3163 1387.52 40.7866 1388.83 40.2317C1390.15 39.6718 1391.29 40.2372 1392.61 40.2566C1394.55 40.2833 1394.39 37.624 1392.64 37.3079Z" fill="white"/>
</g>
<path opacity="0.2" d="M1351.96 32.3719C1352.01 32.3127 1352 32.2676 1351.99 32.2215C1351.98 32.2708 1351.97 32.3201 1351.96 32.3719Z" fill="white"/>
<path opacity="0.2" d="M1351.99 32.223C1352 32.1917 1352.01 32.1604 1352.02 32.1309L1351.98 32.1125C1351.98 32.1539 1351.99 32.1883 1351.99 32.223Z" fill="white"/>
<path opacity="0.2" d="M1359.44 18.1908C1358.4 18.2669 1358.87 18.9768 1358.82 19.6441C1358.72 20.9753 1357.36 21.8352 1356.63 22.8234C1355.69 24.0976 1355.46 25.4753 1355.54 26.97C1355.61 28.301 1354.83 29.5962 1353.88 30.4765C1353.17 31.1433 1352.29 31.1941 1352.02 32.1317L1352.4 32.325C1352.49 34.0595 1355.59 30.6626 1355.83 30.275C1356.84 28.6771 1356.64 27.0433 1356.87 25.29C1357.05 23.8961 1357.89 22.8869 1358.82 21.9093C1359.43 21.2556 1360.97 20.072 1360.67 19.0272C1360.53 18.5297 1359.97 18.1508 1359.44 18.1908Z" fill="white"/>
<path opacity="0.5" d="M1383 57.0892C1395.09 49.5429 1398.82 33.6951 1391.32 21.6937C1385.02 11.5894 1372.77 7.43328 1361.84 10.8754C1362.21 11.7693 1362.94 12.6587 1364.11 13.4849C1368.48 16.5617 1374.25 17.6327 1378.67 20.5998C1387.94 26.8214 1393.26 37.5821 1384.45 46.8948C1380.89 50.6692 1375.22 53.2462 1370.1 52.8246C1364.2 52.339 1361.97 47.2562 1360 42.3993C1358.03 37.5691 1357.26 28.4475 1352.22 25.501C1350.89 24.7207 1346.98 23.6414 1345.24 26.7169C1342.63 33.8755 1343.21 42.0907 1347.54 49.0239C1355.03 61.0248 1370.9 64.6363 1383 57.0892Z" fill="#FF71F8"/>
<path opacity="0.2" d="M1362.14 54.8279C1358.99 53.2792 1356.65 50.596 1354.57 47.8236C1352.4 44.9484 1350.79 41.5848 1349.7 38.1822C1349.01 36.037 1349.32 30.2706 1346.95 31.1296C1344.67 31.9572 1344.3 37.9554 1345.37 40.7148C1347.43 45.9847 1350.54 50.1772 1354.8 53.916C1356.6 55.4967 1358.27 56.7085 1360.37 57.8222C1361.35 58.3393 1362.18 58.7898 1363.33 58.715C1364.01 58.6711 1365.52 58.6144 1366.04 58.3014C1368.36 56.9081 1363.08 55.287 1362.14 54.8279Z" fill="white"/>
</g>
<g filter="url(#filter3_d_183_200)">
<path opacity="0.1" d="M531.44 245.831C547.385 209.115 530.547 166.425 493.831 150.48C457.115 134.535 414.425 151.373 398.48 188.089C382.535 224.805 399.373 267.495 436.089 283.44C472.805 299.385 515.495 282.547 531.44 245.831Z" fill="#9CE8E6"/>
<path d="M483.346 264.991C508.681 254.998 521.119 226.359 511.126 201.024C501.133 175.689 472.494 163.251 447.159 173.244C421.823 183.237 409.386 211.876 419.379 237.211C429.372 262.547 458.011 274.984 483.346 264.991Z" fill="#7D0D98"/>
<path d="M447.077 173.038C445.592 173.623 444.149 174.277 442.754 174.988C438.231 186.267 437.84 199.231 442.651 211.429C452.645 236.765 481.283 249.202 506.619 239.208C508.104 238.623 509.544 237.97 510.942 237.258C515.468 225.978 515.856 213.015 511.045 200.817C501.054 175.48 472.413 163.044 447.077 173.038Z" fill="#A812CC"/>
<path d="M452.349 264.681C452.054 264.998 451.602 265.515 451.033 266.157C454.171 267.097 457.408 267.728 460.699 268.03C471.855 253.852 483.147 239.774 494.482 225.735C500.311 218.516 506.319 211.439 512.288 204.337C511.921 203.158 511.511 201.983 511.051 200.818C510.583 199.631 510.072 198.471 509.526 197.34C498.621 207.691 490.055 219.991 480.5 231.687C471.386 242.838 462.188 254.166 452.349 264.681Z" fill="#204E84"/>
<path d="M416.36 225.994C420.217 222.86 423.734 219.213 427.431 215.882C437.553 206.752 447.268 197.347 457.042 187.831C462.005 182.999 467.057 178.424 472.232 173.835C472.866 173.271 474.481 172.097 476.001 170.795C473.196 170.16 470.327 169.769 467.426 169.637C466.435 170.172 465.443 170.76 464.439 171.395C455.019 177.332 445.788 183.286 437.66 190.97C432.726 195.637 427.893 200.314 422.744 204.739C420.572 206.606 418.477 208.408 416.581 210.483C415.695 215.54 415.596 220.769 416.36 225.994Z" fill="#204E84"/>
<path d="M462.207 196.573C449.699 209.439 437.017 221.703 423.355 233.377C422.329 234.252 420.846 235.543 419.174 236.683C419.216 236.789 419.256 236.899 419.298 237.005C420.518 240.098 422.015 242.996 423.751 245.685C436.569 230.512 451.355 217.306 465.78 203.652C474.76 195.152 483.582 186.755 491.357 177.124C489.635 176.046 487.849 175.074 486.012 174.218C483.798 175.957 481.713 177.878 479.712 179.712C473.795 185.14 467.8 190.818 462.207 196.573Z" fill="#204E84"/>
<path d="M488.228 198.174C476.006 212.663 464.563 227.808 450.756 240.886C445.063 246.279 439.27 251.84 432.455 255.82C435.238 258.284 438.28 260.411 441.512 262.177C448.309 253.339 455.476 244.707 462.653 236.187C472.977 223.928 483.985 212.318 494.765 200.476C498.163 196.744 501.187 192.674 503.967 188.458C502.943 187.152 501.859 185.907 500.72 184.721C500.31 185.131 499.918 185.521 499.553 185.875C495.54 189.752 491.83 193.901 488.228 198.174Z" fill="#204E84"/>
<path d="M467.311 172.218L466.762 172.434C463.261 175.506 459.397 177.994 455.35 180.456C449.731 183.878 444.379 187.924 439.22 191.996C437.873 193.061 425.882 203.617 428.892 205.838C431.237 207.568 440.759 196.934 442.378 195.492C451.117 187.702 459.814 179.784 469.081 172.759C468.923 171.754 468.06 171.699 467.311 172.218Z" fill="#2D70B2"/>
<path d="M483.084 182.668L482.572 182.914C479.357 186.012 475.774 188.624 472.02 191.231C466.802 194.852 461.866 199.005 457.112 203.165C455.871 204.25 444.866 214.895 447.814 216.588C450.114 217.906 458.765 207.436 460.251 205.984C468.269 198.139 476.242 190.184 484.79 182.975C484.6 182.096 483.779 182.131 483.084 182.668Z" fill="#2D70B2"/>
<path d="M465.561 229.408C472.586 220.885 480.152 212.874 487.631 204.824C489.014 203.334 498.732 194.543 497.946 192.422C496.938 189.7 486.772 200.738 485.718 201.98C481.688 206.726 477.638 211.647 473.99 216.807C471.364 220.523 468.756 224.071 465.796 227.297L465.526 227.799C464.994 228.486 464.86 229.27 465.561 229.408Z" fill="#2D70B2"/>
<path d="M470.761 249.806C477.786 241.283 485.352 233.272 492.83 225.223C494.213 223.733 503.932 214.942 503.145 212.82C502.137 210.098 491.972 221.137 490.917 222.378C486.887 227.125 482.837 232.045 479.19 237.205C476.564 240.921 473.956 244.47 470.995 247.696L470.726 248.198C470.194 248.887 470.061 249.671 470.761 249.806Z" fill="#2D70B2"/>
<path d="M511.291 259.193C506.914 260.92 500.824 258.916 500.546 258.825C500.025 258.651 499.747 258.089 499.922 257.568C500.096 257.048 500.66 256.768 501.178 256.944C501.243 256.965 507.701 259.081 511.303 256.995C512.488 256.308 513.21 255.242 513.512 253.742C514.119 250.713 513.291 245.034 505.912 235.188C498.32 225.057 485.525 212.835 467.883 198.856C436.114 173.69 419.841 176.685 415.61 178.201C412.574 179.288 410.548 181.232 410.052 183.537C409.154 187.707 415.316 196.655 417.765 199.752C418.105 200.183 418.034 200.807 417.603 201.147C417.173 201.489 416.548 201.416 416.208 200.985C415.246 199.77 406.851 188.954 408.111 183.12C408.756 180.132 411.244 177.657 414.939 176.334C418.596 175.024 425.136 174.189 435.524 177.654C445.598 181.014 456.898 187.625 469.114 197.298C486.891 211.38 499.805 223.724 507.499 233.994C513.775 242.37 516.453 249.143 515.456 254.127C515.043 256.191 513.98 257.735 512.293 258.71C511.974 258.896 511.639 259.056 511.291 259.193Z" fill="#EB53C0"/>
<g opacity="0.7">
<path opacity="0.7" d="M511.51 271.119C510.117 271.669 508.617 271.843 507.03 271.638C499.974 270.718 493.577 262.377 493.309 262.022C492.793 261.343 492.926 260.375 493.607 259.858C494.286 259.345 495.254 259.475 495.77 260.156C495.828 260.231 501.661 267.827 507.435 268.575C509.122 268.795 510.599 268.388 511.948 267.335C512.608 266.82 512.825 265.693 512.89 264.839C513.319 259.244 509.051 247.509 501.474 233.446C494.09 219.746 484.779 206.21 477.172 198.117C444.091 162.937 429.674 159.966 423.408 163.668C417.488 167.164 423.191 182.036 425.889 187.47C426.269 188.233 425.957 189.16 425.193 189.539C424.43 189.919 423.503 189.607 423.124 188.843C423.016 188.625 420.448 183.428 418.896 177.513C416.672 169.026 417.661 163.474 421.838 161.008C424.841 159.233 428.569 158.883 432.911 159.963C436.818 160.936 441.354 163.11 446.39 166.427C455.49 172.418 466.604 182.369 479.425 196.002C487.322 204.4 496.584 217.849 504.197 231.98C507.965 238.972 516.653 256.193 515.974 265.075C515.809 267.221 515.095 268.798 513.852 269.769C513.108 270.348 512.325 270.798 511.51 271.119Z" fill="#EB53C0"/>
</g>
</g>
<path d="M91.0966 695.017C96.9196 692.33 101.809 686.961 103.777 681.229C107.304 670.946 116.958 663.928 126.709 669.412C127.67 673.707 122.207 671.6 120.044 671.722C116.828 671.904 113.896 673.222 112.592 676.465C109.859 683.267 120.271 686.07 121.578 679.331C118.869 678.122 114.616 676.007 120.837 675.675C124.643 675.472 126.136 678.471 125.115 681.935C124.241 684.899 120.603 687.265 125.989 688.363C129.285 689.034 132.647 686.556 135.101 684.7C141.043 680.201 141.375 674.679 135.422 670.237C133.273 668.632 130.019 666.979 129.051 664.281C128.055 661.495 130.76 657.794 134.311 659.419C137.537 660.898 134.206 665.274 139.085 666.57C143.423 667.724 144.646 662.778 147.372 660.213C153.629 654.327 161.109 659.919 152.535 664.494C150.064 665.815 144.901 667.783 146.691 671.317C148.362 674.613 154.076 673.218 156.418 671.338C158.575 669.608 161.811 665.078 162.349 662.212C163.223 657.57 159.193 657.346 158.183 654.19C157.054 650.664 163.296 649.287 169.13 648.832C161.109 644.757 152.032 642.457 142.42 642.457C111.379 642.457 85.9343 666.409 83.5576 696.842C86.0322 696.444 88.671 696.139 91.0966 695.017Z" fill="#7967DE"/>
<path d="M184.25 743.25C207.308 720.192 207.308 682.808 184.25 659.75C161.192 636.692 123.808 636.692 100.75 659.75C77.6921 682.808 77.6921 720.192 100.75 743.25C123.808 766.308 161.192 766.308 184.25 743.25Z" fill="#573FD8"/>
<path d="M185.9 687.083C184.824 687.076 183.572 685.982 182.244 686.353C179.602 687.087 177.173 692.504 176.253 694.745C172.671 703.479 189.937 702.203 191.269 711.637C192.052 717.191 188.654 721.196 183.82 722.849C181.143 723.765 179.308 724.212 176.785 726.012C175.194 727.148 173.838 728.602 172.052 729.252C174.118 728.795 177.396 728.739 179.371 728.774C184.065 728.858 184.1 729.462 181.863 733.202C181 734.646 174.506 744.694 171.626 739.787C170.368 737.641 174.478 735.446 173.555 733.132C172.101 729.49 156.327 738.564 158.054 729.148C158.526 726.575 161.654 725.998 163.611 725.205C166.904 723.87 170.018 722.339 172.734 719.969C180.871 712.867 172.542 701.344 163.929 700.246C161.228 699.9 155.779 699.715 154.996 696.195C153.849 691.047 159.599 693.399 162.039 694.402C172.954 698.893 169.682 685.486 172.618 678.849C174.359 674.91 177.924 669.845 181.542 667.842C183.88 666.549 186.368 665.773 188.336 664.386C186.683 662.341 184.897 660.408 182.989 658.604C182.262 658.961 181.363 659.241 180.273 659.415C176.935 659.95 172.776 659.02 170.458 661.9C168.277 664.613 168.169 669.282 166.484 672.421C164.538 676.049 161.944 679.831 157.68 680.037C154.765 680.18 151.273 677.363 148.568 678.048C142.546 679.572 150.896 686.828 149.257 691.529C147.929 695.339 136.912 707.96 134.294 701.036C132.679 696.765 143.682 688.576 133.885 689.537C126.72 690.239 121.487 698.484 114.155 697.411C112.851 694.448 115.934 691.536 112.994 689.446C110.156 687.426 107.119 690.487 105.875 693.102C104.606 695.758 104.033 700.571 106.581 702.64C110.006 705.422 114.986 702.179 118.37 701.337C120.998 700.683 125.217 700.686 124.738 704.601C124.172 709.208 114.092 713.339 110.139 712.525C103.257 711.102 105.916 701.592 97.4582 700.246C92.0127 699.379 87.7626 703.724 83.7676 708.337C83.9878 710.26 84.3023 712.154 84.7043 714.017C88.2763 711.417 95.0221 706.897 97.4547 707.775C99.4575 708.498 101.03 712.497 102.694 714.003C104.983 716.076 107.496 718.166 110.53 718.47C113.609 718.777 117.604 717.956 120.145 716.202C122.571 714.527 123.962 710.773 127.506 711.004C127.632 716.1 131.264 715.59 134.612 712.846C139.215 709.078 141.295 705.569 148.159 704.992C153.217 704.566 161.399 705.017 163.569 710.48C165.541 715.44 161.776 720.759 156.936 722.087C151.85 723.482 143.64 718.529 140.547 724.419C136.192 732.706 145.496 737.368 152.042 738.371C154.674 738.777 159.382 737.921 160.955 740.643C163.989 745.897 156.163 752.086 151.347 751.754C144.661 751.293 145.643 741.87 141.434 741.447C136.692 740.972 140.134 749.028 136.276 750.612C130.313 753.062 132.008 744.862 133.137 742.303C134.937 738.214 137.415 735.327 135.514 730.755C133.27 725.355 121.127 718.606 115.287 720.05C110.527 721.224 112.065 725.177 115.179 726.893C118.199 728.557 123.518 728.005 125.965 730.462C131.358 735.879 121.987 742.461 116.297 742.167C112.292 741.957 104.585 740.039 103.071 735.802C102.114 733.125 104.092 730.217 104.228 727.61C104.728 717.893 92.0896 713.615 85.4907 717.208C92.3692 742.192 115.249 760.545 142.42 760.545C175.03 760.545 201.464 734.111 201.464 701.501C201.464 695.36 200.527 689.439 198.787 683.875C194.718 685.444 189.93 687.104 185.9 687.083Z" fill="#7967DE"/>
<path d="M113.7 660.643C110.369 659.335 107.199 660.936 104.361 662.257C101.537 663.575 97.8252 664.208 95.9308 666.913L97.9125 669.29C94.0364 670.157 90.0588 676.469 90.3839 680.383C90.9466 687.115 95.8993 682.799 97.5036 679.185C99.2093 675.347 101.177 670.289 105.032 667.794C107.633 666.113 114.7 665.403 113.7 660.643Z" fill="#533BD9"/>
<path d="M135.153 753.705C132.595 753.814 129.435 753.925 127.911 751.416C125.919 748.134 129.558 746.757 128.813 743.384L127.625 740.609C125.447 744.335 114.004 744.307 114.532 748.532C115.067 752.814 126.548 753.828 129.607 754.565C131.798 755.093 135.562 756.973 137.925 756.061C142.616 754.247 137.506 753.604 135.153 753.705Z" fill="#533BD9"/>
<path d="M193.002 695.046L187.85 693.857C184.949 691.131 174.569 694.668 181.115 699.313C184.334 701.599 190.93 701.138 192.911 705.038C193.712 706.611 191.73 710.173 194.18 710.536C196.075 710.816 197.141 706.461 197.382 705.367C198.179 701.711 196.697 696.636 193.002 695.046Z" fill="#533BD9"/>
<path d="M127.23 650.273C125.521 650.318 122.914 652.167 123.634 654.243C124.493 656.721 128.537 655.53 130.4 655.432C133.56 655.267 141.064 655.365 141.158 660.119C146.502 660.797 144.937 655.096 147.516 653.114C149.274 651.762 156.209 652.566 151.308 648.777C146.314 644.911 135.584 648.693 130.002 648.689L127.23 650.273Z" fill="#533BD9"/>
<path d="M170.011 669.985C168.421 671.152 167.341 674.588 166.456 676.423L164.873 680.782C163.161 683.899 148.652 682.176 153.867 688.618C155.45 690.575 159.438 689.708 161.72 689.789C165.034 689.904 164.894 690.544 166.453 686.727C168.312 682.183 171.053 677.629 172.783 672.858C173.901 669.782 173.677 667.297 170.011 669.985Z" fill="#533BD9"/>
<path opacity="0.2" d="M142.738 645.862C136.241 645.173 127.821 647.826 121.739 649.92C111.96 653.292 104.651 660.024 98.4402 668.357C88.1574 682.152 84.9523 701.218 89.3388 717.642C94.0712 735.359 109.163 751.664 127.663 753.719C141.183 755.219 160.948 757.323 170.574 746.201C174.894 741.21 182.583 729.505 173.247 725.995C164.663 722.766 154.028 726.481 145.038 725.115C129.844 722.808 118.443 714.063 119.736 697.678C120.306 690.478 123.078 681.736 128.754 676.955C133.867 672.649 141.039 671.474 147.201 669.534C152.594 667.836 159.753 665.295 159.375 658.539C159.012 652.031 154.37 651.136 151.057 647.445L142.738 645.862Z" fill="#DDDDF4"/>
<path opacity="0.2" d="M130.4 660.971C127.086 659.084 120.774 662.429 119.306 661.761L115.741 662.555C108.013 664.114 103.725 671.618 101.093 678.395C99.5096 682.467 96.2695 696.919 104.647 697.035C108.129 697.084 109.3 692.134 110.502 689.495C112.48 685.158 114.745 680.488 117.943 676.874C120.397 674.099 135.943 664.128 130.4 660.971Z" fill="#CEC3ED"/>
<g filter="url(#filter4_d_183_200)">
<path d="M64.2457 356.863C73.9468 367.302 90.2734 367.899 100.712 358.198C111.151 348.497 111.749 332.171 102.047 321.732C92.3463 311.293 76.0197 310.695 65.5811 320.397C55.1424 330.098 54.5445 346.424 64.2457 356.863Z" fill="#EB53C0"/>
<path d="M83.1788 319.836C78.8448 319.016 76.0731 320.069 74.4246 321.751C72.7762 323.433 73.2322 327.064 76.9471 330.371C81.2131 334.17 89.6709 334.691 90.98 331.283C92.2911 327.875 88.6322 320.869 83.1788 319.836Z" fill="#A812CC"/>
<path d="M80.8807 320.565C86.3353 321.598 89.9931 328.604 88.6831 332.011C88.4665 332.575 88.0514 333.031 87.4945 333.383C89.1253 333.102 90.3792 332.4 90.8207 331.253C92.1306 327.846 88.472 320.838 83.0183 319.807C79.8919 319.215 77.5802 319.599 75.9155 320.489C77.278 320.208 78.9187 320.193 80.8807 320.565Z" fill="#7D0D98"/>
<path d="M88.6683 355.354C88.5954 352.353 83.1367 346.83 79.4565 346.963C75.7751 347.097 73.0998 348.501 73.2959 351.861C73.4899 355.221 76.5811 356.887 79.8242 357.75C83.0673 358.614 88.7809 360.026 88.6683 355.354Z" fill="#A812CC"/>
<path d="M78.6807 349.309C82.3621 349.175 87.8208 354.699 87.8924 357.7C87.893 357.709 87.8926 357.717 87.8923 357.724C88.4005 357.212 88.6951 356.451 88.6685 355.354C88.5956 352.354 83.1369 346.83 79.4567 346.963C75.9612 347.091 73.3744 348.364 73.2902 351.37C74.3205 350.021 76.2866 349.396 78.6807 349.309Z" fill="#7D0D98"/>
<path d="M102.705 337.822C100.855 336.578 97.2852 337.044 95.9154 340.773C94.5457 344.502 95.1995 348.946 97.1633 349.982C99.127 351.019 104.238 349.91 104.967 346.06C105.696 342.21 105.284 339.556 102.705 337.822Z" fill="#A812CC"/>
<path d="M105.061 345.995C105.79 342.145 105.378 339.491 102.799 337.758C102.177 337.339 101.359 337.114 100.497 337.144C102.952 338.879 103.336 341.504 102.621 345.284C102.075 348.167 99.075 349.511 96.776 349.572C96.9266 349.711 97.0871 349.828 97.2579 349.918C99.2208 350.954 104.333 349.844 105.061 345.995Z" fill="#7D0D98"/>
<path d="M67.1402 343.092C66.8692 340.888 64.9559 336.734 61.913 335.196C60.5404 334.503 58.9964 334.367 57.7581 334.701C56.7667 340.229 57.5702 346.077 60.3355 351.3C60.9394 351.321 61.6533 351.284 62.5411 351.227C64.7533 351.085 67.4112 345.295 67.1402 343.092Z" fill="#A812CC"/>
<path d="M67.1705 343.082C66.8995 340.878 64.9862 336.724 61.9433 335.186C60.5707 334.493 59.0267 334.357 57.7884 334.691C57.7547 334.875 57.7253 335.059 57.6958 335.244C58.3319 335.339 58.977 335.537 59.5882 335.845C62.6302 337.382 64.5435 341.536 64.8154 343.741C65.0369 345.538 63.31 349.72 61.465 351.279C61.803 351.264 62.1675 351.243 62.5714 351.218C64.7844 351.077 67.4415 345.286 67.1705 343.082Z" fill="#7D0D98"/>
<path opacity="0.2" d="M78.1955 364.78C92.1663 367.593 105.772 358.547 108.585 344.578C110.954 332.816 104.917 321.313 94.6111 316.291C94.2659 317.203 94.1846 318.358 94.4687 319.773C95.5216 325.04 98.9771 329.811 100.149 335.039C102.605 346.001 99.0636 357.56 86.2651 358.31C81.0784 358.614 75.1882 356.59 71.7627 352.748C67.8172 348.324 69.6896 343.055 71.5956 338.13C73.4901 333.232 79.2022 326.011 77.5714 320.375C77.1387 318.881 75.0424 315.391 71.6649 316.446C64.847 319.892 59.6194 326.319 57.9949 334.39C55.18 348.361 64.2248 361.966 78.1955 364.78Z" fill="#9CE8E6"/>
<path d="M119.792 361.661C116.104 364.175 111.136 363.308 108.694 359.726C106.252 356.144 107.263 351.202 110.949 348.689C114.637 346.175 119.605 347.042 122.047 350.624C124.49 354.204 123.479 359.147 119.792 361.661Z" fill="#B2A1ED"/>
<path opacity="0.5" d="M122.06 350.639C121.184 349.354 119.982 348.421 118.632 347.866C120.186 351.293 119.034 355.496 115.729 357.75C113.363 359.362 110.473 359.582 108.058 358.588C108.238 358.985 108.451 359.372 108.704 359.743C111.146 363.325 116.115 364.191 119.802 361.678C123.491 359.163 124.501 354.221 122.06 350.639Z" fill="#204E84"/>
<path d="M61.3491 325.371C61.3491 325.371 48.8987 322.539 48.6184 327.969C48.4504 331.226 51.2895 340.188 75.0173 354.4C105.377 372.583 125.659 375.2 131.649 373.842C137.639 372.484 122.572 359.647 122.572 359.647L122.123 359.802C122.123 359.802 134.319 371.129 131.29 371.78C120.508 374.1 95.2384 364.083 83.4948 357C71.7513 349.918 55.8397 339.181 52.2699 333.022C48.7955 327.027 53.8852 326.236 56.3283 326.065C58.7279 325.897 61.1254 325.739 61.1254 325.739L61.3491 325.371Z" fill="#9F8CE6"/>
</g>
<g filter="url(#filter5_d_183_200)">
<path d="M19.0514 77.77C29.4653 81.6298 41.0365 76.3166 44.8963 65.9026C48.7561 55.4887 43.443 43.9175 33.029 40.0577C22.6151 36.1979 11.0439 41.511 7.18403 51.925C3.32421 62.3389 8.63741 73.9101 19.0514 77.77Z" fill="#7D0D98"/>
<path d="M42.6813 66.352C40.9761 64.8694 34.1894 63.8343 34.8439 61.082C35.1826 59.6612 37.2043 58.5773 37.1599 56.998C37.1117 55.2853 34.7532 54.4213 33.5284 53.6805C32.3616 52.975 29.9147 51.2328 30.7633 49.4538C31.4175 48.0827 33.3573 48.874 34.3986 49.0822C36.8475 49.5722 38.9725 49.8672 41.4927 49.6854C42.2844 49.6284 43.008 49.4129 43.7176 49.1732C42.8669 47.615 41.8092 46.1667 40.5659 44.873C40.1234 45.2791 39.3117 44.5745 38.5945 45.0437C37.6293 45.675 38.5287 46.7079 36.7916 46.7978C35.865 46.8454 34.3632 46.3827 33.7866 45.5749C33.0351 44.5232 33.467 43.8923 32.0429 43.3023C31.9637 43.2692 30.77 42.9549 30.7299 42.9604C30.0641 43.0475 30.0965 43.5115 29.6015 43.6962C28.1935 44.2204 28.3971 42.9552 27.1612 42.5048C25.8088 42.0124 25.2473 43.0992 24.4205 43.7919C23.3574 44.684 22.0363 44.8951 20.6855 44.4224C19.5089 44.0104 18.9756 43.1475 18.7244 41.9689C18.6116 41.4409 18.827 40.6815 18.7906 40.0777C13.7042 42.0557 9.44275 46.0826 7.32361 51.5535C8.11849 51.2654 8.78391 50.8265 9.10422 50.0616L9.95289 48.9365C11.6361 46.5565 15.5402 45.3261 16.3566 48.7442C16.7062 50.2055 16.5014 51.7241 18.0915 52.5001C19.9588 53.4118 22.032 52.2162 23.8639 51.891C26.1455 51.4862 28.0694 52.4062 29.0425 54.4972C29.6979 55.9043 30.3316 58.8598 28.7293 59.9253C25.5653 62.0293 23.5834 55.5284 20.4263 56.3806C16.2605 57.5052 21.9903 61.4913 22.7677 62.898C25.1719 67.2422 19.2667 68.2985 16.0019 67.1532C15.0075 66.8049 13.968 65.9512 12.8878 65.8479C11.3736 65.7031 9.34581 66.5054 7.80029 66.7019C7.7269 66.7116 7.65506 66.7205 7.58208 66.729C8.96657 69.964 11.1926 72.833 14.0986 74.9842C15.0911 72.9983 17.4655 75.3777 18.6605 75.9145C21.5453 77.2084 20.895 72.4034 23.6905 72.448C24.6219 72.4631 26.2489 73.2249 26.0725 74.1942C25.8603 75.3559 23.2286 75.4481 24.1296 76.6822C25.2068 78.1568 25.7547 75.8804 26.6841 76.0002C27.2729 76.0762 26.9712 76.8594 27.5931 77.062C28.1829 77.2552 28.3474 76.7804 28.9051 76.718C30.2109 76.5723 31.6682 76.8191 32.1844 77.9817C37.2815 76.3517 41.6852 72.7114 44.1531 67.6287C43.6663 67.2465 43.1949 66.7988 42.6813 66.352Z" fill="#EB53C0"/>
<path opacity="0.3" d="M17.762 53.1805C17.3852 52.7412 16.8381 52.9053 16.3441 52.707C15.2706 52.2774 14.5088 51.4796 14.4287 50.3187C14.3521 49.1998 13.446 48.4145 12.2166 48.8133C11.1181 49.1704 10.8139 50.6078 10.2379 51.4493C9.8329 52.0419 8.26843 53.6939 7.53382 53.1309L7.57106 53.212C6.79385 53.4216 6.72967 54.3791 7.12976 54.9438C7.64933 55.676 8.54663 55.3204 9.082 54.794C10.0414 53.8495 10.7182 52.4004 11.9511 51.7491C12.8118 51.2937 13.5831 52.5216 14.3007 52.9729C15.0574 53.4488 16.3336 54.1021 17.2009 54.0161C17.7904 53.9565 18.2472 53.745 17.762 53.1805Z" fill="#EB53C0"/>
<path opacity="0.3" d="M39.8262 57.5842C40.202 56.3854 39.9999 55.5195 39.3532 54.4762C39.0593 54.0017 38.6959 53.6156 38.2842 53.2396C37.8876 52.878 37.3012 52.6721 36.9566 52.2968C36.5196 51.8213 36.6832 51.3525 37.3335 51.2799C37.8631 51.2211 38.406 51.6025 38.8703 51.7988C39.261 51.9639 40.9591 52.4485 40.4462 51.5272C40.191 51.0682 38.8378 50.7457 38.3643 50.6705C36.9852 50.4488 35.5331 49.7493 34.1255 49.6491C34.1023 49.7357 34.0626 49.7058 34.0161 49.7317L33.2212 49.705C32.6424 49.6225 32.3369 50.2685 32.5094 50.7691C32.7086 51.3482 33.4476 51.6323 33.9471 51.8669C35.1736 52.4421 36.2875 52.8347 37.293 53.7799C38.1433 54.5788 38.8588 55.8545 38.6095 57.0685C38.4917 57.6431 37.0037 59.5545 37.4396 59.8582C38.3148 60.4632 39.6498 58.1459 39.8262 57.5842Z" fill="#EB53C0"/>
<path opacity="0.3" d="M27.9269 41.4189C27.8732 41.0157 26.9282 40.7225 26.5975 40.6076C25.7676 40.319 25.0638 40.519 24.2286 40.669C23.5307 40.795 22.1336 41.2179 21.4866 40.8499C21.5193 40.5256 23.0025 39.675 21.8087 39.7721L20.7858 39.9973C19.6034 39.7482 19.5581 41.5799 20.1741 42.1853C21.2567 43.248 22.3908 42.7847 23.5082 42.1984C24.0897 41.8934 24.6906 41.6388 25.3277 41.4954C26.0533 41.3326 26.2895 41.5243 26.8945 41.793C27.2119 41.9334 28.0144 42.0836 27.9269 41.4189Z" fill="#EB53C0"/>
<path opacity="0.3" d="M43.5581 62.6747C43.759 61.5367 42.6453 60.1401 42.2843 59.0998C41.9337 58.0901 40.8612 57.5961 40.5502 58.918C40.631 59.005 40.636 58.8989 40.6775 58.9067L40.45 59.1576C40.1766 59.7342 39.587 60.205 39.028 60.4561C38.5741 60.6599 37.8277 60.5534 37.4382 60.8063C36.8928 61.1577 36.992 61.8559 37.4369 62.2176C38.1073 62.7619 38.9654 62.4198 39.724 62.5105C40.8277 62.6428 43.1558 64.9555 43.5581 62.6747Z" fill="#EB53C0"/>
<path opacity="0.2" d="M32.1619 55.6841C31.3535 52.7819 28.4647 50.3172 25.6669 49.3196C24.4393 48.8811 22.7042 48.7636 21.4098 48.9986C20.1988 49.2176 19.4098 49.5104 18.8095 48.191C17.888 46.1661 16.5004 43.9569 13.9111 44.428C13.0031 44.5929 12.1761 45.0773 11.3814 45.5191C10.8569 45.8109 10.7161 45.8756 10.4845 46.4423C10.3631 46.7388 10.2107 47.7563 10.7005 47.1267L10.8098 46.832C12.6052 45.5741 15.9856 44.7462 17.1433 47.35C17.3612 47.8409 17.2546 48.365 17.3827 48.8619C17.5284 49.4313 17.8565 49.8716 18.2536 50.2765C19.4399 51.4843 20.9263 51.5363 22.468 51.0349C25.131 50.1696 28.355 51.7264 29.7126 54.106C30.9384 56.2551 31.8786 61.5384 28.4234 62.0986C26.9659 62.3353 25.4726 61.4454 24.3564 60.5899C23.364 59.8285 22.6189 58.1635 21.1779 58.3073C20.7891 58.346 20.1454 58.5619 20.37 59.0794C20.6338 59.6863 21.2392 59.1286 21.6053 59.1513C22.6321 59.217 23.7864 60.9119 24.5573 61.5036C25.4113 62.159 26.4387 62.8877 27.4804 63.2078C28.3935 63.4878 30.0438 62.9848 30.6675 62.2575C32.046 60.6482 32.729 57.7161 32.1619 55.6841Z" fill="white"/>
<path opacity="0.2" d="M25.0218 63.6402C24.5806 62.1487 23.188 61.0524 22.0264 60.1788L21.8128 60.0323C20.9687 60.0902 22.0997 60.8064 22.2814 60.9398C22.8365 61.3499 23.1872 61.928 23.496 62.53C24.1367 63.778 24.0714 65.0196 23.6385 66.328C23.085 67.9993 21.8273 69.2483 20.0109 69.2783C18.7156 69.2997 17.1123 68.8883 15.8823 68.4324C14.8375 68.0452 13.743 67.5113 12.6527 67.3738C11.8245 67.2687 10.3815 67.0106 9.76703 67.7744C9.45864 68.1577 9.57247 68.5973 10.0387 68.8158C10.5382 69.0505 10.8547 68.6625 11.3385 68.5765C12.4332 68.3804 13.8907 69.007 14.9705 69.2345C17.542 69.7775 20.6234 71.2942 23.109 69.5684C25.0946 68.188 25.6745 65.8423 25.0218 63.6402Z" fill="white"/>
<path opacity="0.2" d="M33.7609 76.2642C33.7601 75.3143 31.6883 74.6048 30.9847 74.3796C30.0925 74.0946 28.661 74.0998 28.1863 73.2433C27.5015 72.0082 27.4298 71.1945 26.0065 70.6263C24.9404 70.2007 22.9706 70.5142 21.9662 71.0217C20.7258 71.6487 20.1039 72.7411 18.5458 72.6905C16.9581 72.6377 15.3499 71.0717 13.7511 71.477C12.4254 71.8134 12.3738 74.4121 13.577 73.7485L13.6299 73.9687C14.0727 72.2602 16.4041 72.6355 17.5658 73.3479C18.142 73.7012 18.5977 74.3626 19.243 74.5739C20.3486 74.9341 20.6083 73.997 21.1457 73.2834C22.3208 71.7194 24.1969 71.2201 25.94 71.8915C26.48 72.0993 27.4082 72.4344 27.2728 73.1904C27.1633 73.7973 26.4644 73.7718 26.784 74.5365C26.9983 75.0476 27.5321 75.2822 27.9929 75.0049C27.9687 75.0772 27.9538 75.1618 27.9296 75.2341C28.4766 75.3543 29.0674 74.9867 29.6553 75.065C30.2955 75.1499 30.9109 75.524 31.4303 75.8866C31.8095 76.1516 32.2794 76.8361 32.7158 76.9534C33.1097 77.0588 33.7611 76.7365 33.7609 76.2642Z" fill="white"/>
<path opacity="0.2" d="M40.1217 66.5487C38.1919 65.6481 35.023 65.3812 34.1447 63.1781C33.5859 61.7776 34.9423 59.5089 35.506 58.1969C35.8207 57.4642 36.2243 56.3925 35.7022 55.667C35.5499 55.4545 35.0066 55.0195 34.7341 55.0251C34.2041 55.0369 34.3267 55.4632 34.6562 55.6018L35.1221 55.9751C35.6601 57.1508 34.8351 58.1641 34.1181 59.0917C33.2405 60.2264 32.4162 61.7275 32.5542 63.2221C32.6991 64.7903 34.5056 65.842 35.8316 66.3678C36.9942 66.8279 38.3231 66.6984 39.3914 67.4333C40.2048 67.9925 40.7867 69.2657 41.935 68.7125C43.3665 68.0255 40.7622 66.8483 40.1217 66.5487Z" fill="white"/>
<path opacity="0.2" d="M42.2576 47.9553C42.2645 47.7002 42.099 47.4446 41.9582 47.3073L41.8117 47.5209C41.119 48.568 38.8013 48.1965 37.7755 48.0562C35.8502 47.7908 34.0199 47.2622 32.1002 46.9405C30.8293 46.7284 28.6352 46.9245 28.1894 48.4426C28.0476 48.9245 28.3114 49.5416 28.8228 49.6689C29.5285 49.8442 29.3772 49.2726 29.6689 48.7904C30.2504 47.8278 31.7758 48.0351 32.6925 48.2302C33.924 48.4937 35.0558 48.8687 36.3496 48.8684C37.5214 48.8685 38.6358 49.0403 39.7705 49.0445C40.5381 49.0459 42.2263 49.146 42.2576 47.9553Z" fill="white"/>
<g opacity="0.2">
<path opacity="0.2" d="M24.7407 69.1456C24.7596 69.0981 24.7821 69.0544 24.8073 69.0104L24.7998 68.986C24.7788 69.0392 24.7601 69.0932 24.7407 69.1456Z" fill="white"/>
<path opacity="0.2" d="M35.9701 74.2829C35.3832 73.1501 33.2997 72.2636 32.1439 71.9634C31.1319 71.7001 30.0036 71.7643 29.3606 70.8137C28.5578 69.6263 28.3165 68.1365 26.6283 68.1735C25.9834 68.1871 25.1416 68.4235 24.8053 69.0124L24.8881 69.2893C24.7461 69.2989 24.6374 69.3183 24.5534 69.4865C24.9101 69.8739 25.7098 69.5177 26.1928 69.5711C26.7354 69.6313 27.363 69.8804 27.7814 70.2106C28.1499 70.5008 28.6 71.0574 28.7618 71.5148C28.9501 72.0479 28.7139 72.5038 29.2891 72.7982C30.212 73.271 31.3439 72.7689 32.3171 73.3149C33.2988 73.8654 33.4985 74.851 34.1203 75.6806C35.0358 76.8997 36.6104 75.5181 35.9701 74.2829Z" fill="white"/>
</g>
<path opacity="0.2" d="M19.486 46.6012C19.5437 46.5997 19.5693 46.5749 19.5936 46.5471C19.558 46.5644 19.5224 46.5816 19.486 46.6012Z" fill="white"/>
<path opacity="0.2" d="M19.5928 46.5483C19.6158 46.5377 19.6387 46.5272 19.6619 46.5193L19.6558 46.4879C19.6271 46.5038 19.6108 46.527 19.5928 46.5483Z" fill="white"/>
<path opacity="0.2" d="M31.904 44.4372C31.3526 43.8215 31.1394 44.4585 30.6997 44.7474C29.8222 45.3236 28.6332 44.8905 27.6696 44.9143C26.4261 44.9434 25.4564 45.46 24.5657 46.2293C23.7723 46.9141 22.589 47.048 21.5873 46.8837C20.8294 46.7602 20.3738 46.2359 19.6608 46.5188L19.7229 46.8478C18.6881 47.7388 22.2918 48.0348 22.65 48C24.1257 47.855 25.0491 46.9493 26.2505 46.2494C27.2057 45.6932 28.2369 45.7301 29.2888 45.8343C29.9927 45.9048 31.4662 46.2897 31.9752 45.6049C32.2169 45.2781 32.1837 44.7478 31.904 44.4372Z" fill="white"/>
<path opacity="0.5" d="M19.0249 77.7893C29.5317 81.6836 41.1845 76.3857 45.0502 65.9558C48.3049 57.1746 45.0028 47.5565 37.6068 42.4107C37.2296 43.072 37.0264 43.9526 37.076 45.0793C37.2595 49.2734 39.3684 53.38 39.6481 57.5576C40.2352 66.318 36.0956 74.7979 26.0682 73.7957C22.0048 73.3903 17.6759 71.1016 15.478 67.7148C12.9472 63.815 15.0357 59.9818 17.1081 56.4183C19.1692 52.8746 24.4728 48.0089 23.8853 43.4594C23.7291 42.2539 22.5212 39.3026 19.7717 39.6991C14.0631 41.5164 9.23255 45.8287 6.99933 51.854C3.13292 62.2823 8.51685 73.8946 19.0249 77.7893Z" fill="#FF71F8"/>
<path opacity="0.2" d="M10.4078 63.7292C9.8548 61.022 10.4016 58.2793 11.1222 55.6467C11.869 52.9159 13.1901 50.3003 14.7811 47.984C15.7844 46.5239 19.5216 43.9455 17.8473 42.8832C16.2346 41.8601 12.3257 44.5145 11.1272 46.5116C8.83854 50.3264 7.72148 54.272 7.44383 58.7204C7.32676 60.6017 7.37572 62.2233 7.69306 64.0662C7.84054 64.922 7.95971 65.6555 8.55863 66.3345C8.91253 66.7361 9.67466 67.6495 10.1187 67.8217C12.0998 68.5941 10.5714 64.5313 10.4078 63.7292Z" fill="white"/>
</g>
<defs>
<filter id="filter0_d_183_200" x="1180" y="599.368" width="209.98" height="129.241" filterUnits="userSpaceOnUse" color-interpolation-filters="sRGB">
<feFlood flood-opacity="0" result="BackgroundImageFix"/>
<feColorMatrix in="SourceAlpha" type="matrix" values="0 0 0 0 0 0 0 0 0 0 0 0 0 0 0 0 0 0 127 0" result="hardAlpha"/>
<feOffset dy="4"/>
<feGaussianBlur stdDeviation="2"/>
<feComposite in2="hardAlpha" operator="out"/>
<feColorMatrix type="matrix" values="0 0 0 0 0 0 0 0 0 0 0 0 0 0 0 0 0 0 0.25 0"/>
<feBlend mode="normal" in2="BackgroundImageFix" result="effect1_dropShadow_183_200"/>
<feBlend mode="normal" in="SourceGraphic" in2="effect1_dropShadow_183_200" result="shape"/>
</filter>
<filter id="filter1_d_183_200" x="910.993" y="214.975" width="87.8198" height="87.5952" filterUnits="userSpaceOnUse" color-interpolation-filters="sRGB">
<feFlood flood-opacity="0" result="BackgroundImageFix"/>
<feColorMatrix in="SourceAlpha" type="matrix" values="0 0 0 0 0 0 0 0 0 0 0 0 0 0 0 0 0 0 127 0" result="hardAlpha"/>
<feOffset dy="4"/>
<feGaussianBlur stdDeviation="2"/>
<feComposite in2="hardAlpha" operator="out"/>
<feColorMatrix type="matrix" values="0 0 0 0 0 0 0 0 0 0 0 0 0 0 0 0 0 0 0.25 0"/>
<feBlend mode="normal" in2="BackgroundImageFix" result="effect1_dropShadow_183_200"/>
<feBlend mode="normal" in="SourceGraphic" in2="effect1_dropShadow_183_200" result="shape"/>
</filter>
<filter id="filter2_d_183_200" x="1339.68" y="9.66406" width="59.5127" height="59.3682" filterUnits="userSpaceOnUse" color-interpolation-filters="sRGB">
<feFlood flood-opacity="0" result="BackgroundImageFix"/>
<feColorMatrix in="SourceAlpha" type="matrix" values="0 0 0 0 0 0 0 0 0 0 0 0 0 0 0 0 0 0 127 0" result="hardAlpha"/>
<feOffset dy="4"/>
<feGaussianBlur stdDeviation="2"/>
<feComposite in2="hardAlpha" operator="out"/>
<feColorMatrix type="matrix" values="0 0 0 0 0 0 0 0 0 0 0 0 0 0 0 0 0 0 0.25 0"/>
<feBlend mode="normal" in2="BackgroundImageFix" result="effect1_dropShadow_183_200"/>
<feBlend mode="normal" in="SourceGraphic" in2="effect1_dropShadow_183_200" result="shape"/>
</filter>
<filter id="filter3_d_183_200" x="388.463" y="144.463" width="152.994" height="152.994" filterUnits="userSpaceOnUse" color-interpolation-filters="sRGB">
<feFlood flood-opacity="0" result="BackgroundImageFix"/>
<feColorMatrix in="SourceAlpha" type="matrix" values="0 0 0 0 0 0 0 0 0 0 0 0 0 0 0 0 0 0 127 0" result="hardAlpha"/>
<feOffset dy="4"/>
<feGaussianBlur stdDeviation="2"/>
<feComposite in2="hardAlpha" operator="out"/>
<feColorMatrix type="matrix" values="0 0 0 0 0 0 0 0 0 0 0 0 0 0 0 0 0 0 0.25 0"/>
<feBlend mode="normal" in2="BackgroundImageFix" result="effect1_dropShadow_183_200"/>
<feBlend mode="normal" in="SourceGraphic" in2="effect1_dropShadow_183_200" result="shape"/>
</filter>
<filter id="filter4_d_183_200" x="44.6118" y="313.495" width="92.4448" height="68.6519" filterUnits="userSpaceOnUse" color-interpolation-filters="sRGB">
<feFlood flood-opacity="0" result="BackgroundImageFix"/>
<feColorMatrix in="SourceAlpha" type="matrix" values="0 0 0 0 0 0 0 0 0 0 0 0 0 0 0 0 0 0 127 0" result="hardAlpha"/>
<feOffset dy="4"/>
<feGaussianBlur stdDeviation="2"/>
<feComposite in2="hardAlpha" operator="out"/>
<feColorMatrix type="matrix" values="0 0 0 0 0 0 0 0 0 0 0 0 0 0 0 0 0 0 0.25 0"/>
<feBlend mode="normal" in2="BackgroundImageFix" result="effect1_dropShadow_183_200"/>
<feBlend mode="normal" in="SourceGraphic" in2="effect1_dropShadow_183_200" result="shape"/>
</filter>
<filter id="filter5_d_183_200" x="1.74658" y="38.7988" width="48.5557" height="48.2695" filterUnits="userSpaceOnUse" color-interpolation-filters="sRGB">
<feFlood flood-opacity="0" result="BackgroundImageFix"/>
<feColorMatrix in="SourceAlpha" type="matrix" values="0 0 0 0 0 0 0 0 0 0 0 0 0 0 0 0 0 0 127 0" result="hardAlpha"/>
<feOffset dy="4"/>
<feGaussianBlur stdDeviation="2"/>
<feComposite in2="hardAlpha" operator="out"/>
<feColorMatrix type="matrix" values="0 0 0 0 0 0 0 0 0 0 0 0 0 0 0 0 0 0 0.25 0"/>
<feBlend mode="normal" in2="BackgroundImageFix" result="effect1_dropShadow_183_200"/>
<feBlend mode="normal" in="SourceGraphic" in2="effect1_dropShadow_183_200" result="shape"/>
</filter>
</defs>
</svg>
