<svg width="167" height="167" viewBox="0 0 167 167" fill="none" xmlns="http://www.w3.org/2000/svg">
<path d="M32.0969 77.0175C37.9199 74.3297 42.8096 68.9611 44.7774 63.229C48.304 52.9462 57.9577 45.9279 67.7093 51.4118C68.6705 55.7074 63.2075 53.5998 61.044 53.7222C57.8284 53.9039 54.8959 55.2216 53.5922 58.4651C50.859 65.2667 61.2711 68.0698 62.5783 61.3311C59.8695 60.1218 55.616 58.0072 61.8374 57.6752C65.6436 57.4725 67.1361 60.4713 66.1155 63.935C65.2417 66.899 61.6032 69.2652 66.9893 70.3627C70.2852 71.0337 73.6476 68.5557 76.1012 66.6997C82.043 62.2014 82.375 56.6791 76.4227 52.2367C74.2732 50.6324 71.0192 48.9792 70.051 46.2809C69.0549 43.4953 71.7602 39.7939 75.3113 41.4191C78.5373 42.8976 75.2064 47.2736 80.0857 48.5703C84.4232 49.7237 85.6465 44.778 88.3727 42.2125C94.6291 36.3267 102.109 41.9189 93.5351 46.4941C91.064 47.8153 85.9016 49.7831 87.6912 53.3167C89.3619 56.6126 95.0765 55.2181 97.4183 53.3377C99.5748 51.6076 102.811 47.0778 103.35 44.2118C104.223 39.5702 100.193 39.3465 99.1834 36.1903C98.0544 32.6637 104.297 31.2866 110.13 30.8322C102.109 26.7569 93.0318 24.457 83.4201 24.457C52.3794 24.457 26.9346 48.4095 24.5579 78.842C27.0324 78.4435 29.6712 78.1394 32.0969 77.0175Z" fill="#7967DE"/>
<path d="M125.25 125.25C148.308 102.192 148.308 64.8079 125.25 41.75C102.192 18.6921 64.8079 18.6921 41.75 41.75C18.6921 64.8079 18.6921 102.192 41.75 125.25C64.8079 148.308 102.192 148.308 125.25 125.25Z" fill="#573FD8"/>
<path d="M126.9 69.0832C125.824 69.0762 124.572 67.9822 123.244 68.3527C120.602 69.0867 118.173 74.5042 117.253 76.7446C113.671 85.4791 130.937 84.2033 132.269 93.6368C133.052 99.1906 129.654 103.196 124.82 104.849C122.143 105.765 120.308 106.212 117.785 108.012C116.194 109.148 114.838 110.602 113.052 111.252C115.118 110.795 118.396 110.739 120.371 110.774C125.065 110.858 125.1 111.462 122.863 115.202C122 116.646 115.506 126.694 112.626 121.787C111.368 119.641 115.478 117.446 114.555 115.132C113.101 111.49 97.3274 120.564 99.0541 111.148C99.5259 108.575 102.654 107.998 104.611 107.205C107.904 105.87 111.018 104.339 113.734 101.969C121.871 94.8671 113.542 83.3435 104.929 82.246C102.228 81.9 96.7787 81.7147 95.9958 78.1951C94.8494 73.0467 100.599 75.399 103.039 76.4021C113.954 80.8934 110.682 67.4859 113.618 60.8486C115.359 56.9095 118.924 51.845 122.542 49.8422C124.88 48.549 127.368 47.7731 129.336 46.3855C127.683 44.3408 125.897 42.408 123.989 40.6045C123.262 40.961 122.363 41.2406 121.273 41.4154C117.935 41.9501 113.776 41.0204 111.458 43.9004C109.277 46.6127 109.169 51.2823 107.484 54.4209C105.538 58.0489 102.944 61.8307 98.68 62.0369C95.7651 62.1802 92.2735 59.3631 89.5682 60.0482C83.546 61.5721 91.896 68.828 90.2567 73.529C88.9286 77.3388 77.9117 89.9599 75.2939 83.0359C73.6791 78.7648 84.6819 70.5756 74.8849 71.5368C67.7198 72.2393 62.4875 80.4845 55.1546 79.4114C53.8509 76.4475 56.9337 73.536 53.9943 71.4459C51.1562 69.4257 48.1188 72.4875 46.8746 75.1019C45.6058 77.7582 45.0326 82.5711 47.5806 84.6402C51.0059 87.4224 55.9865 84.1788 59.3698 83.3365C61.9982 82.6829 66.2169 82.6864 65.738 86.601C65.1718 91.2077 55.0917 95.3389 51.1387 94.5246C44.2567 93.102 46.9165 83.5917 38.4582 82.246C33.0127 81.3792 28.7626 85.7237 24.7676 90.3374C24.9878 92.2597 25.3023 94.1541 25.7043 96.017C29.2763 93.4166 36.0221 88.8973 38.4547 89.7746C40.4575 90.4981 42.0303 94.4966 43.694 96.003C45.9833 98.0757 48.4963 100.166 51.5302 100.47C54.6094 100.777 58.6044 99.9561 61.1454 98.2015C63.571 96.5273 64.9621 92.7735 68.5063 93.0042C68.6321 98.1001 72.2635 97.5898 75.6119 94.8461C80.215 91.0783 82.2947 87.5692 89.1592 86.9925C94.2167 86.5661 102.399 87.0169 104.569 92.4799C106.541 97.4396 102.776 102.759 97.9356 104.087C92.8501 105.482 84.6399 100.529 81.5467 106.419C77.1917 114.706 86.4959 119.368 93.0424 120.371C95.6742 120.777 100.382 119.921 101.955 122.643C104.989 127.897 97.1632 134.086 92.3468 133.754C85.6606 133.293 86.6427 123.87 82.4345 123.447C77.6915 122.972 81.1343 131.028 77.2756 132.612C71.3128 135.062 73.008 126.862 74.1369 124.303C75.9369 120.214 78.415 117.327 76.5137 112.755C74.2698 107.355 62.1275 100.606 56.287 102.05C51.5266 103.224 53.0646 107.177 56.1788 108.893C59.1986 110.557 64.5182 110.005 66.9648 112.462C72.3579 117.879 62.9873 124.461 57.2972 124.167C53.2917 123.957 45.5848 122.039 44.0714 117.802C43.1137 115.125 45.092 112.217 45.2283 109.61C45.7282 99.8932 33.0896 95.6151 26.4907 99.2081C33.3692 124.192 56.2486 142.545 83.4201 142.545C116.03 142.545 142.464 116.111 142.464 83.5008C142.464 77.3598 141.527 71.4389 139.787 65.8746C135.718 67.4439 130.93 69.1042 126.9 69.0832Z" fill="#7967DE"/>
<path d="M54.7 42.6427C51.3691 41.3355 48.1989 42.9363 45.3609 44.2574C42.5368 45.5751 38.8249 46.2078 36.9305 48.913L38.9123 51.2897C35.0361 52.1565 31.0586 58.4688 31.3837 62.3834C31.9464 69.1151 36.8991 64.7986 38.5034 61.1846C40.209 57.3469 42.1768 52.2894 46.032 49.7938C48.6324 48.1126 55.6997 47.4031 54.7 42.6427Z" fill="#533BD9"/>
<path d="M76.1534 135.705C73.5949 135.814 70.4353 135.925 68.9114 133.416C66.9191 130.134 70.5576 128.757 69.8132 125.384L68.6248 122.609C66.4473 126.335 55.0041 126.307 55.5318 130.532C56.0666 134.814 67.5483 135.828 70.6066 136.565C72.7981 137.093 76.5623 138.973 78.925 138.061C83.6156 136.247 78.5056 135.604 76.1534 135.705Z" fill="#533BD9"/>
<path d="M134.002 77.0455L128.85 75.8572C125.949 73.1309 115.568 76.668 122.115 81.3131C125.334 83.599 131.929 83.1376 133.911 87.0382C134.712 88.6111 132.73 92.1726 135.18 92.5361C137.074 92.8157 138.14 88.4608 138.381 87.3668C139.178 83.7108 137.696 78.6358 134.002 77.0455Z" fill="#533BD9"/>
<path d="M68.2299 32.2728C66.5207 32.3182 63.9133 34.1672 64.6333 36.2433C65.4932 38.7214 69.537 37.5295 71.4 37.4317C74.5596 37.2674 82.0637 37.3653 82.1581 42.1187C87.5022 42.7968 85.9365 37.0961 88.5159 35.1144C90.274 33.7617 97.2084 34.5656 92.3081 30.7768C87.3135 26.9112 76.5833 30.693 71.0015 30.6895L68.2299 32.2728Z" fill="#533BD9"/>
<path d="M111.011 51.9849C109.421 53.1523 108.341 56.5881 107.456 58.4231L105.873 62.7815C104.161 65.8992 89.652 64.1761 94.8668 70.6177C96.4502 72.575 100.438 71.7082 102.72 71.7886C106.034 71.9039 105.894 72.5436 107.453 68.7268C109.312 64.1831 112.053 59.6289 113.783 54.858C114.901 51.7822 114.677 49.2971 111.011 51.9849Z" fill="#533BD9"/>
<path opacity="0.2" d="M83.7381 27.8616C77.2405 27.1731 68.8207 29.8259 62.7391 31.9195C52.9596 35.2923 45.6511 42.0241 39.4402 50.3566C29.1574 64.152 25.9523 83.2182 30.3388 99.642C35.0712 117.359 50.1634 133.664 68.6634 135.719C82.1828 137.219 101.948 139.323 111.574 128.201C115.894 123.21 123.583 111.505 114.247 107.995C105.663 104.766 95.0275 108.481 86.0379 107.115C70.8444 104.808 59.4432 96.063 60.7364 79.6776C61.3061 72.4775 64.0777 63.7361 69.7539 58.9547C74.8673 54.6486 82.0394 53.4742 88.2014 51.5344C93.5945 49.8358 100.753 47.2948 100.375 40.5386C100.012 34.0306 95.37 33.1358 92.0566 29.4449L83.7381 27.8616Z" fill="#DDDDF4"/>
<path opacity="0.2" d="M71.4002 42.9714C68.0867 41.084 61.7744 44.4289 60.3065 43.7613L56.7414 44.5547C49.0136 46.1135 44.725 53.6177 42.0932 60.3948C40.5098 64.4667 37.2698 78.9192 45.6477 79.0346C49.1289 79.0835 50.2998 74.1343 51.5021 71.4955C53.4804 67.158 55.7453 62.4884 58.9434 58.8744C61.397 56.0992 76.9435 46.1275 71.4002 42.9714Z" fill="#CEC3ED"/>
</svg>
