<svg width="229" height="229" viewBox="0 0 229 229" fill="none" xmlns="http://www.w3.org/2000/svg">
<g filter="url(#filter0_d_157_210)">
<path d="M171.75 171.75C203.368 140.132 203.368 88.8683 171.75 57.25C140.132 25.6317 88.8683 25.6317 57.25 57.25C25.6317 88.8683 25.6317 140.132 57.25 171.75C88.8683 203.368 140.132 203.368 171.75 171.75Z" fill="#573FD8"/>
</g>
<path d="M44.0132 105.612C51.998 101.926 58.7031 94.5642 61.4015 86.704C66.2374 72.6036 79.4751 62.9797 92.847 70.4996C94.165 76.3899 86.6739 73.4999 83.7071 73.6676C79.2978 73.9168 75.2766 75.7237 73.4889 80.1714C69.7409 89.4982 84.0186 93.342 85.8111 84.1015C82.0967 82.4432 76.2639 79.5436 84.7951 79.0883C90.0144 78.8103 92.061 82.9225 90.6615 87.6721C89.4633 91.7364 84.474 94.9811 91.8597 96.4861C96.3793 97.4063 100.99 94.0082 104.354 91.4632C112.502 85.2949 112.958 77.7223 104.795 71.6307C101.848 69.4308 97.3857 67.1638 96.0581 63.4638C94.6922 59.6439 98.4018 54.5684 103.271 56.797C107.695 58.8244 103.127 64.8249 109.818 66.6031C115.766 68.1847 117.444 61.4029 121.182 57.885C129.761 49.8139 140.018 57.4824 128.261 63.7561C124.872 65.5678 117.793 68.2661 120.247 73.1116C122.538 77.6312 130.375 75.7189 133.586 73.1404C136.543 70.768 140.981 64.5565 141.719 60.6264C142.917 54.2616 137.391 53.9549 136.006 49.627C134.458 44.7911 143.018 42.9027 151.017 42.2797C140.018 36.6913 127.571 33.5376 114.391 33.5376C71.8258 33.5376 36.9344 66.3826 33.6753 108.113C37.0686 107.567 40.6871 107.15 44.0132 105.612Z" fill="#7967DE"/>
<path d="M174.012 94.7323C172.536 94.7227 170.82 93.2226 168.999 93.7306C165.376 94.7371 162.045 102.166 160.784 105.238C155.872 117.215 179.548 115.466 181.374 128.402C182.448 136.017 177.789 141.51 171.161 143.777C167.489 145.033 164.973 145.646 161.513 148.114C159.332 149.672 157.473 151.666 155.023 152.557C157.856 151.929 162.352 151.853 165.059 151.901C171.496 152.016 171.544 152.845 168.477 157.973C167.293 159.953 158.388 173.732 154.439 167.003C152.713 164.06 158.35 161.05 157.084 157.877C155.091 152.883 133.461 165.325 135.828 152.413C136.475 148.886 140.765 148.095 143.449 147.007C147.964 145.176 152.234 143.077 155.958 139.828C167.116 130.089 155.694 114.287 143.885 112.782C140.18 112.307 132.708 112.053 131.635 107.227C130.063 100.167 137.947 103.393 141.292 104.768C156.26 110.927 151.774 92.542 155.8 83.4405C158.187 78.039 163.075 71.0943 168.036 68.348C171.242 66.5747 174.655 65.5107 177.353 63.608C175.086 60.8042 172.637 58.1537 170.02 55.6807C169.023 56.1695 167.791 56.553 166.296 56.7926C161.719 57.5259 156.015 56.251 152.838 60.2003C149.847 63.9195 149.699 70.3226 147.389 74.6266C144.719 79.6015 141.163 84.7873 135.315 85.07C131.318 85.2665 126.53 81.4035 122.821 82.3429C114.563 84.4326 126.013 94.3824 123.765 100.829C121.944 106.053 106.837 123.36 103.247 113.865C101.033 108.008 116.12 96.7788 102.686 98.0968C92.861 99.0602 85.6861 110.366 75.6309 108.895C73.8431 104.831 78.0705 100.838 74.0397 97.9722C70.148 95.202 65.983 99.4005 64.2768 102.985C62.537 106.628 61.751 113.228 65.2449 116.065C69.9419 119.88 76.7716 115.432 81.411 114.277C85.0152 113.381 90.8 113.386 90.1434 118.754C89.367 125.071 75.5446 130.736 70.1239 129.619C60.687 127.668 64.3342 114.627 52.7357 112.782C45.2685 111.593 39.4406 117.551 33.9624 123.877C34.2643 126.513 34.6957 129.111 35.2468 131.666C40.1451 128.1 49.3952 121.903 52.731 123.106C55.4773 124.098 57.634 129.581 59.9154 131.646C63.0547 134.488 66.5007 137.355 70.6608 137.772C74.8832 138.193 80.3614 137.067 83.8458 134.661C87.1719 132.365 89.0795 127.218 93.9394 127.534C94.1119 134.522 99.0916 133.822 103.683 130.06C109.995 124.893 112.847 120.081 122.26 119.291C129.195 118.706 140.415 119.324 143.391 126.815C146.094 133.616 140.933 140.911 134.295 142.732C127.321 144.644 116.063 137.853 111.821 145.929C105.849 157.293 118.608 163.686 127.585 165.062C131.194 165.618 137.65 164.443 139.806 168.177C143.966 175.381 133.235 183.869 126.631 183.413C117.462 182.781 118.809 169.859 113.039 169.279C106.535 168.627 111.256 179.675 105.964 181.846C97.7879 185.206 100.112 173.962 101.66 170.454C104.129 164.846 107.527 160.887 104.92 154.618C101.843 147.213 85.1925 137.958 77.1837 139.938C70.6559 141.548 72.7649 146.969 77.0352 149.322C81.1762 151.603 88.4707 150.846 91.8257 154.216C99.221 161.644 86.3715 170.669 78.5689 170.267C73.0764 169.979 62.5082 167.348 60.4329 161.539C59.1197 157.868 61.8325 153.88 62.0194 150.305C62.7048 136.981 45.374 131.114 36.3252 136.041C45.7574 170.3 77.1311 195.467 114.39 195.467C159.107 195.467 195.355 159.219 195.355 114.503C195.355 106.082 194.07 97.9626 191.683 90.3325C186.105 92.4845 179.538 94.7611 174.012 94.7323Z" fill="#7967DE"/>
<path d="M75.0081 58.4735C70.4406 56.681 66.0934 58.8761 62.2017 60.6877C58.3291 62.4946 53.2393 63.3621 50.6416 67.0717L53.359 70.3308C48.0438 71.5194 42.5896 80.1752 43.0354 85.5431C43.807 94.774 50.5984 88.8549 52.7983 83.8992C55.1372 78.6367 57.8356 71.7016 63.122 68.2795C66.6878 65.9742 76.3789 65.0012 75.0081 58.4735Z" fill="#533BD9"/>
<path d="M104.427 186.087C100.918 186.236 96.5857 186.389 94.496 182.948C91.7642 178.447 96.7535 176.559 95.7326 171.934L94.103 168.128C91.1171 173.238 75.4255 173.199 76.1493 178.994C76.8825 184.865 92.6269 186.255 96.8206 187.266C99.8257 187.99 104.987 190.568 108.227 189.317C114.659 186.83 107.652 185.948 104.427 186.087Z" fill="#533BD9"/>
<path d="M183.751 105.649L176.687 104.019C172.709 100.281 158.474 105.131 167.451 111.501C171.865 114.635 180.909 114.003 183.627 119.351C184.724 121.508 182.007 126.392 185.367 126.89C187.964 127.274 189.426 121.302 189.757 119.802C190.849 114.789 188.817 107.829 183.751 105.649Z" fill="#533BD9"/>
<path d="M93.5602 44.2545C91.2165 44.3168 87.6411 46.8522 88.6284 49.6991C89.8074 53.0972 95.3526 51.4629 97.9072 51.3287C102.24 51.1034 112.53 51.2376 112.659 57.7558C119.988 58.6856 117.84 50.8686 121.378 48.1511C123.788 46.2963 133.297 47.3986 126.578 42.2032C119.729 36.9024 105.015 42.0882 97.3609 42.0834L93.5602 44.2545Z" fill="#533BD9"/>
<path d="M152.225 71.2854C150.044 72.8862 148.563 77.5975 147.35 80.1137L145.179 86.0903C142.831 90.3655 122.936 88.0026 130.087 96.8357C132.258 99.5197 137.726 98.3311 140.856 98.4413C145.4 98.5995 145.208 99.4766 147.346 94.2429C149.895 88.0122 153.653 81.7672 156.025 75.2251C157.559 71.0074 157.252 67.5998 152.225 71.2854Z" fill="#533BD9"/>
<defs>
<filter id="filter0_d_157_210" x="33.5361" y="33.5361" width="169.928" height="169.928" filterUnits="userSpaceOnUse" color-interpolation-filters="sRGB">
<feFlood flood-opacity="0" result="BackgroundImageFix"/>
<feColorMatrix in="SourceAlpha" type="matrix" values="0 0 0 0 0 0 0 0 0 0 0 0 0 0 0 0 0 0 127 0" result="hardAlpha"/>
<feOffset dx="4" dy="4"/>
<feGaussianBlur stdDeviation="2"/>
<feComposite in2="hardAlpha" operator="out"/>
<feColorMatrix type="matrix" values="0 0 0 0 0 0 0 0 0 0 0 0 0 0 0 0 0 0 0.25 0"/>
<feBlend mode="normal" in2="BackgroundImageFix" result="effect1_dropShadow_157_210"/>
<feBlend mode="normal" in="SourceGraphic" in2="effect1_dropShadow_157_210" result="shape"/>
</filter>
</defs>
</svg>
