<svg width="253" height="177" viewBox="0 0 253 177" fill="none" xmlns="http://www.w3.org/2000/svg">
<path d="M32.4282 28.9724C32.6181 28.428 32.2384 18.8805 37.5962 11.3639C42.954 3.84738 49.9782 2.73768 55.1673 1.81638C61.4532 0.706779 76.6196 -1.11482 79.0243 4.01488C81.429 9.14458 79.5728 11.9083 83.454 13.3739C87.3353 14.8396 80.311 23.4658 80.311 23.4658L32.4282 28.9724ZM218.581 28.7839C218.581 28.7839 220.099 19.5086 214.763 13.2483C206.747 3.80548 194.196 0.74858 182.32 0.74858C178.502 0.74858 173.925 1.48138 172.449 6.00388C171.605 8.62108 171.014 11.8036 169.158 12.1596C167.323 12.5364 206.557 24.5755 218.581 28.7839Z" fill="#4B2D71"/>
<path d="M73.3501 125.201C67.0431 130.058 58.6688 163.558 45.5696 172.415C32.4704 181.272 2.7915 176.54 0.555549 158.471C-1.40617 142.537 2.1587 109.037 11.1024 74.804C20.0462 40.5715 26.9227 23.6122 47.8266 18.0637C64.5962 13.604 97.46 10.4634 129.375 10.7775C161.311 11.0915 189.26 11.0915 206.831 17.7497C222.588 23.7169 233.325 39.9434 240.687 71.622C248.027 103.321 253.702 141.427 252.816 154.032C251.529 172.415 225.352 184.14 205.882 169.882C190.378 158.533 187.362 129.64 179.388 125.515C171.415 121.39 79.0876 120.762 73.3501 125.201Z" fill="#4B2D71"/>
<path d="M187.699 116.574C186.18 118.459 189.682 121.264 192.171 127.399C194.66 133.534 201.073 153.843 207.295 159.517C215.058 166.573 221.112 165.254 222.293 163.035C223.474 160.815 216.766 155.079 208.877 142.286C200.988 129.493 190.863 112.659 187.699 116.574ZM13.1906 111.361C10.8492 111.78 4.64761 142.684 9.24611 155.749C13.0851 166.636 27.7875 167.243 33.314 165.673C44.325 162.553 47.7844 151.959 45.2742 150.786C42.7851 149.614 34.0523 157.905 25.8047 154.053C16.6078 149.739 16.7344 137.596 15.5531 125.326C14.4984 114.271 15.4266 110.963 13.1906 111.361ZM71.1773 42.8326C70.3125 42.8326 62.7187 42.7907 62.7187 42.7907L62.7609 33.6829C62.7609 33.6829 62.9297 26.3339 54.9984 26.5014C47.8898 26.6479 48.0375 32.5314 48.0375 33.6829C48.0375 34.8345 47.9953 42.7278 47.9953 42.7278C47.9953 42.7278 39.9375 42.6441 38.4398 42.6859C36.9422 42.7278 31.3312 42.8117 31.3312 49.9932C31.3312 56.777 37.132 57.259 38.4398 57.3C39.7476 57.342 47.9531 57.342 47.9531 57.342C47.9531 57.342 47.8898 64.943 47.9109 66.178C47.932 67.413 48.164 73.234 55.2726 73.234C63.0351 73.234 62.6344 66.178 62.6344 66.178L62.6765 57.405C62.6765 57.405 69.9328 57.468 71.1984 57.447C73.0125 57.405 78.3492 56.9239 78.4336 49.7419C78.4969 42.6441 72.0633 42.8326 71.1773 42.8326Z" fill="#1F122F"/>
<path d="M93.094 103.572C103.043 103.572 111.108 95.567 111.108 85.692C111.108 75.816 103.043 67.811 93.094 67.811C83.1448 67.811 75.0796 75.816 75.0796 85.692C75.0796 95.567 83.1448 103.572 93.094 103.572Z" fill="#1F122F"/>
<path d="M155.004 103.845C164.953 103.845 173.018 95.839 173.018 85.964C173.018 76.089 164.953 68.083 155.004 68.083C145.055 68.083 136.99 76.089 136.99 85.964C136.99 95.839 145.055 103.845 155.004 103.845Z" fill="#1F122F"/>
<path d="M93.073 97.2069C99.725 97.2069 105.117 91.8549 105.117 85.2519C105.117 78.6489 99.725 73.2969 93.073 73.2969C86.4206 73.2969 81.0281 78.6489 81.0281 85.2519C81.0281 91.8549 86.4206 97.2069 93.073 97.2069Z" fill="#A983DA"/>
<path d="M155.004 97.6048C161.656 97.6048 167.049 92.2528 167.049 85.6498C167.049 79.0468 161.656 73.6948 155.004 73.6948C148.352 73.6948 142.959 79.0468 142.959 85.6498C142.959 92.2528 148.352 97.6048 155.004 97.6048Z" fill="#A983DA"/>
<path d="M172.027 60.253C177.386 60.253 181.73 55.941 181.73 50.6215C181.73 45.3023 177.386 40.9902 172.027 40.9902C166.668 40.9902 162.323 45.3023 162.323 50.6215C162.323 55.941 166.668 60.253 172.027 60.253Z" fill="#A983DA"/>
<path d="M191.264 78.699C196.623 78.699 200.967 74.386 200.967 69.067C200.967 63.748 196.623 59.436 191.264 59.436C185.905 59.436 181.561 63.748 181.561 69.067C181.561 74.386 185.905 78.699 191.264 78.699Z" fill="#A983DA"/>
<path d="M210.628 61.781C215.987 61.781 220.331 57.469 220.331 52.1498C220.331 46.8306 215.987 42.5186 210.628 42.5186C205.269 42.5186 200.925 46.8306 200.925 52.1498C200.925 57.469 205.269 61.781 210.628 61.781Z" fill="#A983DA"/>
<path d="M191.433 42.1209C196.792 42.1209 201.136 37.8088 201.136 32.4896C201.136 27.1705 196.792 22.8584 191.433 22.8584C186.074 22.8584 181.73 27.1705 181.73 32.4896C181.73 37.8088 186.074 42.1209 191.433 42.1209Z" fill="#A983DA"/>
</svg>
