<svg width="270" height="268" viewBox="0 0 270 268" fill="none" xmlns="http://www.w3.org/2000/svg">
<path d="M41.4282 73.9724C41.6181 73.428 41.2384 63.8805 46.5962 56.3639C51.954 48.8474 58.9782 47.7377 64.1673 46.8164C70.4532 45.7068 85.6196 43.8852 88.0243 49.0149C90.429 54.1446 88.5728 56.9083 92.454 58.3739C96.3353 59.8396 89.311 68.4658 89.311 68.4658L41.4282 73.9724ZM227.581 73.7839C227.581 73.7839 229.099 64.5086 223.763 58.2483C215.747 48.8055 203.196 45.7486 191.32 45.7486C187.502 45.7486 182.925 46.4814 181.449 51.0039C180.605 53.6211 180.014 56.8036 178.158 57.1596C176.323 57.5364 215.557 69.5755 227.581 73.7839Z" fill="#4B2D71"/>
<path d="M82.3501 170.201C76.0431 175.058 67.6688 208.558 54.5696 217.415C41.4704 226.272 11.7915 221.54 9.55555 203.471C7.59383 187.537 11.1587 154.037 20.1024 119.804C29.0462 85.5715 35.9227 68.6122 56.8266 63.0637C73.5962 58.604 106.46 55.4634 138.375 55.7775C170.311 56.0915 198.26 56.0915 215.831 62.7497C231.588 68.7169 242.325 84.9434 249.687 116.622C257.027 148.321 262.702 186.427 261.816 199.032C260.529 217.415 234.352 229.14 214.882 214.882C199.378 203.533 196.362 174.64 188.388 170.515C180.415 166.39 88.0876 165.762 82.3501 170.201Z" fill="#4B2D71"/>
<path d="M196.699 161.574C195.18 163.459 198.682 166.264 201.171 172.399C203.66 178.534 210.073 198.843 216.295 204.517C224.058 211.573 230.112 210.254 231.293 208.035C232.474 205.815 225.766 200.079 217.877 187.286C209.988 174.493 199.863 157.659 196.699 161.574ZM22.1906 156.361C19.8492 156.78 13.6476 187.684 18.2461 200.749C22.0851 211.636 36.7875 212.243 42.314 210.673C53.325 207.553 56.7844 196.959 54.2742 195.786C51.7851 194.614 43.0523 202.905 34.8047 199.053C25.6078 194.739 25.7344 182.596 24.5531 170.326C23.4984 159.271 24.4266 155.963 22.1906 156.361ZM80.1773 87.8326C79.3125 87.8326 71.7187 87.7907 71.7187 87.7907L71.7609 78.6829C71.7609 78.6829 71.9297 71.3339 63.9984 71.5014C56.8898 71.6479 57.0375 77.5314 57.0375 78.6829C57.0375 79.8345 56.9953 87.7279 56.9953 87.7279C56.9953 87.7279 48.9375 87.6442 47.4398 87.686C45.9422 87.7279 40.3312 87.8117 40.3312 94.9932C40.3312 101.777 46.132 102.259 47.4398 102.3C48.7476 102.342 56.9531 102.342 56.9531 102.342C56.9531 102.342 56.8898 109.943 56.9109 111.178C56.932 112.413 57.164 118.234 64.2726 118.234C72.0351 118.234 71.6344 111.178 71.6344 111.178L71.6765 102.405C71.6765 102.405 78.9328 102.468 80.1984 102.447C82.0125 102.405 87.3492 101.924 87.4336 94.742C87.4969 87.6442 81.0633 87.8326 80.1773 87.8326Z" fill="#1F122F"/>
<path d="M102.094 148.572C112.043 148.572 120.108 140.567 120.108 130.692C120.108 120.816 112.043 112.811 102.094 112.811C92.1448 112.811 84.0796 120.816 84.0796 130.692C84.0796 140.567 92.1448 148.572 102.094 148.572Z" fill="#1F122F"/>
<path d="M164.004 148.845C173.953 148.845 182.018 140.839 182.018 130.964C182.018 121.089 173.953 113.083 164.004 113.083C154.055 113.083 145.99 121.089 145.99 130.964C145.99 140.839 154.055 148.845 164.004 148.845Z" fill="#1F122F"/>
<path d="M102.073 142.207C108.725 142.207 114.117 136.855 114.117 130.252C114.117 123.649 108.725 118.297 102.073 118.297C95.4206 118.297 90.0281 123.649 90.0281 130.252C90.0281 136.855 95.4206 142.207 102.073 142.207Z" fill="#A983DA"/>
<path d="M164.004 142.605C170.656 142.605 176.049 137.253 176.049 130.65C176.049 124.047 170.656 118.695 164.004 118.695C157.352 118.695 151.959 124.047 151.959 130.65C151.959 137.253 157.352 142.605 164.004 142.605Z" fill="#A983DA"/>
<path d="M181.027 105.253C186.386 105.253 190.73 100.941 190.73 95.6215C190.73 90.3023 186.386 85.9902 181.027 85.9902C175.668 85.9902 171.323 90.3023 171.323 95.6215C171.323 100.941 175.668 105.253 181.027 105.253Z" fill="#A983DA"/>
<path d="M200.264 123.699C205.623 123.699 209.967 119.386 209.967 114.067C209.967 108.748 205.623 104.436 200.264 104.436C194.905 104.436 190.561 108.748 190.561 114.067C190.561 119.386 194.905 123.699 200.264 123.699Z" fill="#A983DA"/>
<path d="M219.628 106.781C224.987 106.781 229.331 102.469 229.331 97.1498C229.331 91.8306 224.987 87.5186 219.628 87.5186C214.269 87.5186 209.925 91.8306 209.925 97.1498C209.925 102.469 214.269 106.781 219.628 106.781Z" fill="#A983DA"/>
<path d="M200.433 87.1209C205.792 87.1209 210.136 82.8088 210.136 77.4896C210.136 72.1705 205.792 67.8584 200.433 67.8584C195.074 67.8584 190.73 72.1705 190.73 77.4896C190.73 82.8088 195.074 87.1209 200.433 87.1209Z" fill="#A983DA"/>
</svg>
